<svg xmlns="http://www.w3.org/2000/svg" width="46.969" height="43.034" viewBox="0 0 46.969 43.034"><defs><style>.a{fill:#0c5fb0;}.a,.c{stroke:#fff;stroke-width:1.5px;fill-rule:evenodd;}.b{fill:#fff;}.c{fill:#508ee3;}</style></defs><g transform="translate(0.75 0.75)"><g transform="translate(0 0)"><g transform="translate(0 0)"><path class="a" d="M7.255,0l6.8,5.4h6.188A5.294,5.294,0,0,1,25.537,10.7V25.47a5.294,5.294,0,0,1-5.294,5.294H5.294A5.294,5.294,0,0,1,0,25.47V10.7A5.294,5.294,0,0,1,5.294,5.4h1.96Z" transform="translate(45.469 30.764) rotate(180)"/><path class="b" d="M29.255,7.01a1.569,1.569,0,0,1,.288.63h4.289a.724.724,0,0,1,.6.212.979.979,0,0,1,.164.61.954.954,0,0,1-.164.6.724.724,0,0,1-.6.212H32.27a13.254,13.254,0,0,1-1.131,2.967,11.528,11.528,0,0,1-1.679,2.35,14.95,14.95,0,0,0,2.131,1.329,14.4,14.4,0,0,0,2.473.987,1.1,1.1,0,0,1,.6.411.824.824,0,0,1,.014.713q-.247.767-1.192.452A16.521,16.521,0,0,1,30.543,17.3a13.133,13.133,0,0,1-2.371-1.548q-.534.411-1.172.808t-1.315.754q-.678.356-1.384.658t-1.377.521a2.811,2.811,0,0,1-.528.116.752.752,0,0,1-.349-.034.454.454,0,0,1-.219-.185,1.556,1.556,0,0,1-.151-.336.916.916,0,0,1,0-.7,1.115,1.115,0,0,1,.74-.438,18.755,18.755,0,0,0,2.391-.939A11.055,11.055,0,0,0,26.967,14.6a12.971,12.971,0,0,1-.952-1.151,10.5,10.5,0,0,1-.781-1.24,13.15,13.15,0,0,1-.637-1.377q-.288-.726-.534-1.562h-1.48a.7.7,0,0,1-.6-.212,1.018,1.018,0,0,1-.151-.6,1.045,1.045,0,0,1,.151-.61.7.7,0,0,1,.6-.212h5.1q-.137-.178-.295-.363t-.308-.336a1.162,1.162,0,0,1-.384-.761.737.737,0,0,1,.37-.569.868.868,0,0,1,.6-.192,1.025,1.025,0,0,1,.623.4q.233.26.486.569T29.255,7.01ZM25.734,9.271a10.4,10.4,0,0,0,1,2.343A9.917,9.917,0,0,0,28.2,13.505a9.585,9.585,0,0,0,1.4-1.891,10.508,10.508,0,0,0,.952-2.343Z" transform="translate(4.376 0.397)"/><path class="c" d="M8,39.514l6.8-5.4h6.188a5.294,5.294,0,0,0,5.294-5.294V14.044A5.294,5.294,0,0,0,20.993,8.75H6.044A5.294,5.294,0,0,0,.75,14.044V28.815A5.294,5.294,0,0,0,6.044,34.11H8Z" transform="translate(-0.75 1.216)"/><path class="b" d="M15.625,25.295l-.732-2.006H9.7l-.732,2.006H6.242l4.5-11.633h3.1l4.482,11.633Zm-3.331-9.487-1.936,5.337h3.854Z" transform="translate(0.6 2.423)"/></g></g></g></svg>