<svg width="126" height="126" viewBox="0 0 126 126" fill="none" xmlns="http://www.w3.org/2000/svg">
<g filter="url(#filter0_d)">
<path d="M25 53C25 32.0132 42.0132 15 63 15C83.9868 15 101 32.0132 101 53C101 73.9868 83.9868 91 63 91C42.0132 91 25 73.9868 25 53Z" fill="white"/>
<path d="M62.85 40.2C68.4281 40.2 72.95 35.6781 72.95 30.1C72.95 24.5219 68.4281 20 62.85 20C57.2719 20 52.75 24.5219 52.75 30.1C52.75 35.6781 57.2719 40.2 62.85 40.2Z" fill="url(#paint0_radial)"/>
<path d="M43.1 51.5999C48.6781 51.5999 53.2 47.078 53.2 41.4999C53.2 35.9218 48.6781 31.3999 43.1 31.3999C37.5219 31.3999 33 35.9218 33 41.4999C33 47.078 37.5219 51.5999 43.1 51.5999Z" fill="url(#paint1_radial)"/>
<path d="M43.1 74.3899C48.6781 74.3899 53.2 69.868 53.2 64.2899C53.2 58.7119 48.6781 54.1899 43.1 54.1899C37.5219 54.1899 33 58.7119 33 64.2899C33 69.868 37.5219 74.3899 43.1 74.3899Z" fill="url(#paint2_radial)"/>
<path d="M62.85 85.7898C68.4281 85.7898 72.95 81.2679 72.95 75.6898C72.95 70.1118 68.4281 65.5898 62.85 65.5898C57.2719 65.5898 52.75 70.1118 52.75 75.6898C52.75 81.2679 57.2719 85.7898 62.85 85.7898Z" fill="url(#paint3_radial)"/>
<path d="M82.5897 74.3899C88.1678 74.3899 92.6897 69.868 92.6897 64.2899C92.6897 58.7119 88.1678 54.1899 82.5897 54.1899C77.0117 54.1899 72.4897 58.7119 72.4897 64.2899C72.4897 69.868 77.0117 74.3899 82.5897 74.3899Z" fill="url(#paint4_radial)"/>
<path d="M82.5897 51.5999C88.1678 51.5999 92.6897 47.078 92.6897 41.4999C92.6897 35.9218 88.1678 31.3999 82.5897 31.3999C77.0117 31.3999 72.4897 35.9218 72.4897 41.4999C72.4897 47.078 77.0117 51.5999 82.5897 51.5999Z" fill="url(#paint5_radial)"/>
</g>
<defs>
<filter id="filter0_d" x="0" y="0" width="126" height="126" filterUnits="userSpaceOnUse" color-interpolation-filters="sRGB">
<feFlood flood-opacity="0" result="BackgroundImageFix"/>
<feColorMatrix in="SourceAlpha" type="matrix" values="0 0 0 0 0 0 0 0 0 0 0 0 0 0 0 0 0 0 127 0" result="hardAlpha"/>
<feOffset dy="10"/>
<feGaussianBlur stdDeviation="12.5"/>
<feComposite in2="hardAlpha" operator="out"/>
<feColorMatrix type="matrix" values="0 0 0 0 0 0 0 0 0 0 0 0 0 0 0 0 0 0 0.15 0"/>
<feBlend mode="normal" in2="BackgroundImageFix" result="effect1_dropShadow"/>
<feBlend mode="normal" in="SourceGraphic" in2="effect1_dropShadow" result="shape"/>
</filter>
<radialGradient id="paint0_radial" cx="0" cy="0" r="1" gradientUnits="userSpaceOnUse" gradientTransform="translate(62.85 30.1) scale(10.1)">
<stop stop-color="#BD2027"/>
<stop offset="1" stop-color="#E82130"/>
</radialGradient>
<radialGradient id="paint1_radial" cx="0" cy="0" r="1" gradientUnits="userSpaceOnUse" gradientTransform="translate(43.1 41.4999) scale(10.11)">
<stop stop-color="#075777"/>
<stop offset="1" stop-color="#00558A"/>
</radialGradient>
<radialGradient id="paint2_radial" cx="0" cy="0" r="1" gradientUnits="userSpaceOnUse" gradientTransform="translate(43.1 64.2899) scale(10.11)">
<stop stop-color="#D24B27"/>
<stop offset="1" stop-color="#F26E25"/>
</radialGradient>
<radialGradient id="paint3_radial" cx="0" cy="0" r="1" gradientUnits="userSpaceOnUse" gradientTransform="translate(62.85 75.6898) scale(10.1)">
<stop offset="0.01" stop-color="#2A572A"/>
<stop offset="0.54" stop-color="#396633"/>
<stop offset="1" stop-color="#4A773E"/>
</radialGradient>
<radialGradient id="paint4_radial" cx="0" cy="0" r="1" gradientUnits="userSpaceOnUse" gradientTransform="translate(82.5897 64.2899) scale(10.11)">
<stop stop-color="#CD8E2A"/>
<stop offset="0.08" stop-color="#D49427"/>
<stop offset="0.38" stop-color="#E7A31F"/>
<stop offset="0.69" stop-color="#F3AD1B"/>
<stop offset="1" stop-color="#F7B019"/>
</radialGradient>
<radialGradient id="paint5_radial" cx="0" cy="0" r="1" gradientUnits="userSpaceOnUse" gradientTransform="translate(82.5897 41.4999) scale(10.11)">
<stop offset="0.01" stop-color="#AF2C24"/>
<stop offset="0.45" stop-color="#CD3826"/>
<stop offset="1" stop-color="#ED4528"/>
</radialGradient>
</defs>
</svg>
