<svg width="126" height="126" viewBox="0 0 126 126" fill="none" xmlns="http://www.w3.org/2000/svg">
<g filter="url(#filter0_d)">
<path d="M25 53C25 32.0132 42.0132 15 63 15C83.9868 15 101 32.0132 101 53C101 73.9868 83.9868 91 63 91C42.0132 91 25 73.9868 25 53Z" fill="white"/>
<path d="M55.3658 61.5398C53.2267 59.353 51.7708 56.5905 51.1758 53.5898C50.7633 51.8344 50.7173 50.0128 51.0408 48.2388C51.3643 46.4648 52.0502 44.7766 53.0558 43.2798C53.7224 42.3239 54.5821 41.5184 55.5795 40.9155C56.5768 40.3126 57.6896 39.9257 58.8458 39.7798C64.4658 39.0798 70.1758 44.1598 71.5558 51.0798C71.971 52.8345 72.0192 54.6559 71.6974 56.4301C71.3756 58.2042 70.6908 59.8928 69.6858 61.3898C69.0204 62.3491 68.1597 63.1569 67.1601 63.7601C66.1605 64.3633 65.0447 64.7483 63.8858 64.8898C62.3045 65.0147 60.7156 64.7779 59.2394 64.1975C57.7633 63.6171 56.4386 62.7082 55.3658 61.5398ZM67.3658 43.1898C66.3007 42.0298 64.9852 41.1279 63.5193 40.5526C62.0533 39.9774 60.4755 39.7438 58.9058 39.8698C57.7611 40.0111 56.6591 40.3923 55.6717 40.9885C54.6843 41.5847 53.8338 42.3825 53.1758 43.3298C52.1771 44.8165 51.4964 46.4934 51.1764 48.2556C50.8563 50.0177 50.9038 51.8269 51.3158 53.5698C52.7058 60.4398 58.3758 65.4798 63.9458 64.7998C65.0905 64.6585 66.1926 64.2773 67.1799 63.6811C68.1673 63.0849 69.0178 62.2871 69.6758 61.3398C70.6745 59.8532 71.3552 58.1762 71.6753 56.4141C71.9953 54.652 71.9479 52.8427 71.5358 51.0998C70.9312 48.1078 69.4642 45.3582 67.3158 43.1898H67.3658Z" fill="#1E95D3"/>
<path d="M54.3159 61.2799C52.8562 59.799 51.719 58.0319 50.9759 56.0899C50.3 54.3992 49.9695 52.5902 50.0039 50.7697C50.0382 48.9492 50.4367 47.154 51.1759 45.4899C52.2784 43.0798 54.2926 41.2059 56.7759 40.2799C62.5059 38.2199 69.2359 41.9599 71.7759 48.6199C72.4484 50.3068 72.7754 52.1116 72.7376 53.9272C72.6998 55.7428 72.298 57.5324 71.5559 59.1899C71.0099 60.3861 70.2334 61.4629 69.2707 62.3586C68.3081 63.2543 67.1783 63.9514 65.9459 64.4099C61.9959 65.8399 57.5559 64.4599 54.3159 61.2799ZM56.7859 40.2799C55.568 40.7326 54.4517 41.4215 53.5009 42.307C52.5502 43.1925 51.7838 44.2572 51.2459 45.4399C50.5111 47.0913 50.1156 48.8734 50.083 50.6806C50.0503 52.4878 50.3812 54.2831 51.0559 55.9599C53.5559 62.6299 60.2659 66.3499 65.9459 64.2799C67.1669 63.8308 68.2865 63.1433 69.2393 62.2575C70.1921 61.3716 70.9592 60.305 71.4959 59.1199C72.226 57.469 72.619 55.6889 72.6516 53.8841C72.6842 52.0793 72.3559 50.2861 71.6859 48.6099C69.1659 41.9999 62.4859 38.2799 56.8059 40.3199L56.7859 40.2799Z" fill="#1E95D3"/>
<path d="M53.2258 61.2799C52.4348 60.4866 51.7431 59.6001 51.1658 58.6399C50.2222 57.1068 49.5938 55.401 49.3173 53.6221C49.0409 51.8432 49.122 50.0271 49.5558 48.2799C50.2996 45.367 52.1462 42.857 54.7058 41.2799V41.3299V41.2799C60.3358 37.8199 67.9158 39.9699 71.5958 46.0799C72.5243 47.6082 73.1419 49.3048 73.413 51.0724C73.6842 52.8399 73.6035 54.6436 73.1758 56.3799C72.4504 59.3088 70.6143 61.8406 68.0558 63.4399C65.7021 64.8037 62.9568 65.3324 60.2649 64.9403C57.5731 64.5483 55.0926 63.2584 53.2258 61.2799ZM69.4558 43.4799C67.6016 41.5245 65.1433 40.2501 62.4767 39.8619C59.8101 39.4737 57.0905 39.9943 54.7558 41.3399C52.219 42.9265 50.3976 45.4363 49.6758 48.3399C49.2501 50.0633 49.1706 51.8539 49.4418 53.6082C49.713 55.3625 50.3296 57.0456 51.2558 58.5599C54.9058 64.6199 62.4158 66.7599 68.0058 63.3199C70.5417 61.7346 72.3603 59.2238 73.0758 56.3199C73.5064 54.6001 73.5938 52.8123 73.333 51.0586C73.0722 49.305 72.4683 47.62 71.5558 46.0999C70.9663 45.1435 70.2609 44.2635 69.4558 43.4799Z" fill="#1E95D3"/>
<path d="M52.1958 61.6202C52.0458 61.4702 51.8958 61.3102 51.7558 61.1502C50.0428 59.2385 48.9282 56.8664 48.5499 54.3275C48.1717 51.7887 48.5466 49.1946 49.6281 46.8667C50.7095 44.5388 52.4501 42.5792 54.6342 41.2307C56.8184 39.8822 59.3501 39.2041 61.9158 39.2802C63.6357 39.327 65.3281 39.7225 66.8906 40.4427C68.4531 41.1629 69.8531 42.1929 71.0058 43.4702C73.2957 46.0508 74.4751 49.4307 74.2879 52.8757C74.1007 56.3208 72.5619 59.5529 70.0058 61.8702C67.5064 64.1802 64.1974 65.4125 60.7958 65.3002C57.5654 65.2124 54.4899 63.8964 52.1958 61.6202ZM70.4758 43.1202C68.2009 40.8386 65.1366 39.5177 61.9158 39.4302C59.3762 39.3558 56.8705 40.0273 54.7084 41.3615C52.5463 42.6957 50.8225 44.6343 49.7501 46.9375C48.6778 49.2408 48.3038 51.8078 48.6745 54.3213C49.0452 56.8348 50.1442 59.1845 51.8358 61.0802C52.9757 62.3466 54.3615 63.3677 55.9088 64.0812C57.4561 64.7947 59.1325 65.1856 60.8358 65.2302C64.2078 65.3414 67.4879 64.1199 69.9658 61.8302C72.4892 59.5241 74.0026 56.3169 74.1786 52.9031C74.3545 49.4892 73.1787 46.1435 70.9058 43.5902C70.7758 43.4302 70.6258 43.2802 70.4758 43.1202Z" fill="#1E95D3"/>
<path d="M51.3056 62.3298C49.433 60.4341 48.2379 57.9737 47.9056 55.3298C47.6809 53.4587 47.8305 51.5615 48.3455 49.7487C48.8605 47.9358 49.7307 46.2434 50.9056 44.7698C55.6556 38.5798 64.2356 36.9298 70.0256 41.1098C71.3593 42.0757 72.4799 43.3057 73.3177 44.7233C74.1555 46.1409 74.6926 47.7157 74.8956 49.3498C75.1175 51.2209 74.9666 53.1174 74.4517 54.9299C73.9368 56.7423 73.0681 58.4349 71.8956 59.9098C67.1456 66.1098 58.5756 67.7498 52.7756 63.5798C52.2539 63.202 51.7624 62.784 51.3056 62.3298ZM71.3656 42.4198C70.9197 41.9677 70.4344 41.556 69.9156 41.1898C64.1756 37.0498 55.6656 38.6798 50.9156 44.8298C49.7674 46.2946 48.92 47.9719 48.4223 49.7653C47.9246 51.5587 47.7864 53.4328 48.0156 55.2798C48.2117 56.9019 48.7411 58.466 49.5705 59.8737C50.4 61.2814 51.5117 62.5023 52.8356 63.4598C58.5856 67.5898 67.0856 65.9598 71.8356 59.8198C72.9947 58.3544 73.8513 56.6735 74.356 54.8745C74.8607 53.0756 75.0033 51.1943 74.7756 49.3398C74.4404 46.7181 73.2404 44.2829 71.3656 42.4198Z" fill="#1E95D3"/>
<path d="M50.6858 63.41C49.4601 62.1778 48.536 60.6787 47.9858 59.03C47.3937 57.0862 47.2028 55.0424 47.4246 53.0226C47.6463 51.0028 48.2761 49.0491 49.2758 47.28C53.2758 39.88 61.8858 36.14 68.5558 38.95C70.0129 39.5654 71.3217 40.4852 72.3944 41.6476C73.4672 42.81 74.2791 44.1883 74.7758 45.69C75.3696 47.642 75.5615 49.694 75.3398 51.7222C75.1181 53.7504 74.4873 55.7125 73.4858 57.49C69.4858 64.89 60.8758 68.63 54.1958 65.81C52.8808 65.2459 51.6885 64.4307 50.6858 63.41ZM71.9858 41.34C71.0029 40.3501 69.8383 39.559 68.5558 39.01C61.9358 36.22 53.3558 39.93 49.4258 47.28C48.4283 49.0426 47.8004 50.99 47.5803 53.0033C47.3602 55.0165 47.5526 57.0536 48.1458 58.99C48.6376 60.4752 49.4406 61.8384 50.5011 62.9886C51.5616 64.1388 52.8553 65.0495 54.2958 65.66C60.9158 68.44 69.4958 64.73 73.4258 57.38C74.4169 55.6165 75.0373 53.669 75.2488 51.657C75.4603 49.6451 75.2585 47.6112 74.6558 45.68C74.112 44.047 73.1983 42.5617 71.9858 41.34Z" fill="#1E95D3"/>
<path d="M50.3157 64.7398C49.667 64.0923 49.1056 63.3628 48.6457 62.5698C46.6457 59.1498 46.4257 54.5698 48.0057 50.0998C50.9557 41.6698 59.3557 35.8098 66.7257 37.0298C68.2569 37.2685 69.715 37.848 70.9923 38.7255C72.2697 39.603 73.3336 40.7561 74.1057 42.0998C76.1057 45.5198 76.3257 50.0998 74.7457 54.5598C71.7957 62.9898 63.4057 68.8598 56.0357 67.6398C53.8712 67.2998 51.8693 66.2849 50.3157 64.7398ZM48.1257 50.1398C46.5557 54.6098 46.7857 59.1398 48.7557 62.4998C49.5201 63.827 50.573 64.9653 51.8366 65.8308C53.1001 66.6962 54.5421 67.2666 56.0557 67.4998C63.3657 68.7198 71.7057 62.8898 74.6357 54.4998C76.1957 50.0298 75.9657 45.4998 73.9957 42.1398C73.2325 40.8118 72.1799 39.6726 70.9161 38.8071C69.6524 37.9415 68.2099 37.3716 66.6957 37.1398C59.3857 35.9398 51.0557 41.7598 48.1257 50.1398Z" fill="#1E95D3"/>
<path d="M50.2155 66.28C50.0755 66.14 49.9355 65.99 49.8055 65.84C47.1755 62.84 46.2055 58.32 47.1355 53.35C48.8855 44.09 56.6855 36.13 64.5555 35.58C66.1199 35.4327 67.6971 35.6535 69.1609 36.2248C70.6247 36.796 71.9345 37.7019 72.9855 38.87C75.6155 41.87 76.5855 46.39 75.6455 51.35C73.8755 60.58 66.0755 68.53 58.2255 69.08C56.7673 69.2216 55.2956 69.0445 53.9126 68.561C52.5295 68.0776 51.268 67.2993 50.2155 66.28ZM72.4455 38.52C71.4118 37.5091 70.171 36.7343 68.8089 36.2492C67.4468 35.7641 65.9956 35.5801 64.5555 35.71C56.7755 36.26 49.0255 44.16 47.2955 53.33C46.3655 58.26 47.2955 62.77 49.9355 65.71C50.9707 66.8653 52.2632 67.7606 53.7087 68.3235C55.1541 68.8864 56.7117 69.101 58.2555 68.95C66.0455 68.41 73.7855 60.5 75.5155 51.33C76.4455 46.41 75.5155 41.9 72.8855 38.96C72.7255 38.81 72.5555 38.66 72.4455 38.52Z" fill="#1E95D3"/>
<path d="M50.3758 67.7801C47.8858 65.2901 46.5658 61.3601 46.7458 56.7801C47.1058 47.0401 53.9558 37.1201 62.0158 34.6701C63.5719 34.1165 65.2397 33.951 66.8743 34.188C68.5089 34.425 70.0609 35.0574 71.3958 36.0301C74.5258 38.4101 76.2058 42.7401 76.0158 47.9101C75.6458 57.6501 68.7958 67.5701 60.7358 70.0201C59.1788 70.5686 57.5121 70.7314 55.8784 70.4945C54.2447 70.2577 52.6928 69.6282 51.3558 68.6601C51.0126 68.3858 50.6853 68.092 50.3758 67.7801ZM72.2858 36.9801C71.9744 36.672 71.6401 36.3878 71.2858 36.1301C69.9706 35.1766 68.4441 34.5558 66.8367 34.3207C65.2293 34.0856 63.5889 34.2432 62.0558 34.7801C54.0558 37.2201 47.2358 47.0801 46.8758 56.7801C46.6858 61.9001 48.3458 66.1901 51.4458 68.5501C52.7649 69.5077 54.2971 70.13 55.9103 70.3635C57.5235 70.5969 59.1693 70.4345 60.7058 69.8901C68.7058 67.4601 75.5158 57.5901 75.8758 47.8901C76.0458 43.3401 74.7558 39.4401 72.2858 36.9801Z" fill="#1E95D3"/>
<path d="M50.7457 69.28C48.4906 66.8217 47.1275 63.6765 46.8757 60.35C45.7257 50.43 51.2857 38.75 59.2657 34.35C62.8557 32.35 66.4957 32.1 69.5057 33.6C72.9657 35.28 75.2957 39.21 75.8857 44.28C77.0357 54.2 71.4757 65.87 63.4857 70.28C59.8957 72.28 56.2657 72.54 53.2457 71.04C52.3236 70.5908 51.4796 69.9966 50.7457 69.28ZM71.9057 35.48C71.1871 34.7552 70.3565 34.1508 69.4457 33.69C66.4457 32.21 62.8757 32.48 59.3257 34.45C51.3957 38.85 45.8657 50.45 47.0057 60.33C47.5957 65.39 49.8957 69.27 53.3057 70.97C56.3057 72.45 59.8757 72.19 63.4257 70.22C71.3657 65.82 76.8857 54.22 75.7457 44.34C75.4953 41.0397 74.1429 37.9193 71.9057 35.48Z" fill="#1E95D3"/>
<path d="M51.2357 70.6199C49.4573 68.745 48.1902 66.4449 47.5557 63.9399C44.8057 54.1899 48.7557 41.0599 56.3457 34.6599C59.9257 31.6599 63.8257 30.5299 67.3457 31.5299C71.0457 32.5899 73.8457 35.8599 75.2157 40.7299C77.9657 50.4699 74.0257 63.6099 66.4257 70.0099C62.8457 73.0099 58.9557 74.1399 55.4257 73.1399C53.8377 72.6694 52.3957 71.8021 51.2357 70.6199ZM71.4157 34.1499C70.2714 32.9817 68.8456 32.1276 67.2757 31.6699C63.8357 30.6699 59.9957 31.7799 56.4457 34.7699C48.8957 41.1299 44.9757 54.1999 47.7057 63.8899C49.0657 68.7199 51.8257 71.9499 55.4757 72.9999C58.9157 73.9999 62.7657 72.8899 66.3057 69.8999C73.8657 63.5299 77.7857 50.4699 75.0457 40.7699C74.4199 38.2898 73.1703 36.0109 71.4157 34.1499Z" fill="#1E95D3"/>
<path d="M51.8356 71.7198C50.5946 70.4592 49.5798 68.9945 48.8356 67.3898C44.4456 58.2198 46.4856 43.9998 53.3756 35.6898C56.7956 31.5698 60.8556 29.5198 64.8056 29.9198C68.5756 30.3098 71.8056 32.9198 73.8856 37.2798C78.2656 46.4498 76.2256 60.6698 69.3456 68.9698C65.9256 73.0998 61.8656 75.1498 57.9056 74.7398C55.5909 74.4756 53.4425 73.4067 51.8356 71.7198ZM70.8356 33.0498C69.2472 31.38 67.1245 30.3186 64.8356 30.0498C60.9356 29.6498 56.9256 31.6798 53.5356 35.7698C46.6556 44.0498 44.6256 58.1998 48.9856 67.2798C51.0456 71.5898 54.2256 74.1698 57.9856 74.5498C61.8856 74.9498 65.9056 72.9198 69.2856 68.8398C76.1356 60.5798 78.1656 46.4298 73.8056 37.2998C73.0554 35.7249 72.0445 34.288 70.8156 33.0498H70.8356Z" fill="#1E95D3"/>
<path d="M52.3355 72.46C51.7554 71.8684 51.2174 71.2368 50.7255 70.57C44.7255 62.36 44.6255 47.51 50.4755 37.46C53.4755 32.28 57.6955 29.12 62.0155 28.81C65.7755 28.53 69.3355 30.41 72.0155 34.1C78.0155 42.3 78.1255 57.1 72.2755 67.21C69.2755 72.39 65.0455 75.54 60.7255 75.86C59.1633 75.943 57.6019 75.6815 56.152 75.0939C54.7021 74.5064 53.3992 73.6072 52.3355 72.46ZM70.3055 32.28C69.2566 31.1466 67.971 30.2579 66.54 29.6772C65.109 29.0965 63.5676 28.838 62.0255 28.92C57.7555 29.28 53.5555 32.4 50.6055 37.53C44.7855 47.53 44.8955 62.31 50.8555 70.47C53.5155 74.12 57.0255 75.97 60.7355 75.7C64.9955 75.39 69.1555 72.27 72.1455 67.13C77.9655 57.13 77.8555 42.35 71.8955 34.19C71.4149 33.5138 70.8833 32.8753 70.3055 32.28Z" fill="#1E95D3"/>
<path d="M52.6058 72.7802C45.5558 65.7201 43.3358 51.2201 47.7158 39.9402C50.1458 33.7102 54.2058 29.4602 58.8758 28.2802C62.5658 27.3402 66.3658 28.4302 69.5758 31.3502C77.0858 38.1802 79.5758 53.1602 75.0358 64.7302C72.6158 70.9502 68.5558 75.2102 63.8758 76.4002C60.1858 77.3401 56.3858 76.2502 53.1758 73.3302L52.6058 72.7802ZM53.2958 73.2001L53.2358 73.2602L53.2958 73.2001C56.4558 76.0802 60.2058 77.2001 63.8458 76.2001C68.4558 75.0201 72.4758 70.8001 74.8458 64.6301C79.3658 53.1502 76.9358 38.2802 69.4658 31.4602C66.2958 28.5802 62.5458 27.4602 58.9158 28.4602C54.2958 29.6302 50.2758 33.8502 47.9158 40.0302C43.3958 51.5102 45.8258 66.4101 53.2958 73.2001Z" fill="#1E95D3"/>
<path d="M52.5558 72.6998C46.0458 66.1898 42.8458 54.0198 45.2858 43.1198C46.8758 36.0098 50.5858 30.6598 55.4458 28.4398C57.2141 27.6391 59.1521 27.2851 61.0893 27.4089C63.0266 27.5327 64.9037 28.1305 66.5558 29.1498C75.4758 34.2798 80.3658 48.7698 77.5558 61.5398C75.9658 68.6498 72.2658 73.9998 67.3958 76.2198C65.6184 77.0385 63.6656 77.4031 61.7125 77.281C59.7594 77.1588 57.8673 76.5536 56.2058 75.5198C54.8708 74.7438 53.6436 73.7957 52.5558 72.6998ZM70.1658 32.0998C69.0967 30.9996 67.8821 30.0508 66.5558 29.2798C64.9219 28.2659 63.0627 27.6714 61.1436 27.5493C59.2246 27.4272 57.305 27.7812 55.5558 28.5798C50.7458 30.7798 47.0758 36.0798 45.4958 43.1298C42.5558 55.8598 47.4258 70.2798 56.2458 75.3698C57.8797 76.3837 59.7389 76.9782 61.6579 77.1003C63.577 77.2224 65.4965 76.8684 67.2458 76.0698C72.0658 73.8698 75.7258 68.5598 77.3058 61.5098C79.7658 50.6698 76.5558 38.5598 70.1258 32.0998H70.1658Z" fill="#1E95D3"/>
<path d="M51.8956 72.2799C46.0956 66.4699 42.4856 56.7499 43.1856 46.9799C43.7256 39.2899 46.8156 32.9799 51.6356 29.5499C53.2746 28.3569 55.17 27.5637 57.1703 27.2338C59.1705 26.9039 61.2202 27.0464 63.1556 27.6499C73.1556 30.6499 80.5456 44.1399 79.5756 57.7399C79.0256 65.4299 75.9456 71.7399 71.1156 75.1699C69.4668 76.3591 67.562 77.145 65.5544 77.4646C63.5467 77.7841 61.4921 77.6284 59.5556 77.0099V76.9299V77.0099C56.651 76.0895 54.0194 74.4645 51.8956 72.2799ZM70.7356 32.5699C68.6252 30.3809 66.003 28.7518 63.1056 27.8299C61.2004 27.2201 59.1786 27.0671 57.2034 27.3832C55.2282 27.6994 53.3551 28.4759 51.7356 29.6499C46.9556 32.9999 43.9056 39.2799 43.3556 46.9399C42.6656 56.6599 46.2556 66.3299 52.0156 72.0999C54.1295 74.2893 56.7551 75.9183 59.6556 76.8399C61.5598 77.4441 63.579 77.5941 65.5516 77.2781C67.5242 76.9621 69.3954 76.1887 71.0156 75.0199C75.7956 71.6699 78.8556 65.3699 79.3956 57.7299C80.0856 48.0099 76.5556 38.3399 70.7356 32.5699Z" fill="#1E95D3"/>
<path d="M50.6456 71.4599C45.3844 65.9843 42.201 58.843 41.6456 51.2699C41.0156 43.3799 43.2156 36.2699 47.6456 31.6399C49.1343 30.0521 50.9543 28.8116 52.9763 28.0062C54.9984 27.2008 57.1729 26.8504 59.3456 26.9799C70.2356 27.5699 79.9956 39.4199 81.1256 53.3899C81.7656 61.2799 79.5656 68.3899 75.1256 73.0199C73.6384 74.6075 71.8204 75.8488 69.8003 76.6558C67.7801 77.4628 65.6073 77.8158 63.4356 77.6899C58.5489 77.2648 53.9927 75.0454 50.6456 71.4599ZM71.9856 33.3299C68.6685 29.7911 64.1663 27.5951 59.3356 27.1599C57.1919 27.0369 55.0473 27.386 53.0533 28.1826C51.0593 28.9792 49.2645 30.2037 47.7956 31.7699C43.3656 36.2799 41.1856 43.4199 41.8156 51.2799C42.9356 65.1699 52.6256 76.9399 63.4156 77.5299C65.562 77.6532 67.7092 77.3013 69.704 76.4992C71.6988 75.6972 73.492 74.4647 74.9556 72.8899C79.3956 68.3499 81.5656 61.2499 80.9556 53.4099C80.394 45.8765 77.2217 38.775 71.9856 33.3299Z" fill="#1E95D3"/>
<path d="M48.8058 70.67C44.8191 66.624 42.0147 61.5649 40.6958 56.04C38.8458 48.38 39.9258 40.73 43.6958 35.04C44.9933 33.0129 46.6917 31.2727 48.6865 29.9261C50.6814 28.5796 52.9306 27.6553 55.2958 27.21C66.6958 25.21 78.7058 34.78 82.0658 48.62C83.9258 56.27 82.8358 63.92 79.0658 69.62C77.7711 71.6505 76.0736 73.3939 74.0784 74.7424C72.0832 76.0909 69.8326 77.0158 67.4658 77.46C60.8458 78.63 54.0258 75.89 48.8058 70.67ZM73.8058 34.13C68.6358 28.96 61.8758 26.28 55.3158 27.41C52.9718 27.838 50.7421 28.7477 48.7677 30.0817C46.7934 31.4157 45.1174 33.1449 43.8458 35.16C40.1258 40.79 39.0458 48.38 40.8458 55.99C42.1568 61.4837 44.9438 66.5148 48.9058 70.54C54.0858 75.71 60.8458 78.43 67.3958 77.26C69.7404 76.8338 71.9708 75.9248 73.9454 74.5906C75.9199 73.2564 77.5955 71.5263 78.8658 69.51C82.5958 63.87 83.6758 56.28 81.8658 48.68C80.5547 43.1863 77.7677 38.1552 73.8058 34.13Z" fill="#1E95D3"/>
<path d="M46.6557 70.2202C44.0352 67.5909 41.941 64.4853 40.4857 61.0702C38.9934 57.737 38.1831 54.1389 38.1024 50.4877C38.0217 46.8366 38.6722 43.2062 40.0157 39.8102C42.0619 34.7019 46.0499 30.6132 51.1057 28.4402C62.6257 23.6302 76.6057 30.4402 82.2757 43.5902C83.7633 46.9265 84.5711 50.5259 84.6518 54.1779C84.7325 57.83 84.0845 61.4615 82.7457 64.8602C80.6949 69.9667 76.7033 74.0518 71.6457 76.2202C63.2257 79.7402 53.4957 77.0602 46.6557 70.2202ZM75.9557 34.5902C69.1757 27.8002 59.5257 25.1402 51.1857 28.5902C46.1724 30.7334 42.2157 34.7801 40.1857 39.8402C38.8568 43.2135 38.2139 46.8179 38.2946 50.4426C38.3753 54.0673 39.178 57.6395 40.6557 60.9502C46.2857 74.0602 60.1557 80.8102 71.5557 76.0402C76.5664 73.8934 80.522 69.848 82.5557 64.7902C83.8868 61.4175 84.5309 57.8129 84.4502 54.1878C84.3695 50.5628 83.5656 46.9904 82.0857 43.6802C80.6402 40.2873 78.5596 37.202 75.9557 34.5902Z" fill="#1E95D3"/>
<path d="M44.4656 70.3901C41.4257 67.3465 39.1475 63.628 37.8164 59.5375C36.4853 55.4469 36.139 51.0998 36.8056 46.8501C37.3094 43.6066 38.4704 40.5001 40.2175 37.7213C41.9646 34.9425 44.2609 32.5498 46.9656 30.6901C58.1756 23.0401 73.7656 26.5201 81.7056 38.4501C89.6456 50.3801 87.0056 66.2801 75.7956 73.9801L75.7356 73.8901L75.7956 73.9801C66.0256 80.6401 52.9256 78.8601 44.4656 70.3901ZM78.1356 34.3901C69.7456 26.0301 56.7656 24.2801 47.0756 30.8601C44.4003 32.7043 42.1287 35.0741 40.3991 37.8248C38.6696 40.5756 37.5183 43.6499 37.0156 46.8601C36.3481 51.0865 36.6885 55.4109 38.0092 59.4808C39.3299 63.5507 41.5936 67.251 44.6156 70.2801C53.0156 78.6801 65.9956 80.4501 75.6756 73.8401C86.7956 66.2101 89.4156 50.4101 81.5556 38.5701C80.5531 37.079 79.4077 35.6891 78.1356 34.4201V34.3901Z" fill="#1E95D3"/>
<path d="M42.4356 71.2798C32.3056 61.1398 32.5556 44.4098 43.0056 33.9598C53.4556 23.5098 70.1856 23.2798 80.3156 33.3898C90.4456 43.4998 90.1856 60.2798 79.7456 70.6998C69.3056 81.1198 52.5556 81.3998 42.4356 71.2798ZM80.1556 33.5498C70.1556 23.5498 53.5156 23.7598 43.1556 34.1198C32.7956 44.4798 32.5556 61.0698 42.5556 71.1098C52.5556 81.1498 69.1956 80.9098 79.5556 70.5498C89.9156 60.1898 90.2056 43.5998 80.1556 33.5498Z" fill="#1E95D3"/>
<path d="M46.3958 40.86C51.6039 40.86 55.8258 36.638 55.8258 31.43C55.8258 26.222 51.6039 22 46.3958 22C41.1878 22 36.9658 26.222 36.9658 31.43C36.9658 36.638 41.1878 40.86 46.3958 40.86Z" fill="url(#paint0_linear)"/>
<path d="M87.7454 64.4201C92.9535 64.4201 97.1754 60.1981 97.1754 54.9901C97.1754 49.782 92.9535 45.5601 87.7454 45.5601C82.5374 45.5601 78.3154 49.782 78.3154 54.9901C78.3154 60.1981 82.5374 64.4201 87.7454 64.4201Z" fill="url(#paint1_linear)"/>
<path d="M49.1658 84.1998C54.3739 84.1998 58.5958 79.9779 58.5958 74.7698C58.5958 69.5618 54.3739 65.3398 49.1658 65.3398C43.9578 65.3398 39.7358 69.5618 39.7358 74.7698C39.7358 79.9779 43.9578 84.1998 49.1658 84.1998Z" fill="url(#paint2_linear)"/>
</g>
<defs>
<filter id="filter0_d" x="0" y="0" width="126" height="126" filterUnits="userSpaceOnUse" color-interpolation-filters="sRGB">
<feFlood flood-opacity="0" result="BackgroundImageFix"/>
<feColorMatrix in="SourceAlpha" type="matrix" values="0 0 0 0 0 0 0 0 0 0 0 0 0 0 0 0 0 0 127 0" result="hardAlpha"/>
<feOffset dy="10"/>
<feGaussianBlur stdDeviation="12.5"/>
<feComposite in2="hardAlpha" operator="out"/>
<feColorMatrix type="matrix" values="0 0 0 0 0 0 0 0 0 0 0 0 0 0 0 0 0 0 0.15 0"/>
<feBlend mode="normal" in2="BackgroundImageFix" result="effect1_dropShadow"/>
<feBlend mode="normal" in="SourceGraphic" in2="effect1_dropShadow" result="shape"/>
</filter>
<linearGradient id="paint0_linear" x1="39.7249" y1="38.1026" x2="53.068" y2="24.7595" gradientUnits="userSpaceOnUse">
<stop offset="0.08" stop-color="#1E3768"/>
<stop offset="0.38" stop-color="#136299"/>
<stop offset="0.8" stop-color="#0599D7"/>
<stop offset="1" stop-color="#00AEEF"/>
</linearGradient>
<linearGradient id="paint1_linear" x1="868.172" y1="1032.69" x2="1224.06" y2="1032.69" gradientUnits="userSpaceOnUse">
<stop offset="0.08" stop-color="#1E3768"/>
<stop offset="0.38" stop-color="#136299"/>
<stop offset="0.8" stop-color="#0599D7"/>
<stop offset="1" stop-color="#00AEEF"/>
</linearGradient>
<linearGradient id="paint2_linear" x1="51.2404" y1="801.823" x2="407.129" y2="801.823" gradientUnits="userSpaceOnUse">
<stop offset="0.08" stop-color="#1E3768"/>
<stop offset="0.38" stop-color="#136299"/>
<stop offset="0.8" stop-color="#0599D7"/>
<stop offset="1" stop-color="#00AEEF"/>
</linearGradient>
</defs>
</svg>
