<svg width="126" height="126" viewBox="0 0 126 126" fill="none" xmlns="http://www.w3.org/2000/svg">
<g filter="url(#filter0_d)">
<path d="M25 53C25 32.0132 42.0132 15 63 15C83.9868 15 101 32.0132 101 53C101 73.9868 83.9868 91 63 91C42.0132 91 25 73.9868 25 53Z" fill="white"/>
<path d="M93.7817 42.9558L84.0217 46.8058C85.6898 52.196 85.2595 58.0174 82.8168 63.1037C80.3741 68.1899 76.0996 72.1652 70.8498 74.233C65.6 76.3009 59.7626 76.3084 54.5075 74.2542C49.2523 72.2 44.9675 68.2357 42.5117 63.1558L32.7417 66.9958C36.3056 74.5252 42.5969 80.4194 50.3424 83.4855C58.0878 86.5517 66.7089 86.5607 74.4607 83.5108C82.2126 80.4609 88.5162 74.5799 92.0959 67.0579C95.6755 59.536 96.2638 50.9351 93.7417 42.9958L93.7817 42.9558Z" fill="url(#paint0_linear)"/>
<path d="M41.2618 59.9859C39.5937 54.5957 40.0241 48.7743 42.4668 43.688C44.9094 38.6018 49.1839 34.6265 54.4338 32.5587C59.6836 30.4908 65.5209 30.4833 70.7761 32.5375C76.0313 34.5917 80.316 38.556 82.7718 43.6359L92.5419 39.7959C88.9779 32.2665 82.6866 26.3723 74.9412 23.3062C67.1957 20.24 58.5747 20.231 50.8228 23.2809C43.071 26.3308 36.7673 32.2119 33.1877 39.7338C29.608 47.2557 29.0197 55.8566 31.5418 63.7959L41.2618 59.9859Z" fill="url(#paint1_linear)"/>
<path d="M74.9418 41.876L41.8418 54.906L46.4018 66.466L79.4918 53.436L82.6318 45.526L74.9418 41.876Z" fill="url(#paint2_linear)"/>
</g>
<defs>
<filter id="filter0_d" x="0" y="0" width="126" height="126" filterUnits="userSpaceOnUse" color-interpolation-filters="sRGB">
<feFlood flood-opacity="0" result="BackgroundImageFix"/>
<feColorMatrix in="SourceAlpha" type="matrix" values="0 0 0 0 0 0 0 0 0 0 0 0 0 0 0 0 0 0 127 0" result="hardAlpha"/>
<feOffset dy="10"/>
<feGaussianBlur stdDeviation="12.5"/>
<feComposite in2="hardAlpha" operator="out"/>
<feColorMatrix type="matrix" values="0 0 0 0 0 0 0 0 0 0 0 0 0 0 0 0 0 0 0.15 0"/>
<feBlend mode="normal" in2="BackgroundImageFix" result="effect1_dropShadow"/>
<feBlend mode="normal" in="SourceGraphic" in2="effect1_dropShadow" result="shape"/>
</filter>
<linearGradient id="paint0_linear" x1="32.7417" y1="64.6058" x2="95.5017" y2="64.6058" gradientUnits="userSpaceOnUse">
<stop stop-color="#8DC63F"/>
<stop offset="0.13" stop-color="#82C343"/>
<stop offset="0.36" stop-color="#64BC4C"/>
<stop offset="0.66" stop-color="#33B05B"/>
<stop offset="1" stop-color="#00A651"/>
</linearGradient>
<linearGradient id="paint1_linear" x1="272.037" y1="1006.59" x2="4196.54" y2="1006.59" gradientUnits="userSpaceOnUse">
<stop stop-color="#8DC63F"/>
<stop offset="0.13" stop-color="#82C343"/>
<stop offset="0.36" stop-color="#64BC4C"/>
<stop offset="0.66" stop-color="#33B05B"/>
<stop offset="1" stop-color="#00A651"/>
</linearGradient>
<linearGradient id="paint2_linear" x1="691.219" y1="903.018" x2="2355.04" y2="903.018" gradientUnits="userSpaceOnUse">
<stop stop-color="#8DC63F"/>
<stop offset="0.13" stop-color="#82C343"/>
<stop offset="0.36" stop-color="#64BC4C"/>
<stop offset="0.66" stop-color="#33B05B"/>
<stop offset="1" stop-color="#00A651"/>
</linearGradient>
</defs>
</svg>
