<svg width="257" height="257" viewBox="0 0 257 257" fill="none" xmlns="http://www.w3.org/2000/svg">
<g filter="url(#filter0_d)">
<circle cx="128.5" cy="118.5" r="103.5" fill="url(#paint0_linear)"/>
</g>
<path fill-rule="evenodd" clip-rule="evenodd" d="M127.692 130.47H128.154C129.367 130.438 130.529 129.98 131.437 129.175C131.719 128.933 131.974 128.662 132.2 128.366L143.133 112.926C143.545 112.311 143.777 111.593 143.802 110.854C143.826 110.114 143.643 109.382 143.272 108.742C142.851 107.954 142.22 107.299 141.448 106.85C140.677 106.401 139.795 106.176 138.903 106.199H134.904V85.1876H138.903C139.792 85.2082 140.67 84.984 141.44 84.5397C142.211 84.0954 142.844 83.448 143.272 82.6681C143.623 82.0058 143.782 81.2579 143.728 80.51C143.675 79.762 143.413 79.044 142.971 78.438L131.945 62.8817C131.517 62.3608 130.991 61.9293 130.396 61.612C129.801 61.2947 129.149 61.0978 128.478 61.0324C127.81 60.9553 127.133 61.0161 126.489 61.2109C125.844 61.4057 125.247 61.7305 124.734 62.1651C124.417 62.4092 124.137 62.6972 123.901 63.0204L112.968 78.438C112.526 79.0393 112.263 79.7536 112.21 80.4981C112.157 81.2426 112.315 81.9869 112.667 82.645C113.122 83.46 113.796 84.1308 114.614 84.5805C115.431 85.0301 116.359 85.2405 117.29 85.1876H121.289V106.176H117.29C116.404 106.159 115.53 106.38 114.758 106.815C113.985 107.249 113.344 107.883 112.899 108.649C112.532 109.31 112.355 110.059 112.387 110.814C112.42 111.568 112.661 112.299 113.084 112.926L124.202 128.621C124.633 129.144 125.163 129.577 125.762 129.895C126.361 130.212 127.017 130.408 127.692 130.47ZM128.108 125.847H127.854V125.778L117.314 110.868H125.982V80.6108H117.314L127.831 65.7941C127.88 65.7478 127.938 65.7134 128.002 65.6934C128.067 65.6733 128.134 65.6683 128.201 65.6786H128.455L138.995 80.5646H130.466V110.891H138.995L128.501 125.708C128.39 125.798 128.251 125.847 128.108 125.847ZM102.582 132.012C110.658 135.364 119.318 137.087 128.062 137.082C136.823 137.087 145.499 135.358 153.588 131.994C161.677 128.629 169.02 123.697 175.194 117.48L171.934 114.221C160.317 125.822 144.578 132.35 128.16 132.376C111.742 132.402 95.9823 125.924 84.3286 114.36L84.1437 114.175L81 117.549C87.1708 123.745 94.5053 128.66 102.582 132.012ZM81.7165 137.936C99.1452 144.848 114.147 148.315 128.894 148.315C143.618 148.315 158.088 144.848 174.454 137.913L172.674 133.637C141.191 146.974 117.036 146.974 83.4039 133.637L81.7165 137.936ZM173.645 155.643H82.6642V160.266H173.645V155.643Z" fill="white"/>
<defs>
<filter id="filter0_d" x="0" y="0" width="257" height="257" filterUnits="userSpaceOnUse" color-interpolation-filters="sRGB">
<feFlood flood-opacity="0" result="BackgroundImageFix"/>
<feColorMatrix in="SourceAlpha" type="matrix" values="0 0 0 0 0 0 0 0 0 0 0 0 0 0 0 0 0 0 127 0" result="hardAlpha"/>
<feOffset dy="10"/>
<feGaussianBlur stdDeviation="12.5"/>
<feComposite in2="hardAlpha" operator="out"/>
<feColorMatrix type="matrix" values="0 0 0 0 0 0 0 0 0 0 0 0 0 0 0 0 0 0 0.15 0"/>
<feBlend mode="normal" in2="BackgroundImageFix" result="effect1_dropShadow"/>
<feBlend mode="normal" in="SourceGraphic" in2="effect1_dropShadow" result="shape"/>
</filter>
<linearGradient id="paint0_linear" x1="128.5" y1="15" x2="128.5" y2="222" gradientUnits="userSpaceOnUse">
<stop offset="0.104167" stop-color="#D2D62A"/>
<stop offset="0.229167" stop-color="#C6D233"/>
<stop offset="0.625" stop-color="#A6C74B"/>
<stop offset="0.869792" stop-color="#83BB65"/>
</linearGradient>
</defs>
</svg>
