<svg width="257" height="257" viewBox="0 0 257 257" fill="none" xmlns="http://www.w3.org/2000/svg">
<g filter="url(#filter0_d)">
<circle cx="128.5" cy="118.5" r="103.5" fill="url(#paint0_linear)"/>
</g>
<path fill-rule="evenodd" clip-rule="evenodd" d="M143.414 97.6637H168.078V73H143.414V82.6625H119.906V116.109H101.541C101.296 114.661 100.821 113.248 100.12 111.925C99.2687 110.315 98.1085 108.888 96.7057 107.726C95.3028 106.564 93.6847 105.689 91.9439 105.153C90.2031 104.616 88.3736 104.428 86.5599 104.598C84.7462 104.769 82.984 105.295 81.3737 106.147C79.1444 107.328 77.2797 109.096 75.9804 111.259C74.6811 113.421 73.9964 115.898 74 118.421C74.0047 120.678 74.5601 122.899 75.618 124.893C76.7997 127.122 78.5671 128.987 80.7299 130.286C82.8928 131.586 85.3691 132.27 87.8921 132.267C90.1471 132.269 92.3687 131.722 94.3643 130.672C97.6129 128.949 100.044 126.006 101.124 122.49C101.301 121.911 101.44 121.323 101.54 120.732H119.906V154.203H143.414V164.212H168.078V139.548H143.414V149.58H124.529V120.732H143.414V130.949H168.078V106.285H143.414V116.109H124.529V87.2855H143.414V97.6637ZM163.455 93.0407H148.037V77.623H163.455V93.0407ZM163.455 126.326H148.037V110.908H163.455V126.326ZM148.037 159.589H163.455V144.171H148.037V159.589ZM79.9466 113.645C80.8142 112.203 82.0589 111.025 83.5465 110.238C84.6195 109.668 85.7941 109.316 87.0034 109.2C88.2127 109.085 89.4329 109.209 90.5942 109.565C91.7556 109.922 92.8353 110.503 93.7717 111.277C94.7081 112.051 95.4829 113.002 96.0517 114.075C96.6205 115.149 96.9717 116.325 97.0855 117.536C97.1993 118.746 97.0733 119.967 96.7148 121.128C96.3562 122.29 95.7722 123.369 94.996 124.305C94.2199 125.24 93.2668 126.014 92.1915 126.58C90.0268 127.723 87.4972 127.961 85.1573 127.242C82.8174 126.523 80.8582 124.905 79.7094 122.743C79.0002 121.413 78.6273 119.929 78.623 118.421C78.6213 116.738 79.079 115.087 79.9466 113.645Z" fill="white"/>
<defs>
<filter id="filter0_d" x="0" y="0" width="257" height="257" filterUnits="userSpaceOnUse" color-interpolation-filters="sRGB">
<feFlood flood-opacity="0" result="BackgroundImageFix"/>
<feColorMatrix in="SourceAlpha" type="matrix" values="0 0 0 0 0 0 0 0 0 0 0 0 0 0 0 0 0 0 127 0" result="hardAlpha"/>
<feOffset dy="10"/>
<feGaussianBlur stdDeviation="12.5"/>
<feComposite in2="hardAlpha" operator="out"/>
<feColorMatrix type="matrix" values="0 0 0 0 0 0 0 0 0 0 0 0 0 0 0 0 0 0 0.15 0"/>
<feBlend mode="normal" in2="BackgroundImageFix" result="effect1_dropShadow"/>
<feBlend mode="normal" in="SourceGraphic" in2="effect1_dropShadow" result="shape"/>
</filter>
<linearGradient id="paint0_linear" x1="128.5" y1="15" x2="128.5" y2="222" gradientUnits="userSpaceOnUse">
<stop offset="0.197917" stop-color="#2E8B2E"/>
<stop offset="0.713542" stop-color="#107250"/>
<stop offset="1" stop-color="#006562"/>
</linearGradient>
</defs>
</svg>
