<svg width="352" height="352" viewBox="0 0 352 352" fill="none" xmlns="http://www.w3.org/2000/svg">
<circle cx="176" cy="176" r="176" fill="white"/>
<g filter="url(#filter0_d)">
<path d="M100.341 131.385C104.164 124.885 108.811 118.905 114.167 113.594L68.8518 63.9115C57.3993 74.8471 47.6945 87.4769 40.0769 101.359L100.341 131.385Z" fill="#5EBA47"/>
<path d="M211.454 96.2698C218.31 99.3894 224.727 103.396 230.539 108.187L275.981 58.5677C263.931 48.1589 250.34 39.6822 235.692 33.44L211.454 96.2698Z" fill="#E3B533"/>
<path d="M315.528 111.219L255.285 141.245C258.197 148.026 260.228 155.152 261.328 162.45L328.335 156.088C326.414 140.535 322.123 125.368 315.612 111.113" fill="#C4212E"/>
<path d="M250.98 132.53L311.202 102.504C303.756 88.7051 294.269 76.1089 283.063 65.1416L237.6 114.761C242.801 120.088 247.297 126.06 250.98 132.53Z" fill="#4A9E45"/>
<path d="M88.3817 175.342C88.3817 173.985 88.3817 172.628 88.3817 171.271L21.4593 165.27C21.2048 168.599 21.2048 171.95 21.2048 175.342C21.2118 187.907 22.7426 200.425 25.7639 212.621L90.5022 194.045C89.1257 187.905 88.4147 181.635 88.3817 175.342Z" fill="#408045"/>
<path d="M242.541 230.412C237.777 236.22 232.282 241.387 226.192 245.785L261.583 303.038C274.703 294.143 286.387 283.295 296.231 270.871L242.541 230.412Z" fill="#FAC212"/>
<path d="M262.261 175.342C262.269 181.56 261.601 187.76 260.268 193.833L324.985 212.514C327.989 200.381 329.506 187.927 329.502 175.427C329.502 172.246 329.502 169.065 329.205 165.948L262.198 172.31C262.198 173.349 262.198 174.43 262.198 175.448" fill="#ED402B"/>
<path d="M109.184 231.705L55.6202 272.418C65.6038 284.696 77.4022 295.379 90.6082 304.098L125.978 246.845C119.749 242.536 114.104 237.44 109.184 231.683" fill="#F79E29"/>
<path d="M89.463 161.623C90.6301 154.181 92.7688 146.923 95.8245 140.037L35.6664 110.032C28.9052 124.441 24.4269 139.815 22.3922 155.601L89.463 161.623Z" fill="#1A94D4"/>
<path d="M253.334 308.275L218.007 251.022C211.529 254.724 204.602 257.575 197.396 259.504L209.928 325.621C225.221 322.102 239.883 316.252 253.398 308.275" fill="#A11C42"/>
<path d="M257.681 203.206C255.363 210.023 252.208 216.527 248.287 222.566L302.02 263.11C310.821 250.43 317.662 236.498 322.313 221.781L257.681 203.206Z" fill="#26BDE0"/>
<path d="M187.853 261.286C183.703 261.891 179.515 262.196 175.321 262.198C171.941 262.194 168.564 261.996 165.207 261.604L152.675 327.869C168.461 330.195 184.512 330.067 200.258 327.488L187.853 261.286Z" fill="#F26B2B"/>
<path d="M180.877 88.5725C188.204 89.0535 195.438 90.479 202.4 92.8135L226.573 29.9836C211.872 24.774 196.464 21.8282 180.877 21.2472V88.5725Z" fill="#E8213B"/>
<path d="M155.622 260.013C148.176 258.294 140.994 255.584 134.269 251.955L98.8781 309.208C112.674 317.127 127.619 322.85 143.175 326.172L155.622 260.013Z" fill="#DB1769"/>
<path d="M149.197 92.4105C156.32 90.1647 163.705 88.8531 171.165 88.5088V21.2047C155.383 21.6229 139.76 24.4841 124.854 29.6867L149.197 92.4105Z" fill="#17476B"/>
<path d="M103.289 223.966C98.9775 217.602 95.5332 210.692 93.0467 203.418L28.3508 221.972C33.2105 237.233 40.4221 251.642 49.7253 264.679L103.289 223.966Z" fill="#C7962E"/>
<path d="M121.461 107.148C127.171 102.619 133.434 98.8349 140.1 95.8884L115.778 33.1221C101.404 39.1673 88.0282 47.3532 76.1041 57.4016L121.461 107.148Z" fill="#03699C"/>
</g>
<defs>
<filter id="filter0_d" x="10.6024" y="14.8433" width="333.743" height="333.764" filterUnits="userSpaceOnUse" color-interpolation-filters="sRGB">
<feFlood flood-opacity="0" result="BackgroundImageFix"/>
<feColorMatrix in="SourceAlpha" type="matrix" values="0 0 0 0 0 0 0 0 0 0 0 0 0 0 0 0 0 0 127 0" result="hardAlpha"/>
<feOffset dx="2.12048" dy="6.36145"/>
<feGaussianBlur stdDeviation="6.36145"/>
<feComposite in2="hardAlpha" operator="out"/>
<feColorMatrix type="matrix" values="0 0 0 0 0 0 0 0 0 0 0 0 0 0 0 0 0 0 0.13 0"/>
<feBlend mode="normal" in2="BackgroundImageFix" result="effect1_dropShadow"/>
<feBlend mode="normal" in="SourceGraphic" in2="effect1_dropShadow" result="shape"/>
</filter>
</defs>
</svg>
