<svg width="257" height="257" viewBox="0 0 257 257" fill="none" xmlns="http://www.w3.org/2000/svg">
<g filter="url(#filter0_d)">
<circle cx="128.5" cy="118.5" r="103.5" fill="url(#paint0_linear)"/>
</g>
<path fill-rule="evenodd" clip-rule="evenodd" d="M169.885 66H145.464C145.381 65.9998 145.301 66.0313 145.241 66.0881C145.18 66.1448 145.144 66.2225 145.139 66.3053V74.4456C145.139 74.5319 145.173 74.6147 145.234 74.6758C145.295 74.7369 145.378 74.7712 145.464 74.7712H155.131L144.487 85.4756C138.891 81.0667 131.973 78.6721 124.849 78.6785C116.409 78.6893 108.317 82.0454 102.347 88.0115C96.3775 93.9776 93.0162 102.067 93 110.507C93.0082 118.24 95.8259 125.706 100.929 131.516C106.031 137.326 113.071 141.085 120.738 142.091V151.392H111.153C111.07 151.391 110.99 151.423 110.929 151.48C110.869 151.536 110.832 151.614 110.827 151.697V160.366C110.827 160.408 110.836 160.45 110.852 160.488C110.869 160.526 110.893 160.561 110.924 160.59C110.954 160.618 110.99 160.64 111.03 160.654C111.069 160.669 111.111 160.674 111.153 160.672H120.738V169.85C120.738 169.931 120.77 170.008 120.827 170.066C120.885 170.123 120.962 170.155 121.043 170.155H129.713C129.794 170.155 129.871 170.123 129.929 170.066C129.986 170.008 130.018 169.931 130.018 169.85V160.773H139.603C139.644 160.776 139.685 160.771 139.723 160.756C139.762 160.742 139.797 160.72 139.826 160.691C139.855 160.662 139.877 160.627 139.891 160.588C139.906 160.55 139.911 160.509 139.908 160.468V151.799C139.908 151.718 139.876 151.64 139.819 151.583C139.762 151.526 139.684 151.493 139.603 151.493H130.018V142.03C137.483 140.798 144.267 136.95 149.155 131.175C154.043 125.399 156.717 118.073 156.698 110.507C156.703 103.946 154.669 97.5456 150.877 92.1914L161.48 81.5887V90.6244C161.48 90.7073 161.511 90.7872 161.568 90.8477C161.625 90.9082 161.703 90.9448 161.785 90.95H169.926C170.008 90.9448 170.086 90.9082 170.143 90.8477C170.2 90.7872 170.231 90.7073 170.231 90.6244V66.3053C170.231 66.2243 170.199 66.1467 170.142 66.0894C170.084 66.0322 170.007 66 169.926 66H169.885ZM124.89 133.951C118.675 133.94 112.718 131.467 108.324 127.073C103.93 122.678 101.456 116.721 101.446 110.507C101.456 104.293 103.93 98.3358 108.324 93.9415C112.718 89.5472 118.675 87.0738 124.89 87.063C131.104 87.0738 137.061 89.5472 141.455 93.9415C145.849 98.3358 148.323 104.293 148.334 110.507C148.323 116.721 145.849 122.678 141.455 127.073C137.061 131.467 131.104 133.94 124.89 133.951ZM139.176 100.881H110.685C110.607 100.881 110.533 100.911 110.476 100.963C110.419 101.016 110.385 101.089 110.38 101.166V108.045C110.385 108.122 110.419 108.195 110.476 108.248C110.533 108.301 110.607 108.33 110.685 108.33H139.176C139.254 108.33 139.328 108.301 139.385 108.248C139.442 108.195 139.476 108.122 139.481 108.045V101.166C139.476 101.089 139.442 101.016 139.385 100.963C139.328 100.911 139.254 100.881 139.176 100.881ZM110.685 113.173H139.176C139.254 113.173 139.328 113.203 139.385 113.256C139.442 113.308 139.476 113.381 139.481 113.458V120.357C139.479 120.395 139.469 120.431 139.452 120.465C139.435 120.498 139.412 120.528 139.384 120.553C139.355 120.578 139.322 120.596 139.287 120.608C139.251 120.62 139.213 120.625 139.176 120.622H110.685C110.648 120.625 110.61 120.62 110.574 120.608C110.539 120.596 110.506 120.578 110.477 120.553C110.449 120.528 110.426 120.498 110.409 120.465C110.392 120.431 110.382 120.395 110.38 120.357V113.458C110.385 113.381 110.419 113.308 110.476 113.256C110.533 113.203 110.607 113.173 110.685 113.173Z" fill="white"/>
<defs>
<filter id="filter0_d" x="0" y="0" width="257" height="257" filterUnits="userSpaceOnUse" color-interpolation-filters="sRGB">
<feFlood flood-opacity="0" result="BackgroundImageFix"/>
<feColorMatrix in="SourceAlpha" type="matrix" values="0 0 0 0 0 0 0 0 0 0 0 0 0 0 0 0 0 0 127 0" result="hardAlpha"/>
<feOffset dy="10"/>
<feGaussianBlur stdDeviation="12.5"/>
<feComposite in2="hardAlpha" operator="out"/>
<feColorMatrix type="matrix" values="0 0 0 0 0 0 0 0 0 0 0 0 0 0 0 0 0 0 0.15 0"/>
<feBlend mode="normal" in2="BackgroundImageFix" result="effect1_dropShadow"/>
<feBlend mode="normal" in="SourceGraphic" in2="effect1_dropShadow" result="shape"/>
</filter>
<linearGradient id="paint0_linear" x1="129" y1="222" x2="129" y2="15" gradientUnits="userSpaceOnUse">
<stop stop-color="#B42E02"/>
<stop offset="1" stop-color="#EE402C"/>
</linearGradient>
</defs>
</svg>
