<svg width="257" height="257" viewBox="0 0 257 257" fill="none" xmlns="http://www.w3.org/2000/svg">
<g filter="url(#filter0_d)">
<circle cx="128.5" cy="118.5" r="103.5" fill="url(#paint0_linear)"/>
</g>
<path fill-rule="evenodd" clip-rule="evenodd" d="M145.969 85.0883L128.61 67.7088C128.583 67.6784 128.55 67.6542 128.513 67.6375C128.477 67.6209 128.437 67.6123 128.396 67.6123C128.356 67.6123 128.316 67.6209 128.279 67.6375C128.242 67.6542 128.209 67.6784 128.183 67.7088L110.803 85.0883C110.765 85.1307 110.739 85.1828 110.729 85.239C110.719 85.2952 110.725 85.353 110.746 85.406C110.768 85.459 110.803 85.505 110.849 85.5387C110.895 85.5725 110.95 85.5927 111.007 85.597H145.766C145.827 85.6034 145.889 85.5895 145.942 85.5574C145.995 85.5254 146.036 85.4769 146.059 85.4194C146.082 85.3619 146.086 85.2985 146.07 85.2388C146.053 85.179 146.018 85.1262 145.969 85.0883ZM110.274 101.532H146.458C146.513 101.532 146.567 101.543 146.618 101.565C146.669 101.586 146.715 101.618 146.753 101.658C146.791 101.698 146.82 101.746 146.84 101.797C146.859 101.849 146.867 101.904 146.865 101.959V112.847C146.867 112.903 146.859 112.959 146.84 113.012C146.821 113.065 146.792 113.114 146.754 113.155C146.716 113.197 146.67 113.231 146.62 113.255C146.569 113.278 146.514 113.292 146.458 113.295H110.274C110.218 113.292 110.163 113.278 110.112 113.255C110.061 113.231 110.015 113.197 109.978 113.155C109.94 113.114 109.911 113.065 109.892 113.012C109.873 112.959 109.864 112.903 109.867 112.847V101.959C109.864 101.904 109.873 101.849 109.892 101.797C109.911 101.746 109.941 101.698 109.979 101.658C110.017 101.618 110.063 101.586 110.113 101.565C110.164 101.543 110.219 101.532 110.274 101.532ZM110.274 124.67H146.458C146.514 124.672 146.569 124.686 146.62 124.71C146.67 124.734 146.716 124.768 146.754 124.809C146.792 124.851 146.821 124.899 146.84 124.952C146.859 125.005 146.867 125.061 146.865 125.117V135.985C146.867 136.041 146.859 136.097 146.84 136.15C146.821 136.203 146.792 136.251 146.754 136.293C146.716 136.335 146.67 136.368 146.62 136.392C146.569 136.416 146.514 136.43 146.458 136.432H110.274C110.218 136.43 110.163 136.416 110.112 136.392C110.061 136.368 110.015 136.335 109.978 136.293C109.94 136.251 109.911 136.203 109.892 136.15C109.873 136.097 109.864 136.041 109.867 135.985V125.117C109.864 125.061 109.873 125.005 109.892 124.952C109.911 124.899 109.94 124.851 109.978 124.809C110.015 124.768 110.061 124.734 110.112 124.71C110.163 124.686 110.218 124.672 110.274 124.67ZM179.629 119.196L162.25 136.575C162.206 136.614 162.152 136.64 162.094 136.649C162.036 136.659 161.977 136.651 161.923 136.627C161.869 136.604 161.824 136.565 161.791 136.516C161.759 136.467 161.742 136.41 161.741 136.352V101.613C161.742 101.554 161.759 101.497 161.791 101.448C161.824 101.399 161.869 101.361 161.923 101.337C161.977 101.313 162.036 101.306 162.094 101.315C162.152 101.324 162.206 101.35 162.25 101.389L179.629 118.768C179.677 118.829 179.703 118.905 179.703 118.982C179.703 119.06 179.677 119.135 179.629 119.196ZM110.783 152.876L128.162 170.256C128.189 170.286 128.222 170.31 128.259 170.327C128.296 170.343 128.336 170.352 128.376 170.352C128.416 170.352 128.456 170.343 128.493 170.327C128.53 170.31 128.563 170.286 128.59 170.256L145.949 152.876C145.998 152.838 146.033 152.785 146.049 152.726C146.066 152.666 146.062 152.602 146.039 152.545C146.016 152.487 145.975 152.439 145.922 152.407C145.869 152.375 145.807 152.361 145.745 152.367H110.986C110.929 152.372 110.875 152.392 110.829 152.426C110.783 152.459 110.747 152.505 110.726 152.558C110.705 152.611 110.699 152.669 110.709 152.725C110.719 152.781 110.745 152.834 110.783 152.876ZM77.1024 118.768L94.4616 101.389C94.5042 101.342 94.56 101.311 94.6215 101.297C94.6829 101.284 94.7469 101.29 94.8048 101.315C94.8627 101.339 94.9116 101.381 94.9449 101.434C94.9781 101.487 94.9942 101.55 94.9907 101.613V136.351C94.9854 136.41 94.9642 136.466 94.9294 136.514C94.8946 136.561 94.8476 136.599 94.7933 136.622C94.7389 136.645 94.6793 136.653 94.6209 136.644C94.5625 136.636 94.5074 136.612 94.4616 136.575L77.1024 119.195C77.0465 119.138 77.0151 119.062 77.0151 118.982C77.0151 118.902 77.0465 118.825 77.1024 118.768Z" fill="white"/>
<defs>
<filter id="filter0_d" x="0" y="0" width="257" height="257" filterUnits="userSpaceOnUse" color-interpolation-filters="sRGB">
<feFlood flood-opacity="0" result="BackgroundImageFix"/>
<feColorMatrix in="SourceAlpha" type="matrix" values="0 0 0 0 0 0 0 0 0 0 0 0 0 0 0 0 0 0 127 0" result="hardAlpha"/>
<feOffset dy="10"/>
<feGaussianBlur stdDeviation="12.5"/>
<feComposite in2="hardAlpha" operator="out"/>
<feColorMatrix type="matrix" values="0 0 0 0 0 0 0 0 0 0 0 0 0 0 0 0 0 0 0.15 0"/>
<feBlend mode="normal" in2="BackgroundImageFix" result="effect1_dropShadow"/>
<feBlend mode="normal" in="SourceGraphic" in2="effect1_dropShadow" result="shape"/>
</filter>
<linearGradient id="paint0_linear" x1="128.5" y1="15" x2="128.5" y2="222" gradientUnits="userSpaceOnUse">
<stop stop-color="#EF922D"/>
<stop offset="1" stop-color="#CD3A1D"/>
</linearGradient>
</defs>
</svg>
