<svg width="257" height="257" viewBox="0 0 257 257" fill="none" xmlns="http://www.w3.org/2000/svg">
<g filter="url(#filter0_d)">
<circle cx="128.5" cy="118.5" r="103.5" fill="url(#paint0_linear)"/>
</g>
<path fill-rule="evenodd" clip-rule="evenodd" d="M130.451 85.4196C130.015 85.8258 129.443 86.0552 128.847 86.0632C128.251 86.0552 127.679 85.8258 127.243 85.4196C126.806 85.0133 126.537 84.4593 126.486 83.8653V71.2886C126.532 70.6909 126.799 70.1319 127.236 69.7215C127.673 69.311 128.247 69.0787 128.847 69.0703C129.446 69.0787 130.021 69.311 130.457 69.7215C130.894 70.1319 131.162 70.6909 131.207 71.2886V83.8653C131.157 84.4593 130.887 85.0133 130.451 85.4196ZM128.847 90.5806C121.242 90.5806 113.948 93.6017 108.571 98.9791C103.194 104.357 100.173 111.65 100.173 119.255C100.173 126.86 103.194 134.153 108.571 139.53C113.948 144.908 121.242 147.929 128.847 147.929C136.452 147.929 143.745 144.908 149.122 139.53C154.5 134.153 157.521 126.86 157.521 119.255C157.521 111.65 154.5 104.357 149.122 98.9791C143.745 93.6017 136.452 90.5806 128.847 90.5806ZM126.812 101.896C126.845 101.367 127.07 100.869 127.445 100.494C127.82 100.119 128.318 99.8942 128.847 99.8606C129.375 99.8942 129.874 100.119 130.248 100.494C130.623 100.869 130.848 101.367 130.882 101.896V111.745C130.848 112.274 130.623 112.772 130.248 113.147C129.874 113.522 129.375 113.747 128.847 113.78C128.316 113.751 127.816 113.527 127.44 113.152C127.065 112.776 126.841 112.276 126.812 111.745V101.896ZM128.847 133.948C126.888 133.948 124.948 133.562 123.138 132.813C121.328 132.063 119.684 130.964 118.299 129.579C116.914 128.194 115.815 126.549 115.065 124.739C114.315 122.93 113.93 120.99 113.93 119.031C113.932 115.85 114.95 112.753 116.835 110.19C118.72 107.628 121.374 105.735 124.41 104.785V110.341C122.807 111.158 121.461 112.402 120.521 113.935C119.58 115.469 119.081 117.232 119.078 119.031C119.078 121.622 120.107 124.106 121.939 125.938C123.771 127.77 126.256 128.799 128.847 128.799C131.427 128.794 133.9 127.768 135.726 125.945C137.553 124.123 138.584 121.652 138.595 119.072C138.592 117.268 138.09 115.499 137.146 113.962C136.201 112.425 134.851 111.179 133.242 110.362V104.826C136.284 105.769 138.944 107.66 140.834 110.223C142.723 112.787 143.743 115.887 143.743 119.072C143.743 123.028 142.172 126.822 139.374 129.62C136.577 132.417 132.783 133.989 128.826 133.989L128.847 133.948ZM95.8581 119.072C95.8749 118.487 95.6773 117.916 95.3025 117.466C94.9278 117.017 94.4016 116.719 93.8231 116.63H81.2667C80.669 116.676 80.11 116.944 79.6996 117.38C79.2891 117.817 79.0569 118.392 79.0485 118.991C79.0569 119.59 79.2891 120.165 79.6996 120.602C80.11 121.039 80.669 121.306 81.2667 121.352H93.8231C94.3741 121.267 94.8786 120.993 95.2499 120.578C95.6212 120.162 95.8363 119.63 95.8581 119.072ZM178.116 117.462C178.526 117.899 178.759 118.473 178.767 119.072C178.759 119.672 178.526 120.246 178.116 120.683C177.705 121.12 177.146 121.387 176.549 121.433H163.992C163.395 121.387 162.836 121.12 162.425 120.683C162.015 120.246 161.783 119.672 161.774 119.072C161.783 118.473 162.015 117.899 162.425 117.462C162.836 117.025 163.395 116.757 163.992 116.712H176.549C177.146 116.757 177.705 117.025 178.116 117.462ZM128.847 168.89C129.443 168.882 130.015 168.653 130.451 168.247C130.887 167.84 131.157 167.286 131.207 166.692V154.136C131.162 153.538 130.894 152.979 130.457 152.569C130.021 152.158 129.446 151.926 128.847 151.918C128.247 151.926 127.673 152.158 127.236 152.569C126.799 152.979 126.532 153.538 126.486 154.136V166.692C126.537 167.286 126.806 167.84 127.243 168.247C127.679 168.653 128.251 168.882 128.847 168.89ZM172.408 142.064C172.547 142.645 172.463 143.256 172.173 143.778C171.87 144.294 171.384 144.679 170.812 144.856C170.24 145.033 169.622 144.989 169.08 144.734L158.192 138.487C157.692 138.153 157.335 137.643 157.196 137.057C157.056 136.472 157.143 135.856 157.439 135.332C157.746 134.819 158.233 134.439 158.805 134.266C159.377 134.093 159.993 134.139 160.533 134.396L171.42 140.644C171.916 140.977 172.268 141.484 172.408 142.064ZM103.998 162.317C104.521 162.602 105.131 162.684 105.711 162.544C106.29 162.405 106.796 162.056 107.132 161.564L113.38 150.656C113.637 150.116 113.683 149.5 113.51 148.928C113.337 148.356 112.957 147.869 112.444 147.563C111.919 147.271 111.304 147.187 110.72 147.326C110.137 147.466 109.626 147.819 109.29 148.316L103.042 159.224C102.792 159.766 102.751 160.383 102.927 160.954C103.104 161.525 103.485 162.01 103.998 162.317ZM154.802 160.891C154.629 161.463 154.249 161.95 153.736 162.256C153.213 162.55 152.6 162.637 152.016 162.502C151.433 162.366 150.921 162.017 150.581 161.524L144.334 150.636C144.076 150.093 144.028 149.474 144.201 148.899C144.374 148.323 144.755 147.833 145.27 147.522C145.797 147.24 146.409 147.161 146.99 147.3C147.571 147.438 148.082 147.786 148.424 148.275L154.672 159.163C154.929 159.703 154.975 160.319 154.802 160.891ZM85.6828 143.88C85.9895 144.393 86.4764 144.773 87.0485 144.946C87.6205 145.119 88.2365 145.073 88.7762 144.816L99.6638 138.548C100.156 138.212 100.505 137.705 100.644 137.126C100.783 136.547 100.702 135.937 100.417 135.414C100.11 134.896 99.6205 134.511 99.0448 134.334C98.4691 134.157 97.8481 134.201 97.3031 134.457L86.4155 140.725C85.9219 141.065 85.573 141.577 85.4375 142.161C85.3019 142.744 85.3894 143.357 85.6828 143.88ZM100.274 102.629C100.56 102.106 100.641 101.496 100.502 100.917C100.363 100.338 100.013 99.8309 99.5213 99.4949L88.6337 93.2472C88.094 92.9904 87.478 92.9439 86.906 93.1171C86.334 93.2902 85.847 93.6704 85.5404 94.1834C85.2489 94.7081 85.1646 95.323 85.304 95.9069C85.4434 96.4907 85.7963 97.0012 86.2934 97.3377L97.181 103.585C97.723 103.841 98.3408 103.884 98.9131 103.707C99.4854 103.53 99.9709 103.145 100.274 102.629ZM146.921 90.6456C146.342 90.7848 145.731 90.7037 145.209 90.4182C144.692 90.1148 144.308 89.6293 144.131 89.057C143.954 88.4847 143.997 87.8669 144.252 87.3249L150.5 76.4169C150.839 75.9235 151.35 75.5735 151.932 75.4345C152.515 75.2954 153.128 75.3772 153.654 75.6639C154.169 75.9743 154.549 76.4649 154.722 77.0403C154.895 77.6157 154.848 78.2349 154.59 78.7776L148.343 89.6652C148.007 90.1571 147.5 90.5065 146.921 90.6456ZM112.444 90.439C112.955 90.1361 113.335 89.6528 113.508 89.0842C113.682 88.5155 113.636 87.9027 113.38 87.366L107.112 76.4784C106.779 75.9829 106.272 75.6305 105.692 75.491C105.111 75.3515 104.5 75.4352 103.978 75.7254C103.462 76.0287 103.078 76.5156 102.905 77.0889C102.731 77.6623 102.78 78.2799 103.042 78.8187L109.29 89.7064C109.629 90.2 110.141 90.5488 110.725 90.6844C111.308 90.8199 111.922 90.7324 112.444 90.439ZM158.751 103.637C158.184 103.46 157.702 103.079 157.399 102.568C157.107 102.049 157.02 101.439 157.155 100.858C157.291 100.278 157.639 99.7699 158.131 99.4339L169.019 93.1659C169.559 92.909 170.175 92.8626 170.747 93.0358C171.319 93.2089 171.806 93.5891 172.112 94.102C172.399 94.6279 172.481 95.2413 172.342 95.8239C172.203 96.4065 171.853 96.9168 171.359 97.2564L160.472 103.524C159.932 103.774 159.319 103.814 158.751 103.637Z" fill="white"/>
<defs>
<filter id="filter0_d" x="0" y="0" width="257" height="257" filterUnits="userSpaceOnUse" color-interpolation-filters="sRGB">
<feFlood flood-opacity="0" result="BackgroundImageFix"/>
<feColorMatrix in="SourceAlpha" type="matrix" values="0 0 0 0 0 0 0 0 0 0 0 0 0 0 0 0 0 0 127 0" result="hardAlpha"/>
<feOffset dy="10"/>
<feGaussianBlur stdDeviation="12.5"/>
<feComposite in2="hardAlpha" operator="out"/>
<feColorMatrix type="matrix" values="0 0 0 0 0 0 0 0 0 0 0 0 0 0 0 0 0 0 0.15 0"/>
<feBlend mode="normal" in2="BackgroundImageFix" result="effect1_dropShadow"/>
<feBlend mode="normal" in="SourceGraphic" in2="effect1_dropShadow" result="shape"/>
</filter>
<linearGradient id="paint0_linear" x1="128.5" y1="15" x2="128.5" y2="222" gradientUnits="userSpaceOnUse">
<stop stop-color="#FCB316"/>
<stop offset="1" stop-color="#D7720F"/>
</linearGradient>
</defs>
</svg>
