<svg width="257" height="257" viewBox="0 0 257 257" fill="none" xmlns="http://www.w3.org/2000/svg">
<g filter="url(#filter0_d)">
<circle cx="128.5" cy="118.5" r="103.5" fill="url(#paint0_linear)"/>
</g>
<path fill-rule="evenodd" clip-rule="evenodd" d="M80.0292 90.5185C80.0292 89.1967 79.5042 87.9291 78.5695 86.9944C77.6348 86.0598 76.3672 85.5347 75.0454 85.5347C73.7235 85.5347 72.456 86.0598 71.5213 86.9944C70.5867 87.9291 70.0615 89.1967 70.0615 90.5185C70.0615 91.8403 70.5867 93.108 71.5213 94.0426C72.456 94.9773 73.7235 95.5024 75.0454 95.5024C76.3672 95.5024 77.6348 94.9773 78.5695 94.0426C79.5042 93.108 80.0292 91.8403 80.0292 90.5185ZM180.535 88.6113C180.285 89.216 180.156 89.864 180.156 90.5185C180.156 91.173 180.285 91.8211 180.535 92.4258C180.786 93.0304 181.153 93.5798 181.616 94.0426C182.078 94.5054 182.628 94.8726 183.233 95.123C183.837 95.3735 184.485 95.5024 185.14 95.5024C186.462 95.5024 187.729 94.9773 188.664 94.0426C189.599 93.108 190.124 91.8403 190.124 90.5185C190.124 89.1967 189.599 87.9291 188.664 86.9944C187.729 86.0598 186.462 85.5347 185.14 85.5347C184.485 85.5347 183.837 85.6636 183.233 85.914C182.628 86.1645 182.078 86.5316 181.616 86.9944C181.153 87.4572 180.786 88.0066 180.535 88.6113ZM195.268 99.5678C194.151 98.3438 192.617 97.582 190.967 97.4322L191.192 97.4135H190.817H179.913H179.557C177.905 97.563 176.368 98.3242 175.249 99.5477C174.129 100.771 173.507 102.369 173.505 104.027V117.855C173.505 118.352 173.702 118.828 174.053 119.18C174.405 119.531 174.881 119.728 175.378 119.728C175.875 119.728 176.352 119.531 176.703 119.18C177.054 118.828 177.252 118.352 177.252 117.855V105.976C177.252 105.545 177.383 104.927 178.207 104.927C178.751 104.927 178.901 105.526 178.901 105.92V141.519C178.901 142.254 179.193 142.96 179.713 143.48C180.233 144 180.938 144.292 181.674 144.292C182.038 144.292 182.398 144.22 182.735 144.081C183.071 143.941 183.377 143.737 183.634 143.48C183.892 143.222 184.096 142.916 184.236 142.58C184.375 142.243 184.447 141.883 184.447 141.519V121.002C184.441 120.895 184.458 120.788 184.497 120.688C184.536 120.588 184.595 120.497 184.671 120.421C184.747 120.345 184.838 120.286 184.938 120.247C185.038 120.209 185.145 120.191 185.252 120.197C185.36 120.188 185.467 120.203 185.568 120.24C185.669 120.278 185.76 120.338 185.835 120.414C185.911 120.491 185.968 120.584 186.003 120.686C186.038 120.787 186.051 120.896 186.039 121.002V141.538C186.044 142.275 186.341 142.98 186.864 143.499C187.387 144.019 188.094 144.31 188.831 144.31C189.566 144.31 190.272 144.018 190.792 143.498C191.312 142.978 191.604 142.273 191.604 141.538V105.939C191.606 105.889 191.607 105.836 191.607 105.782C191.609 105.404 191.611 104.945 192.316 104.945C193.122 104.945 193.253 105.564 193.253 105.995V117.874C193.253 118.37 193.45 118.847 193.801 119.198C194.153 119.55 194.629 119.747 195.126 119.747C195.623 119.747 196.1 119.55 196.451 119.198C196.803 118.847 197 118.37 197 117.874V104.046C197.002 102.389 196.384 100.792 195.268 99.5678ZM150.496 93.1979C150.499 92.5763 150.379 91.9603 150.142 91.3853C149.906 90.8103 149.559 90.2876 149.12 89.8471C148.681 89.4067 148.16 89.0573 147.586 88.8188C147.012 88.5804 146.396 88.4576 145.775 88.4576C145.153 88.4576 144.538 88.5804 143.964 88.8188C143.389 89.0573 142.868 89.4067 142.43 89.8471C141.991 90.2876 141.643 90.8103 141.407 91.3853C141.171 91.9603 141.051 92.5763 141.053 93.1979C141.053 94.4501 141.551 95.6511 142.436 96.5365C143.322 97.422 144.523 97.9195 145.775 97.9195C147.027 97.9195 148.228 97.422 149.113 96.5365C149.999 95.6511 150.496 94.4501 150.496 93.1979ZM132.341 116.618L136.257 103.84H136.313C136.313 103.84 137.718 100.093 140.828 100.093H150.834C153.944 100.093 155.349 103.84 155.349 103.84L159.265 116.618C159.265 116.618 159.977 118.96 157.991 119.541C156.005 120.122 155.405 117.836 155.405 117.836L152.239 107.175C152.239 107.175 152.07 106.369 151.452 106.538C150.834 106.707 151.077 107.587 151.077 107.587L156.511 127.598H151.396V141.912C151.396 142.563 151.137 143.188 150.677 143.648C150.217 144.108 149.592 144.367 148.941 144.367C148.289 144.367 147.662 144.109 147.199 143.649C146.736 143.189 146.473 142.565 146.468 141.912V127.598H145.082V141.912C145.082 142.563 144.823 143.188 144.363 143.648C143.902 144.108 143.278 144.367 142.627 144.367C141.974 144.367 141.348 144.109 140.885 143.649C140.422 143.189 140.159 142.565 140.154 141.912V127.579H135.039L140.547 107.587C140.547 107.587 140.772 106.725 140.154 106.538C139.536 106.351 139.367 107.175 139.367 107.175L136.201 117.836C136.201 117.836 135.601 120.122 133.615 119.541C131.629 118.96 132.341 116.618 132.341 116.618ZM122.205 93.1979C122.207 92.5763 122.087 91.9603 121.851 91.3853C121.614 90.8103 121.267 90.2876 120.828 89.8471C120.39 89.4067 119.868 89.0573 119.294 88.8188C118.72 88.5804 118.105 88.4576 117.483 88.4576C116.861 88.4576 116.246 88.5804 115.672 88.8188C115.098 89.0573 114.576 89.4067 114.138 89.8471C113.699 90.2876 113.352 90.8103 113.116 91.3853C112.879 91.9603 112.759 92.5763 112.762 93.1979C112.762 94.4501 113.259 95.6511 114.144 96.5365C115.03 97.422 116.231 97.9195 117.483 97.9195C118.735 97.9195 119.936 97.422 120.822 96.5365C121.707 95.6511 122.205 94.4501 122.205 93.1979ZM104.068 116.617L107.984 103.839L107.965 103.858C107.965 103.858 109.389 100.111 112.48 100.111H122.486C125.596 100.111 127.001 103.858 127.001 103.858L130.936 116.636C130.936 116.636 131.629 118.978 129.643 119.559C127.657 120.14 127.057 117.854 127.057 117.854L123.891 107.193C123.891 107.193 123.722 106.387 123.104 106.556C122.486 106.725 122.729 107.605 122.729 107.605L128.238 127.597H123.104V141.911C123.104 142.562 122.845 143.187 122.385 143.647C121.925 144.107 121.3 144.366 120.65 144.366C120.327 144.366 120.008 144.302 119.71 144.179C119.412 144.056 119.142 143.875 118.914 143.647C118.686 143.419 118.505 143.149 118.382 142.851C118.259 142.553 118.195 142.234 118.195 141.911V127.597H116.79V141.911C116.79 142.559 116.534 143.181 116.078 143.64C115.621 144.1 115.002 144.361 114.354 144.366C113.701 144.366 113.075 144.108 112.612 143.648C112.149 143.188 111.886 142.564 111.881 141.911V127.578H106.766L112.274 107.587C112.274 107.587 112.499 106.725 111.881 106.537C111.263 106.35 111.094 107.174 111.094 107.174L107.928 117.835C107.928 117.835 107.347 120.121 105.361 119.54C104.56 119.306 104.195 118.786 104.044 118.248C103.933 118.649 103.784 119.038 103.599 119.41L99.8522 126.024C99.7214 126.327 99.6453 126.65 99.6274 126.979V128.15L99.8709 128.328L101.988 136.104H99.6274V142.381C99.6274 142.878 99.43 143.354 99.0786 143.706C98.7272 144.057 98.2507 144.254 97.7538 144.254C97.2569 144.254 96.7803 144.057 96.4289 143.706C96.0775 143.354 95.8801 142.878 95.8801 142.381V136.291C95.8801 136.291 95.8887 136.213 95.8815 136.104H95.4304H94.6942C94.6895 136.213 94.6997 136.291 94.6997 136.291V142.474C94.6997 142.971 94.5023 143.448 94.1509 143.799C93.7996 144.151 93.323 144.348 92.8261 144.348C92.3292 144.348 91.8526 144.151 91.5012 143.799C91.1498 143.448 90.9525 142.971 90.9525 142.474V136.104H88.8726L90.9525 128.465V127.073C90.9324 126.742 90.8498 126.418 90.7089 126.118L86.7556 118.942C86.6832 118.756 86.6344 118.561 86.6102 118.363C86.5239 118.669 86.3604 118.951 86.1317 119.18C85.7803 119.531 85.3038 119.728 84.8068 119.728C84.3099 119.728 83.8333 119.531 83.482 119.18C83.1306 118.828 82.9332 118.352 82.9332 117.855V105.976C82.9332 105.545 82.521 104.927 81.9776 104.927C81.4343 104.927 81.2844 105.526 81.2844 105.92V141.519C81.2844 142.254 80.9923 142.96 80.4722 143.48C79.9522 144 79.2468 144.292 78.5114 144.292C77.776 144.292 77.0707 144 76.5506 143.48C76.0306 142.96 75.7384 142.254 75.7384 141.519V121.002C75.7438 120.895 75.7267 120.788 75.6881 120.688C75.6495 120.588 75.5903 120.497 75.5144 120.421C75.4385 120.345 75.3475 120.286 75.2474 120.247C75.1472 120.209 75.04 120.191 74.9328 120.197C74.8255 120.191 74.7185 120.209 74.6183 120.247C74.5181 120.286 74.4271 120.345 74.3511 120.421C74.2752 120.497 74.2161 120.588 74.1775 120.688C74.139 120.788 74.1217 120.895 74.1271 121.002V141.538C74.1271 142.273 73.835 142.978 73.3149 143.498C72.7949 144.018 72.0896 144.31 71.3542 144.31C70.6187 144.31 69.9134 144.018 69.3934 143.498C68.8734 142.978 68.5811 142.273 68.5811 141.538V105.939C68.5784 105.881 68.5793 105.819 68.5802 105.755C68.5854 105.382 68.5915 104.945 67.8879 104.945C67.0635 104.945 66.9324 105.564 66.9324 105.995V117.874C66.9324 118.37 66.735 118.847 66.3836 119.198C66.1013 119.481 65.7381 119.664 65.3485 119.725C65.3776 119.808 65.3859 119.9 65.3683 119.994L60.9465 143.47C60.8929 143.755 60.6186 143.942 60.3339 143.889C60.0492 143.835 59.8618 143.561 59.9154 143.276L64.3372 119.8C64.3489 119.737 64.3712 119.68 64.4018 119.628C64.1534 119.535 63.9251 119.39 63.7339 119.198C63.3825 118.847 63.1852 118.37 63.1852 117.874V104.046C63.1831 102.389 63.8011 100.792 64.9176 99.5678C66.0341 98.3438 67.5682 97.582 69.2182 97.4322L68.9934 97.4135H69.3681H80.2726H80.6474C82.2957 97.5674 83.8275 98.3305 84.9432 99.5536C86.0588 100.777 86.6783 102.372 86.6805 104.027V117.855L86.6802 117.884C86.7515 117.671 86.8721 117.476 87.0348 117.315C87.3048 117.049 87.6689 116.899 88.0483 116.899C88.2875 116.898 88.5231 116.957 88.733 117.072C88.9428 117.186 89.1199 117.353 89.2475 117.555L89.2287 117.461C89.2644 117.491 89.4742 117.843 89.7637 118.328C90.3851 119.368 91.3738 121.025 91.7956 121.434C91.9433 121.609 92.1265 121.752 92.3331 121.852C92.5398 121.952 92.7652 122.007 92.9947 122.014H97.6414C97.8709 122.007 98.0963 121.952 98.303 121.852C98.5096 121.752 98.6928 121.609 98.8405 121.434C99.3321 121.008 100.361 119.236 100.958 118.207L100.958 118.207L100.958 118.207C101.203 117.785 101.375 117.489 101.407 117.461C101.535 117.259 101.712 117.093 101.922 116.978C102.132 116.863 102.367 116.804 102.606 116.806C102.795 116.803 102.982 116.838 103.157 116.909C103.332 116.979 103.491 117.084 103.626 117.216C103.76 117.349 103.866 117.506 103.939 117.68C103.945 117.696 103.952 117.711 103.957 117.727C103.918 117.125 104.068 116.617 104.068 116.617ZM166.366 119.561C166.883 119.563 167.395 119.463 167.872 119.266C168.349 119.069 168.783 118.779 169.147 118.413C169.512 118.046 169.8 117.612 169.994 117.133C170.189 116.655 170.287 116.142 170.282 115.626C170.284 115.111 170.185 114.601 169.989 114.124C169.793 113.648 169.505 113.216 169.141 112.851C168.776 112.487 168.344 112.199 167.868 112.003C167.391 111.807 166.881 111.708 166.366 111.71C165.85 111.708 165.339 111.807 164.862 112.003C164.385 112.198 163.951 112.486 163.585 112.85C163.219 113.214 162.929 113.647 162.731 114.123C162.533 114.599 162.431 115.11 162.431 115.626C162.429 116.143 162.529 116.656 162.726 117.135C162.923 117.613 163.213 118.048 163.578 118.414C163.944 118.779 164.379 119.069 164.857 119.266C165.336 119.463 165.849 119.563 166.366 119.561ZM156.772 132.293C156.793 132.111 156.851 131.935 156.942 131.776L156.829 131.814C156.842 131.671 157.366 130.338 157.793 129.25L157.793 129.249L157.795 129.244L157.798 129.236L157.799 129.233L157.802 129.227C157.989 128.75 158.156 128.323 158.253 128.066C160.52 122.258 161.139 121.134 163.2 121.134H166.254C166.254 121.134 167.209 121.078 168.746 121.134L168.909 121.14C170.396 121.191 171.943 121.244 172.793 123.738C172.938 124.183 173.677 126.002 174.358 127.677C174.997 129.247 175.584 130.692 175.584 130.765C175.736 130.966 175.831 131.204 175.861 131.454C175.891 131.704 175.853 131.957 175.753 132.188C175.604 132.537 175.326 132.816 174.977 132.966C174.628 133.115 174.235 133.126 173.879 132.994C173.485 132.305 173.165 131.577 172.924 130.821L171.256 126.155C171.256 126.155 170.994 125.818 170.994 126.287V142.344C170.994 142.608 170.941 142.871 170.84 143.115C170.738 143.36 170.588 143.581 170.4 143.768C170.212 143.954 169.989 144.102 169.743 144.201C169.498 144.301 169.235 144.351 168.97 144.348C168.439 144.348 167.929 144.137 167.553 143.761C167.177 143.385 166.966 142.875 166.966 142.344V136.011C166.966 136.011 167.078 135.111 166.347 135.111C165.617 135.111 165.748 136.011 165.748 136.011V142.344C165.748 142.608 165.695 142.871 165.593 143.115C165.491 143.36 165.342 143.581 165.154 143.768C164.966 143.954 164.743 144.102 164.497 144.201C164.252 144.301 163.989 144.351 163.724 144.348C163.459 144.351 163.197 144.301 162.951 144.201C162.706 144.102 162.483 143.954 162.294 143.768C162.106 143.581 161.957 143.36 161.855 143.115C161.753 142.871 161.701 142.608 161.701 142.344V126.287C161.701 125.837 161.326 126.287 161.326 126.287L159.19 133.107C159.031 133.395 158.768 133.612 158.455 133.712C158.141 133.813 157.801 133.791 157.504 133.65C157.34 133.567 157.196 133.452 157.078 133.312C156.961 133.172 156.873 133.009 156.821 132.834C156.768 132.658 156.752 132.474 156.772 132.293ZM95.4304 119.561C95.9478 119.563 96.4606 119.463 96.939 119.266C97.4175 119.069 97.8523 118.779 98.2181 118.414C98.584 118.048 98.8738 117.613 99.0706 117.135C99.2675 116.656 99.3675 116.143 99.365 115.626C99.365 115.11 99.2631 114.599 99.0652 114.123C98.8672 113.647 98.5771 113.214 98.2115 112.85C97.8459 112.486 97.412 112.198 96.9347 112.003C96.4574 111.807 95.9462 111.708 95.4304 111.71C94.9155 111.708 94.4051 111.807 93.9289 112.003C93.4527 112.199 93.02 112.487 92.6559 112.851C92.2918 113.216 92.0035 113.648 91.8075 114.124C91.6116 114.601 91.512 115.111 91.5145 115.626C91.5095 116.142 91.6073 116.655 91.8021 117.133C91.9969 117.612 92.2848 118.046 92.6492 118.413C93.0136 118.779 93.4471 119.069 93.9246 119.266C94.402 119.463 94.9139 119.563 95.4304 119.561Z" fill="white"/>
<defs>
<filter id="filter0_d" x="0" y="0" width="257" height="257" filterUnits="userSpaceOnUse" color-interpolation-filters="sRGB">
<feFlood flood-opacity="0" result="BackgroundImageFix"/>
<feColorMatrix in="SourceAlpha" type="matrix" values="0 0 0 0 0 0 0 0 0 0 0 0 0 0 0 0 0 0 127 0" result="hardAlpha"/>
<feOffset dy="10"/>
<feGaussianBlur stdDeviation="12.5"/>
<feComposite in2="hardAlpha" operator="out"/>
<feColorMatrix type="matrix" values="0 0 0 0 0 0 0 0 0 0 0 0 0 0 0 0 0 0 0.15 0"/>
<feBlend mode="normal" in2="BackgroundImageFix" result="effect1_dropShadow"/>
<feBlend mode="normal" in="SourceGraphic" in2="effect1_dropShadow" result="shape"/>
</filter>
<linearGradient id="paint0_linear" x1="128" y1="15" x2="128" y2="222" gradientUnits="userSpaceOnUse">
<stop stop-color="#E5243C"/>
<stop offset="1" stop-color="#AD0017"/>
</linearGradient>
</defs>
</svg>
