<svg width="257" height="257" viewBox="0 0 257 257" fill="none" xmlns="http://www.w3.org/2000/svg">
<g filter="url(#filter0_d)">
<circle cx="128.5" cy="118.5" r="103.5" fill="url(#paint0_linear)"/>
</g>
<path fill-rule="evenodd" clip-rule="evenodd" d="M168.366 81.5592C168.227 79.6759 168.801 77.8092 169.974 76.3291C171.415 75.1591 173.252 74.5904 175.102 74.7418C175.243 76.622 174.677 78.487 173.515 79.9719C172.066 81.1413 170.223 81.7096 168.366 81.5592ZM160.613 80.4201C160.417 78.6452 160.904 76.8623 161.976 75.4342C163.55 76.2738 164.749 77.6765 165.334 79.3619C165.532 81.1338 165.052 82.915 163.991 84.3479C162.409 83.5123 161.202 82.109 160.613 80.4201ZM160.226 84.8566C160.424 86.6285 159.944 88.4097 158.883 89.8425C157.306 89.0102 156.1 87.6155 155.505 85.9352C155.309 84.1603 155.796 82.3773 156.868 80.9492C158.437 81.7855 159.635 83.1798 160.226 84.8566ZM166.738 87.1562C167.885 88.2876 169.422 88.9359 171.032 88.9674C172.664 88.6577 174.118 87.7415 175.102 86.4032C173.956 85.2718 172.419 84.6235 170.808 84.592C169.174 84.896 167.718 85.8133 166.738 87.1562ZM165.863 94.6451C167.494 94.6532 169.07 94.0507 170.279 92.956C169.394 91.613 168.022 90.665 166.453 90.3104C164.823 90.2887 163.246 90.8849 162.037 91.9792C162.919 93.3298 164.291 94.2855 165.863 94.6451ZM150.885 131.236H167.898C168.215 131.236 168.529 131.298 168.822 131.42C169.115 131.542 169.38 131.721 169.603 131.946C169.827 132.171 170.003 132.438 170.123 132.732C170.242 133.026 170.302 133.34 170.3 133.657C170.3 134.294 170.047 134.905 169.596 135.355C169.146 135.806 168.535 136.059 167.898 136.059H150.885C150.248 136.059 149.637 135.806 149.187 135.355C148.737 134.905 148.484 134.294 148.484 133.657C148.481 133.34 148.541 133.026 148.661 132.732C148.78 132.438 148.956 132.171 149.18 131.946C149.403 131.721 149.669 131.542 149.961 131.42C150.254 131.298 150.568 131.236 150.885 131.236ZM167.898 157.773H150.885C150.558 157.765 150.232 157.823 149.928 157.945C149.624 158.067 149.348 158.25 149.118 158.483C148.887 158.715 148.706 158.992 148.587 159.297C148.467 159.602 148.411 159.928 148.423 160.256C148.42 160.573 148.48 160.887 148.6 161.181C148.719 161.475 148.896 161.742 149.119 161.967C149.342 162.192 149.608 162.371 149.9 162.493C150.193 162.615 150.507 162.678 150.824 162.678H167.837C168.154 162.678 168.468 162.615 168.761 162.493C169.054 162.371 169.319 162.192 169.543 161.967C169.766 161.742 169.942 161.475 170.062 161.181C170.181 160.887 170.241 160.573 170.239 160.256C170.239 159.619 169.986 159.008 169.535 158.558C169.085 158.107 168.474 157.854 167.837 157.854L167.898 157.773ZM91.4407 125.395L90.2603 125.09C90.2603 125.09 90.6877 125.232 91.4407 125.395ZM167.267 137.727H151.516C151.149 137.727 150.797 137.873 150.537 138.132C150.278 138.392 150.132 138.744 150.132 139.111V143.975L139.835 145.114L124.816 144.768V135.59C126.837 135.33 128.837 134.922 130.799 134.369C145.268 130.299 148.423 121.263 148.097 113.001C147.771 104.739 150.498 101.279 154.365 99.8341C155.405 99.4413 156.483 99.155 157.581 98.9794C157.686 101.482 158.152 103.956 158.964 106.326H160.002C159.147 103.945 158.666 101.446 158.578 98.9182C159.721 98.8041 160.873 98.8041 162.017 98.9182C160.854 98.2416 159.758 97.4581 158.741 96.5779C159.374 92.6207 161.642 90.2795 164.012 87.8334L164.215 87.6236C165.655 86.2672 166.945 84.7593 168.061 83.1261L167.206 82.5766C166.117 84.1456 164.876 85.6043 163.503 86.9317C160.762 89.2533 158.796 92.3559 157.865 95.825C156.999 95.0434 156.177 94.2145 155.403 93.3422C151.821 89.272 147.263 92.2636 140.689 98.3688C134.116 104.474 125.874 104.678 117.836 96.4355C107.213 85.5682 97.9326 85.6293 91.5832 86.2602C95.9382 88.1121 97.4645 92.1822 99.7235 102.541C102.023 113.388 107.864 118.272 115.801 118.964C112.097 119.554 111.14 120.063 105.218 124.153C100.599 127.348 94.0863 126.351 91.4407 125.741C93.8922 126.503 96.573 128.183 99.2906 129.885L99.2907 129.885C101.942 131.547 104.629 133.23 107.172 134.105C110.198 135.144 113.343 135.793 116.533 136.038V144.83L88.0421 144.199V150.304L139.916 149.144L150.214 150.283V155.046C150.211 155.228 150.245 155.409 150.313 155.578C150.382 155.747 150.484 155.901 150.613 156.03C150.742 156.159 150.895 156.261 151.065 156.33C151.234 156.398 151.415 156.432 151.597 156.429H167.349C167.531 156.432 167.713 156.398 167.882 156.33C168.051 156.261 168.204 156.159 168.334 156.03C168.463 155.901 168.564 155.747 168.633 155.578C168.702 155.409 168.735 155.228 168.733 155.046V139.416C168.782 139.204 168.78 138.983 168.727 138.771C168.674 138.56 168.572 138.364 168.429 138.199C168.287 138.035 168.107 137.906 167.905 137.824C167.703 137.742 167.485 137.709 167.267 137.727ZM118.955 135.814H118.956C120.075 135.814 121.194 135.814 122.333 135.712V144.606H118.955V135.814ZM86.3712 149.832C86.4619 149.558 86.4971 149.269 86.475 148.981L86.536 144.748C86.5582 144.461 86.5229 144.171 86.4323 143.897C86.3417 143.623 86.1975 143.37 86.0081 143.152C85.8187 142.935 85.588 142.757 85.3293 142.629C85.0705 142.501 84.789 142.426 84.501 142.408H83.3003C83.0123 142.426 82.7307 142.501 82.472 142.629C82.2132 142.757 81.9825 142.935 81.7931 143.152C81.6038 143.37 81.4596 143.623 81.369 143.897C81.2784 144.171 81.2431 144.461 81.2652 144.748V148.981C81.2431 149.269 81.2784 149.558 81.369 149.832C81.4596 150.106 81.6038 150.359 81.7931 150.577C81.9825 150.795 82.2132 150.973 82.472 151.101C82.7307 151.228 83.0123 151.303 83.3003 151.321H84.4399C84.7279 151.303 85.0095 151.228 85.2682 151.101C85.5269 150.973 85.7577 150.795 85.9471 150.577C86.1364 150.359 86.2806 150.106 86.3712 149.832Z" fill="white"/>
<defs>
<filter id="filter0_d" x="0" y="0" width="257" height="257" filterUnits="userSpaceOnUse" color-interpolation-filters="sRGB">
<feFlood flood-opacity="0" result="BackgroundImageFix"/>
<feColorMatrix in="SourceAlpha" type="matrix" values="0 0 0 0 0 0 0 0 0 0 0 0 0 0 0 0 0 0 127 0" result="hardAlpha"/>
<feOffset dy="10"/>
<feGaussianBlur stdDeviation="12.5"/>
<feComposite in2="hardAlpha" operator="out"/>
<feColorMatrix type="matrix" values="0 0 0 0 0 0 0 0 0 0 0 0 0 0 0 0 0 0 0.15 0"/>
<feBlend mode="normal" in2="BackgroundImageFix" result="effect1_dropShadow"/>
<feBlend mode="normal" in="SourceGraphic" in2="effect1_dropShadow" result="shape"/>
</filter>
<linearGradient id="paint0_linear" x1="128.5" y1="15" x2="128.5" y2="222" gradientUnits="userSpaceOnUse">
<stop stop-color="#036A9C"/>
<stop offset="1" stop-color="#031E7D"/>
</linearGradient>
</defs>
</svg>
