<svg width="257" height="257" viewBox="0 0 257 257" fill="none" xmlns="http://www.w3.org/2000/svg">
<g filter="url(#filter0_d)">
<circle cx="128.5" cy="118.5" r="103.5" fill="url(#paint0_linear)"/>
</g>
<path d="M196.131 118.008C188.315 107.423 178.116 98.8272 166.359 92.9188C154.602 87.0104 141.619 83.9551 128.461 84.0007C115.299 83.946 102.309 86.9971 90.5479 92.9061C78.7865 98.8151 68.5849 107.415 60.7721 118.008L60.2353 118.775L60.7721 119.542C68.5811 130.129 78.7765 138.726 90.5307 144.635C102.285 150.544 115.267 153.598 128.423 153.549C141.58 153.595 154.564 150.539 166.321 144.631C178.078 138.723 188.277 130.127 196.092 119.542L196.61 118.775C196.476 118.564 196.303 118.296 196.092 118.008H196.131ZM105.649 101.196C106.013 100.659 107.24 99.1258 107.393 98.9341C107.767 98.5787 108.258 98.3739 108.773 98.359C109.195 98.359 109.77 98.5124 109.847 98.8382C109.871 99.4676 109.739 100.093 109.464 100.659C108.656 101.46 107.588 101.943 106.454 102.02C105.783 101.905 105.515 101.407 105.649 101.196ZM104.192 104.11C104.233 104.045 104.285 103.986 104.345 103.937C104.986 103.431 105.772 103.142 106.588 103.113C107.297 102.998 108.237 103.343 108.352 103.822C108.467 104.302 106.569 105.145 106.224 105.471C105.246 106.372 103.713 108.212 102.812 108.404C102.572 108.503 102.303 108.503 102.064 108.404C102.657 106.943 103.369 105.532 104.192 104.187V104.11ZM119.528 135.529C119.266 136.872 118.665 138.126 117.783 139.172C116.725 140.112 115.365 140.643 113.949 140.667C112.646 140.571 112.473 137.101 112.473 135.338C112.473 134.724 111.591 136.545 111.151 132.846C110.863 130.488 109.329 133.095 109.234 131.504C109.138 129.913 108.371 130.258 107.566 129.261C106.761 128.264 105.783 129.357 104.671 129.855C103.559 130.354 104.019 130.603 102.447 130.123C100.973 126.616 100.216 122.848 100.224 119.043C100.22 118.096 100.265 117.149 100.358 116.206L100.53 115.938C102.045 114.155 102.007 113.752 102.007 113.752L103.674 113.158C105.257 113.419 106.815 113.81 108.333 114.327C109.981 114.941 112.569 116.34 114.084 115.727C115.176 115.286 116 114.692 116 113.81C116 112.928 114.984 112.41 113.892 113.177C113.489 113.446 112.646 111.452 111.975 111.548C111.304 111.644 112.799 113.906 112.224 114.002C111.649 114.097 110.518 111.663 110.307 111.26C110.096 110.858 109.214 109.88 108.39 110.628C106.722 112.219 103.981 112.123 103.444 112.545C101.776 113.791 101.336 112.123 101.374 111.126C101.374 110.896 101.508 110.666 101.585 110.436C102.041 110.12 102.569 109.921 103.121 109.857C103.672 109.794 104.231 109.867 104.748 110.072C105.476 110.57 106.013 109.957 106.301 109.65C106.417 109.481 106.479 109.28 106.479 109.075C106.479 108.87 106.417 108.669 106.301 108.5C106.109 108.097 106.665 107.81 107.048 107.714C107.432 107.618 108.697 106.717 109.214 106.429C110.616 105.971 112.126 105.971 113.528 106.429C113.996 106.67 114.531 106.743 115.047 106.639C115.562 106.534 116.027 106.258 116.365 105.854C116.943 105.157 117.645 104.573 118.435 104.129C118.838 103.937 117.419 102.595 116.25 104.129C115.08 105.663 114.467 105.701 113.911 105.701C113.355 105.701 110.077 104.896 109.674 103.784C109.272 102.672 110.71 101.963 111.917 101.369C113.68 100.956 115.477 100.706 117.285 100.621C119.01 100.238 121.215 99.375 122.327 100.123C123.438 100.87 117.687 102.174 119.585 103.19C120.256 103.554 123.285 101.445 124.32 100.909C126.774 99.6434 121.943 99.2216 122.576 96.672C123.285 93.7582 116.671 94.8893 113.374 95.1385C117.947 92.1959 123.273 90.638 128.71 90.6527C135.098 90.6555 141.299 92.8065 146.316 96.7598C151.333 100.713 154.875 106.239 156.372 112.449C156.391 112.895 156.339 113.341 156.219 113.772C156.073 114.076 155.85 114.337 155.572 114.527C155.293 114.718 154.969 114.831 154.633 114.857C154.296 114.882 153.959 114.818 153.655 114.671C153.352 114.524 153.092 114.3 152.903 114.021C152.615 113.599 151.388 112.449 151.426 114.423C151.465 116.398 153.343 116.59 151.522 117.778C150.63 118.403 149.608 118.816 148.532 118.986C148.023 119.387 147.625 119.91 147.374 120.507C147.122 121.103 147.026 121.754 147.094 122.398C147.286 123.472 149.874 126.443 147.957 126.328C146.174 125.463 144.652 124.14 143.548 122.494C142.953 120.922 142.302 119.388 141.842 118.2C141.76 117.937 141.615 117.698 141.42 117.505C141.224 117.312 140.984 117.17 140.72 117.093C140.456 117.015 140.177 117.003 139.908 117.059C139.639 117.115 139.388 117.237 139.177 117.414C138.161 118.104 139.445 118.794 138.717 120.27C137.988 121.746 137.471 123.069 136.416 121.861C133.637 118.679 129.592 120.232 128.959 116.705C128.633 114.788 127.042 114.96 125.585 113.887C124.129 112.813 123.419 112.2 123.189 112.986C122.959 113.772 127.541 117.28 127.867 118.219C128.346 119.58 126.506 120.807 125.145 121.133C123.783 121.459 123.228 120.366 121.886 118.986C120.544 117.606 119.969 116.628 119.969 117.701C120.018 118.636 120.279 119.547 120.73 120.367C121.182 121.187 121.812 121.895 122.576 122.436C123.726 123.165 125.01 123.491 124.646 124.679C124.282 125.868 124.646 125.178 123.343 126.462C122.797 126.843 122.372 127.372 122.117 127.987C121.862 128.602 121.789 129.277 121.905 129.932C122.001 131.695 121.541 131.849 121.253 133.287C120.965 134.724 120.333 133.478 119.777 135.644L119.528 135.529ZM150.295 124.296C151.254 124.296 152.692 125.542 152.212 126.059C151.782 126.281 151.297 126.375 150.815 126.33C150.333 126.286 149.874 126.106 149.49 125.81C148.781 125.254 149.95 124.334 150.372 124.296H150.295ZM149.164 123.433C148.858 123.318 148.589 123.031 148.359 122.321C148.298 122.196 148.279 122.054 148.306 121.918C148.333 121.781 148.405 121.657 148.51 121.565C148.615 121.473 148.747 121.419 148.886 121.41C149.025 121.401 149.164 121.438 149.279 121.516C149.601 121.684 149.885 121.915 150.116 122.195C150.347 122.474 150.518 122.798 150.621 123.146C150.621 123.606 149.471 123.548 149.164 123.433ZM136.608 123.433C136.178 123.654 135.693 123.748 135.211 123.704C134.729 123.66 134.269 123.48 133.886 123.184C133.177 122.628 134.346 121.708 134.768 121.689C135.726 121.593 137.164 122.935 136.685 123.433H136.608ZM125.068 129.088C124.684 129.721 123.611 134.513 122.882 133.957C122.154 133.402 123.17 128.398 123.381 128.034C124.512 125.964 126.947 126.117 125.068 129.088ZM128.902 147.626C126.196 147.628 123.504 147.241 120.908 146.475C120.704 146.317 120.559 146.095 120.496 145.845C120.434 145.595 120.457 145.331 120.563 145.095C121.093 144.077 121.891 143.223 122.871 142.625C123.85 142.028 124.975 141.708 126.122 141.702C130.742 141.242 136.8 144.693 137.758 144.137C138.717 143.581 140.691 141.05 143.509 141.146C144.418 141.092 145.322 141.32 146.097 141.798C141.139 145.566 135.072 147.588 128.844 147.549L128.902 147.626ZM148.896 139.267C148.592 139.19 148.296 139.081 148.014 138.942C146.461 138.156 146.634 139.421 145.886 139.133C145.139 138.846 146.749 137.082 144.449 138.577C142.148 140.073 142.781 138.347 141.784 135.817C141.461 134.621 141.58 133.348 142.119 132.232C142.657 131.116 143.58 130.232 144.717 129.74C146.405 129.155 148.135 128.7 149.893 128.379C153.305 127.516 154.034 125.484 154.647 126.73L154.992 127.382C155.272 127.983 155.422 128.636 155.433 129.299C153.986 133.065 151.759 136.482 148.896 139.325V139.267ZM156.698 124.967C155.931 124.756 152.73 120.347 155.26 117.433C155.682 116.954 154.417 115.516 154.762 115.516C155.338 115.474 155.91 115.646 156.366 116C156.823 116.354 157.132 116.864 157.235 117.433C157.235 117.97 157.235 118.526 157.235 119.082C157.229 121.014 157.03 122.94 156.641 124.833" fill="white"/>
<defs>
<filter id="filter0_d" x="0" y="0" width="257" height="257" filterUnits="userSpaceOnUse" color-interpolation-filters="sRGB">
<feFlood flood-opacity="0" result="BackgroundImageFix"/>
<feColorMatrix in="SourceAlpha" type="matrix" values="0 0 0 0 0 0 0 0 0 0 0 0 0 0 0 0 0 0 127 0" result="hardAlpha"/>
<feOffset dy="10"/>
<feGaussianBlur stdDeviation="12.5"/>
<feComposite in2="hardAlpha" operator="out"/>
<feColorMatrix type="matrix" values="0 0 0 0 0 0 0 0 0 0 0 0 0 0 0 0 0 0 0.15 0"/>
<feBlend mode="normal" in2="BackgroundImageFix" result="effect1_dropShadow"/>
<feBlend mode="normal" in="SourceGraphic" in2="effect1_dropShadow" result="shape"/>
</filter>
<linearGradient id="paint0_linear" x1="128.5" y1="15" x2="128.5" y2="222" gradientUnits="userSpaceOnUse">
<stop offset="0.380208" stop-color="#3E8F46"/>
<stop offset="1" stop-color="#1E4940"/>
</linearGradient>
</defs>
</svg>
