<svg width="273" height="262" viewBox="0 0 273 262" fill="none" xmlns="http://www.w3.org/2000/svg">
<path d="M204.754 0.173828H68.2463L0 118.67L68.2463 237.174H204.754L273 118.67L204.754 0.173828Z" fill="url(#paint0_linear)"/>
<path d="M185.753 33.1738H87.2473L38 118.671L87.2473 204.174H185.753L235 118.671L185.753 33.1738Z" fill="white"/>
<path fill-rule="evenodd" clip-rule="evenodd" d="M136.913 65.1738L136.956 65.1744C146.367 65.3051 155.362 69.075 162.054 75.6934C168.746 82.3118 172.615 91.2645 172.849 100.673L169.775 100.75H172.85C172.85 110.537 168.776 117.155 165.295 122.81L165.295 122.81C164.737 123.715 164.195 124.596 163.688 125.461C159.936 131.853 157.016 136.988 157.016 142.531V144.558L157.016 144.58L157.016 147.633L157.016 151.697L157.016 151.702C157.009 156.922 154.932 161.927 151.24 165.619C147.549 169.31 142.544 171.387 137.323 171.394H137.319C132.094 171.394 127.082 169.32 123.385 165.628C119.688 161.936 117.607 156.927 117.6 151.702L117.6 151.697V147.633V144.58V144.558V142.531C117.6 137.266 114.75 131.981 110.756 125.853L110.754 125.851C110.382 125.279 109.997 124.698 109.605 124.106C105.673 118.17 101 111.115 101 100.75V100.712L101.001 100.673C101.235 91.2687 105.101 82.3196 111.787 75.7018C118.474 69.0841 127.462 65.3114 136.869 65.1745L136.913 65.1738ZM123.749 147.633H150.867V151.696C150.861 155.288 149.432 158.731 146.892 161.271C144.353 163.81 140.909 165.24 137.318 165.245C133.722 165.245 130.274 163.818 127.73 161.277C125.186 158.737 123.754 155.29 123.749 151.695V147.633ZM166.701 100.788C166.497 92.9823 163.283 85.5569 157.73 80.0652C152.179 74.5748 144.721 71.443 136.915 71.3234C129.113 71.4482 121.659 74.5823 116.113 80.0722C110.564 85.5633 107.353 92.9858 107.149 100.788C107.16 109.206 110.826 114.772 114.785 120.785C115.158 121.351 115.533 121.921 115.908 122.497L130.208 116.385C129.095 115.871 128.039 115.229 127.066 114.469L124.209 117.351L119.842 113.023L123.027 109.809C122.69 109.221 122.387 108.605 122.121 107.962C121.656 106.839 121.327 105.694 121.128 104.545H116.26V98.3963H121.267C121.691 96.4643 122.468 94.6226 123.558 92.9708L120.679 89.5221L125.4 85.5818L127.892 88.5675C128.789 87.9557 129.763 87.4264 130.806 86.9943C131.862 86.5567 132.939 86.2403 134.02 86.0387V81.1996H140.168V86.0978C142.232 86.5224 144.196 87.3494 145.943 88.5288L148.895 85.3467L153.402 89.5285L150.284 92.89C150.861 93.7527 151.361 94.6843 151.773 95.6794C152.22 96.7575 152.54 97.8562 152.741 98.9594H157.568V104.692L166.701 100.788ZM140.168 117.545V122.394H134.02V117.601C132.702 117.356 131.421 116.946 130.209 116.386L115.909 122.498C119.654 128.243 123.374 134.587 123.722 141.484H150.893C151.23 134.532 154.859 128.352 158.187 122.686L158.385 122.348L158.385 122.348C158.974 121.345 159.566 120.375 160.149 119.42C163.588 113.786 166.691 108.702 166.701 100.788L157.568 104.692V105.108H156.594L152.131 107.016C151.78 108.042 151.325 109.031 150.774 109.967L153.973 112.686L149.991 117.371L146.697 114.572C145.614 115.399 144.407 116.101 143.088 116.647C142.128 117.045 141.15 117.343 140.168 117.545ZM156.593 105.108H152.656C152.52 105.755 152.345 106.392 152.131 107.016L156.593 105.108ZM127.801 105.609C125.709 100.558 128.108 94.7673 133.159 92.6752C138.21 90.583 144 92.9816 146.093 98.0325C148.185 103.083 145.786 108.874 140.735 110.966C135.684 113.058 129.894 110.66 127.801 105.609Z" fill="#2E73F0"/>
<defs>
<linearGradient id="paint0_linear" x1="1.68865e-06" y1="119.174" x2="273" y2="119.174" gradientUnits="userSpaceOnUse">
<stop stop-color="#09909F"/>
<stop offset="1" stop-color="#7DE314"/>
</linearGradient>
</defs>
</svg>
