<svg width="273" height="262" viewBox="0 0 273 262" fill="none" xmlns="http://www.w3.org/2000/svg">
<path d="M204.754 0.173828H68.2463L0 118.67L68.2463 237.174H204.754L273 118.67L204.754 0.173828Z" fill="url(#paint0_linear)"/>
<path d="M185.753 33.1738H87.2473L38 118.671L87.2473 204.174H185.753L235 118.671L185.753 33.1738Z" fill="white"/>
<path fill-rule="evenodd" clip-rule="evenodd" d="M88.0745 89.1738H85V92.2483V144.886V147.96H88.0745H184.926H188V144.886V92.2483V89.1738H184.926H88.0745ZM91.1489 122.944V114.435C96.025 114.01 100.62 111.883 104.108 108.395C107.623 104.88 109.756 100.241 110.157 95.3227H161.379C161.627 96.9793 162.075 98.6033 162.718 100.158C163.756 102.667 165.278 104.947 167.198 106.867C169.118 108.787 171.398 110.31 173.907 111.347C176.417 112.385 179.106 112.917 181.821 112.914L181.813 106.765C179.907 106.767 178.019 106.393 176.257 105.665C174.495 104.937 172.894 103.868 171.546 102.52C170.198 101.171 169.129 99.5706 168.401 97.8088C168.068 97.0031 167.809 96.171 167.626 95.3227H181.851V122.805C176.383 123.07 171.194 125.358 167.305 129.247C163.89 132.663 161.708 137.082 161.049 141.811H110.584C110.359 139.835 109.858 137.896 109.093 136.051C108.018 133.457 106.442 131.101 104.455 129.117C102.469 127.133 100.111 125.56 97.5157 124.488C95.4821 123.647 93.3343 123.128 91.1489 122.944ZM91.1489 129.124V141.811H104.379C104.191 140.645 103.868 139.502 103.413 138.406C102.647 136.559 101.525 134.881 100.11 133.467C98.6954 132.054 97.0159 130.934 95.1678 130.171C93.8797 129.638 92.5273 129.287 91.1489 129.124ZM171.653 133.595C174.388 130.86 178.016 129.222 181.851 128.964V141.811H167.281C167.884 138.721 169.394 135.854 171.653 133.595ZM99.7598 104.047C97.426 106.381 94.3903 107.851 91.1489 108.253V95.3227H103.979C103.598 98.6067 102.121 101.686 99.7598 104.047ZM135.869 98.3174C131.111 98.3174 127.042 100.928 124.27 104.652C121.496 108.379 119.866 113.385 119.866 118.78C119.866 124.175 121.496 129.185 124.268 132.917C127.038 136.646 131.108 139.265 135.869 139.265C140.631 139.265 144.7 136.646 147.471 132.917C150.243 129.185 151.872 124.175 151.872 118.78C151.872 113.387 150.25 108.382 147.479 104.654C144.708 100.926 140.637 98.3174 135.869 98.3174ZM126.015 118.78C126.015 114.58 127.291 110.892 129.202 108.323C131.115 105.753 133.51 104.466 135.869 104.466C138.242 104.466 140.635 105.754 142.544 108.322C144.452 110.889 145.723 114.578 145.723 118.78C145.723 122.98 144.447 126.675 142.535 129.25C140.62 131.828 138.225 133.116 135.869 133.116C133.513 133.116 131.119 131.828 129.204 129.25C127.291 126.675 126.015 122.98 126.015 118.78Z" fill="#2E73F0"/>
<defs>
<linearGradient id="paint0_linear" x1="1.68865e-06" y1="119.174" x2="273" y2="119.174" gradientUnits="userSpaceOnUse">
<stop stop-color="#2C2CFF"/>
<stop offset="1" stop-color="#283A8C"/>
</linearGradient>
</defs>
</svg>
