<svg width="273" height="272" viewBox="0 0 273 272" fill="none" xmlns="http://www.w3.org/2000/svg">
<path d="M204.754 0.173828H68.2463L0 118.67L68.2463 237.174H204.754L273 118.67L204.754 0.173828Z" fill="url(#paint0_linear)"/>
<path d="M185.753 33.1738H87.2473L38 118.671L87.2473 204.174H185.753L235 118.671L185.753 33.1738Z" fill="white"/>
<path fill-rule="evenodd" clip-rule="evenodd" d="M166.251 89.3571C156.882 80.0126 144.189 74.765 130.957 74.765C117.724 74.765 105.032 80.0126 95.6624 89.3571L91 84.6948C101.606 74.1152 115.976 68.1738 130.957 68.1738C145.938 68.1738 160.307 74.1152 170.913 84.6948L166.251 89.3571ZM151.295 103.366C145.768 97.8523 138.28 94.7557 130.472 94.7557C122.665 94.7557 115.176 97.8523 109.649 103.366L104.987 98.7039C108.333 95.3566 112.307 92.7014 116.679 90.8898C121.052 89.0783 125.739 88.1458 130.472 88.1458C135.206 88.1458 139.892 89.0783 144.265 90.8898C148.638 92.7014 152.611 95.3566 155.958 98.7039L151.295 103.366ZM152.692 125.981H163.548C168.19 125.981 172.641 127.825 175.923 131.107C179.205 134.389 181.049 138.84 181.049 143.482C181.049 148.123 179.205 152.574 175.923 155.857C172.641 159.139 168.19 160.982 163.548 160.982H109.244C104.602 160.982 100.151 159.139 96.869 155.857C93.587 152.574 91.7431 148.123 91.7431 143.482C91.7431 138.84 93.587 134.389 96.869 131.107C100.151 127.825 104.602 125.981 109.244 125.981H109.852C109.852 115.079 119.447 106.07 131.272 106.07C143.097 106.07 152.692 114.989 152.692 125.981Z" fill="#2E73F0"/>
<defs>
<linearGradient id="paint0_linear" x1="1.68865e-06" y1="119.174" x2="273" y2="119.174" gradientUnits="userSpaceOnUse">
<stop stop-color="#14A0C0"/>
<stop offset="1" stop-color="#01CC9B"/>
</linearGradient>
</defs>
</svg>
