<svg width="221" height="222" viewBox="0 0 221 222" fill="none" xmlns="http://www.w3.org/2000/svg">
<g filter="url(#filter0_d)">
<path d="M110.5 186.174C157.72 186.174 196 147.894 196 100.674C196 53.4535 157.72 15.1738 110.5 15.1738C63.2797 15.1738 25 53.4535 25 100.674C25 147.894 63.2797 186.174 110.5 186.174Z" fill="url(#paint0_linear)"/>
</g>
<path d="M111 169.174C148.555 169.174 179 138.729 179 101.174C179 63.6185 148.555 33.1738 111 33.1738C73.4446 33.1738 43 63.6185 43 101.174C43 138.729 73.4446 169.174 111 169.174Z" fill="url(#paint1_linear)"/>
<path d="M179.667 93.8804C181.011 107.558 178.268 121.328 171.787 133.447C165.306 145.567 155.377 155.493 143.256 161.971C131.134 168.448 117.364 171.186 103.687 169.839C90.0089 168.492 77.0379 163.119 66.4132 154.401C55.7885 145.683 47.9873 134.01 43.9957 120.859C40.0041 107.707 40.0014 93.6675 43.9879 80.5146C47.9745 67.3617 55.7712 55.686 66.3926 46.9636C77.0139 38.2413 89.9829 32.8639 103.66 31.5112C112.746 30.6126 121.921 31.5133 130.659 34.1618C139.397 36.8103 147.528 41.1547 154.587 46.9467C161.645 52.7388 167.493 59.8649 171.797 67.918C176.1 75.9711 178.775 84.7933 179.667 93.8804ZM43.7649 107.352C45.0754 120.551 50.2704 133.066 58.693 143.313C67.1156 153.56 78.3876 161.079 91.0836 164.92C103.78 168.761 117.329 168.751 130.02 164.891C142.71 161.032 153.971 153.496 162.378 143.236C170.786 132.977 175.962 120.455 177.253 107.254C178.544 94.0523 175.892 80.7647 169.632 69.0708C163.371 57.377 153.784 47.8021 142.081 41.5569C130.379 35.3118 117.088 32.6768 103.889 33.9852C95.1233 34.8541 86.6149 37.4411 78.8494 41.5985C71.0839 45.7559 64.2134 51.4023 58.6303 58.2152C53.0471 65.0281 48.8607 72.874 46.3101 81.305C43.7594 89.736 42.8946 98.5868 43.7649 107.352Z" fill="url(#paint2_linear)"/>
<path fill-rule="evenodd" clip-rule="evenodd" d="M84.6412 126.09C91.4444 132.893 100.668 136.72 110.289 136.731C119.909 136.72 129.13 132.893 135.93 126.089C142.73 119.285 146.552 110.061 146.558 100.442C146.546 90.8266 142.722 81.6081 135.923 74.8089C129.123 68.0097 119.905 64.185 110.289 64.1738C100.672 64.185 91.4512 68.009 84.6487 74.8076C77.8461 81.6062 74.0167 90.8246 74 100.442C74.0112 110.063 77.8381 119.287 84.6412 126.09ZM87.725 77.4562C92.5882 72.6684 98.8113 69.5693 105.481 68.5397C101.845 72.9902 99.0115 78.0041 97.0762 83.3534C93.6814 81.9214 90.5184 79.9367 87.725 77.4562ZM85.0703 80.412C80.9515 85.6071 78.5183 91.9588 78.1277 98.6065H94.0946C94.2463 94.7119 94.8458 90.8757 95.8644 87.1678C95.852 87.1628 95.8396 87.1577 95.8273 87.1526C91.8822 85.5272 88.2459 83.2467 85.0703 80.412ZM99.6311 88.487C98.7418 91.7709 98.2092 95.1632 98.0571 98.6065H122.318C122.173 95.1801 121.652 91.8037 120.777 88.5336C117.374 89.5109 113.844 90.0059 110.289 89.9984C106.676 90.0064 103.087 89.4955 99.6311 88.487ZM119.582 84.7256C116.582 85.5799 113.453 86.0242 110.279 86.0242C107.056 86.0242 103.88 85.5661 100.837 84.6858C102.912 79.0052 106.088 73.7393 110.232 69.2118C114.363 73.755 117.524 79.0342 119.582 84.7256ZM124.542 87.2332C125.55 90.9208 126.143 94.7348 126.294 98.6065H142.515C142.128 91.9383 139.683 85.5674 135.544 80.363C132.358 83.2198 128.706 85.517 124.742 87.1517C124.675 87.1791 124.609 87.2063 124.542 87.2332ZM132.883 77.4112C130.037 79.9485 126.806 81.9699 123.335 83.4149C121.392 78.024 118.539 72.9725 114.87 68.4936C121.633 69.4707 127.953 72.5744 132.883 77.4112ZM78.1464 102.594C78.5932 109.169 81.0384 115.442 85.1356 120.575C88.3208 117.732 91.9389 115.467 95.8255 113.848C94.8342 110.198 94.2486 106.424 94.0962 102.594H78.1464ZM97.0241 117.66C93.6758 119.093 90.5558 121.064 87.7974 123.52C92.5924 128.211 98.6978 131.268 105.246 132.328C101.69 127.91 98.9189 122.948 97.0241 117.66ZM110.155 132.031C105.972 127.439 102.782 122.092 100.723 116.326C103.832 115.403 107.084 114.923 110.384 114.923C113.549 114.923 116.668 115.364 119.66 116.214C117.592 122.024 114.376 127.411 110.155 132.031ZM115.104 132.377C118.71 127.908 121.511 122.88 123.414 117.521C126.863 118.954 130.077 120.955 132.911 123.467C128.034 128.263 121.791 131.361 115.104 132.377ZM124.609 113.677C128.607 115.286 132.329 117.575 135.6 120.471C139.645 115.357 142.057 109.124 142.497 102.594H126.292C126.142 106.365 125.573 110.08 124.609 113.677ZM110.426 110.929C113.98 110.929 117.482 111.427 120.84 112.385C121.673 109.203 122.172 105.922 122.316 102.594H98.0517C98.1916 105.969 98.6971 109.296 99.5459 112.521C103.046 111.475 106.708 110.929 110.426 110.929Z" fill="#286BAF"/>
<defs>
<filter id="filter0_d" x="0" y="0.173828" width="221" height="221" filterUnits="userSpaceOnUse" color-interpolation-filters="sRGB">
<feFlood flood-opacity="0" result="BackgroundImageFix"/>
<feColorMatrix in="SourceAlpha" type="matrix" values="0 0 0 0 0 0 0 0 0 0 0 0 0 0 0 0 0 0 127 0" result="hardAlpha"/>
<feOffset dy="10"/>
<feGaussianBlur stdDeviation="12.5"/>
<feComposite in2="hardAlpha" operator="out"/>
<feColorMatrix type="matrix" values="0 0 0 0 0 0 0 0 0 0 0 0 0 0 0 0 0 0 0.15 0"/>
<feBlend mode="normal" in2="BackgroundImageFix" result="effect1_dropShadow"/>
<feBlend mode="normal" in="SourceGraphic" in2="effect1_dropShadow" result="shape"/>
</filter>
<linearGradient id="paint0_linear" x1="42.2689" y1="166.806" x2="169.883" y2="39.1924" gradientUnits="userSpaceOnUse">
<stop stop-color="#004FD4"/>
<stop offset="0.32" stop-color="#3187E5"/>
<stop offset="0.63" stop-color="#5BB7F3"/>
<stop offset="0.87" stop-color="#75D5FC"/>
<stop offset="1" stop-color="#7FE0FF"/>
</linearGradient>
<linearGradient id="paint1_linear" x1="67.6987" y1="155.87" x2="154.26" y2="50.0496" gradientUnits="userSpaceOnUse">
<stop stop-color="#C6C8CC"/>
<stop offset="0.47" stop-color="#DBDDE1"/>
<stop offset="1" stop-color="#F7FAFF"/>
</linearGradient>
<linearGradient id="paint2_linear" x1="180.966" y1="93.6392" x2="42.0081" y2="107.535" gradientUnits="userSpaceOnUse">
<stop stop-color="#C6C8CC"/>
<stop offset="0.12" stop-color="#D0D3D7"/>
<stop offset="0.43" stop-color="#E6E8ED"/>
<stop offset="0.73" stop-color="#F3F6FA"/>
<stop offset="1" stop-color="#F7FAFF"/>
</linearGradient>
</defs>
</svg>
