<svg width="221" height="222" viewBox="0 0 221 222" fill="none" xmlns="http://www.w3.org/2000/svg">
<g filter="url(#filter0_d)">
<path d="M110.5 186.174C157.72 186.174 196 147.894 196 100.674C196 53.4535 157.72 15.1738 110.5 15.1738C63.2797 15.1738 25 53.4535 25 100.674C25 147.894 63.2797 186.174 110.5 186.174Z" fill="url(#paint0_linear)"/>
</g>
<path d="M111 169.174C148.555 169.174 179 138.729 179 101.174C179 63.6185 148.555 33.1738 111 33.1738C73.4446 33.1738 43 63.6185 43 101.174C43 138.729 73.4446 169.174 111 169.174Z" fill="url(#paint1_linear)"/>
<path d="M179.667 93.8804C181.011 107.558 178.268 121.328 171.787 133.447C165.306 145.567 155.377 155.493 143.256 161.971C131.134 168.448 117.364 171.186 103.687 169.839C90.0089 168.492 77.0379 163.119 66.4132 154.401C55.7885 145.683 47.9873 134.01 43.9957 120.859C40.0041 107.707 40.0014 93.6675 43.9879 80.5146C47.9745 67.3617 55.7712 55.686 66.3926 46.9636C77.0139 38.2413 89.9829 32.8639 103.66 31.5112C112.746 30.6126 121.921 31.5133 130.659 34.1618C139.397 36.8103 147.528 41.1547 154.587 46.9467C161.645 52.7388 167.493 59.8649 171.797 67.918C176.1 75.9711 178.775 84.7933 179.667 93.8804ZM43.7649 107.352C45.0754 120.551 50.2704 133.066 58.693 143.313C67.1156 153.56 78.3876 161.079 91.0836 164.92C103.78 168.761 117.329 168.751 130.02 164.891C142.71 161.032 153.971 153.496 162.378 143.236C170.786 132.977 175.962 120.455 177.253 107.254C178.544 94.0523 175.892 80.7647 169.632 69.0708C163.371 57.377 153.784 47.8021 142.081 41.5569C130.379 35.3118 117.088 32.6768 103.889 33.9852C95.1233 34.8541 86.6149 37.4411 78.8494 41.5985C71.0839 45.7559 64.2134 51.4023 58.6303 58.2152C53.0471 65.0281 48.8607 72.874 46.3101 81.305C43.7594 89.736 42.8946 98.5868 43.7649 107.352Z" fill="url(#paint2_linear)"/>
<path fill-rule="evenodd" clip-rule="evenodd" d="M124.255 63.1738L115.939 78.0719L107.338 73.2906L85.0408 113.343L78.0522 109.454L76 113.141L91.5902 121.818L87.7471 128.74L81.5946 125.311L79.5405 128.997L95.5561 137.922L97.6102 134.236L91.4331 130.794L95.2772 123.87L110.879 132.554L112.932 128.867L105.985 125.001L128.288 84.9369L119.627 80.1221L127.939 65.2305L124.255 63.1738ZM102.316 122.935L88.7287 115.382L108.983 79.0294L122.55 86.5826L102.316 122.935ZM126.704 134.581C128.711 136.6 131.434 137.745 134.28 137.767C135.702 137.776 137.11 137.503 138.426 136.965C139.741 136.427 140.937 135.634 141.945 134.632C142.953 133.63 143.753 132.439 144.298 131.127C144.844 129.814 145.125 128.407 145.125 126.986C145.125 121.859 137.635 109.77 136.137 107.386L134.344 104.58L132.571 107.386C131.073 109.77 123.562 121.859 123.562 126.986C123.568 129.833 124.697 132.562 126.704 134.581ZM127.719 126.986C127.719 124.581 131.137 117.893 134.28 112.576V112.639C137.445 117.893 140.842 124.581 140.842 126.986C140.842 128.726 140.151 130.395 138.92 131.626C137.69 132.856 136.021 133.548 134.28 133.548C132.542 133.542 130.876 132.849 129.647 131.62C128.418 130.39 127.724 128.725 127.719 126.986Z" fill="#286BAF"/>
<defs>
<filter id="filter0_d" x="0" y="0.173828" width="221" height="221" filterUnits="userSpaceOnUse" color-interpolation-filters="sRGB">
<feFlood flood-opacity="0" result="BackgroundImageFix"/>
<feColorMatrix in="SourceAlpha" type="matrix" values="0 0 0 0 0 0 0 0 0 0 0 0 0 0 0 0 0 0 127 0" result="hardAlpha"/>
<feOffset dy="10"/>
<feGaussianBlur stdDeviation="12.5"/>
<feComposite in2="hardAlpha" operator="out"/>
<feColorMatrix type="matrix" values="0 0 0 0 0 0 0 0 0 0 0 0 0 0 0 0 0 0 0.15 0"/>
<feBlend mode="normal" in2="BackgroundImageFix" result="effect1_dropShadow"/>
<feBlend mode="normal" in="SourceGraphic" in2="effect1_dropShadow" result="shape"/>
</filter>
<linearGradient id="paint0_linear" x1="42.2689" y1="166.806" x2="169.883" y2="39.1924" gradientUnits="userSpaceOnUse">
<stop stop-color="#004FD4"/>
<stop offset="0.32" stop-color="#3187E5"/>
<stop offset="0.63" stop-color="#5BB7F3"/>
<stop offset="0.87" stop-color="#75D5FC"/>
<stop offset="1" stop-color="#7FE0FF"/>
</linearGradient>
<linearGradient id="paint1_linear" x1="67.6987" y1="155.87" x2="154.26" y2="50.0496" gradientUnits="userSpaceOnUse">
<stop stop-color="#C6C8CC"/>
<stop offset="0.47" stop-color="#DBDDE1"/>
<stop offset="1" stop-color="#F7FAFF"/>
</linearGradient>
<linearGradient id="paint2_linear" x1="180.966" y1="93.6392" x2="42.0081" y2="107.535" gradientUnits="userSpaceOnUse">
<stop stop-color="#C6C8CC"/>
<stop offset="0.12" stop-color="#D0D3D7"/>
<stop offset="0.43" stop-color="#E6E8ED"/>
<stop offset="0.73" stop-color="#F3F6FA"/>
<stop offset="1" stop-color="#F7FAFF"/>
</linearGradient>
</defs>
</svg>
