<svg width="221" height="222" viewBox="0 0 221 222" fill="none" xmlns="http://www.w3.org/2000/svg">
<g filter="url(#filter0_d)">
<path d="M110.5 186.174C157.72 186.174 196 147.894 196 100.674C196 53.4535 157.72 15.1738 110.5 15.1738C63.2797 15.1738 25 53.4535 25 100.674C25 147.894 63.2797 186.174 110.5 186.174Z" fill="url(#paint0_linear)"/>
</g>
<path d="M111 169.174C148.555 169.174 179 138.729 179 101.174C179 63.6185 148.555 33.1738 111 33.1738C73.4446 33.1738 43 63.6185 43 101.174C43 138.729 73.4446 169.174 111 169.174Z" fill="url(#paint1_linear)"/>
<path d="M179.667 93.8804C181.011 107.558 178.268 121.328 171.787 133.447C165.306 145.567 155.377 155.493 143.256 161.971C131.134 168.448 117.364 171.186 103.687 169.839C90.0089 168.492 77.0379 163.119 66.4132 154.401C55.7885 145.683 47.9873 134.01 43.9957 120.859C40.0041 107.707 40.0014 93.6675 43.9879 80.5146C47.9745 67.3617 55.7712 55.686 66.3926 46.9636C77.0139 38.2413 89.9829 32.8639 103.66 31.5112C112.746 30.6126 121.921 31.5133 130.659 34.1618C139.397 36.8103 147.528 41.1547 154.587 46.9467C161.645 52.7388 167.493 59.8649 171.797 67.918C176.1 75.9711 178.775 84.7933 179.667 93.8804ZM43.7649 107.352C45.0754 120.551 50.2704 133.066 58.693 143.313C67.1156 153.56 78.3876 161.079 91.0836 164.92C103.78 168.761 117.329 168.751 130.02 164.891C142.71 161.032 153.971 153.496 162.378 143.236C170.786 132.977 175.962 120.455 177.253 107.254C178.544 94.0523 175.892 80.7647 169.632 69.0708C163.371 57.377 153.784 47.8021 142.081 41.5569C130.379 35.3118 117.088 32.6768 103.889 33.9852C95.1233 34.8541 86.6149 37.4411 78.8494 41.5985C71.0839 45.7559 64.2134 51.4023 58.6303 58.2152C53.0471 65.0281 48.8607 72.874 46.3101 81.305C43.7594 89.736 42.8946 98.5868 43.7649 107.352Z" fill="url(#paint2_linear)"/>
<path fill-rule="evenodd" clip-rule="evenodd" d="M117.547 65.1738H105.373V69.3935H109.192V77.6518C106.238 77.8792 103.368 78.6405 100.715 79.8803L96.4587 72.4989L99.836 70.5545L97.7306 66.8976L87.1804 72.9716L89.2857 76.6285L92.8018 74.6043L97.0609 81.9902C95.8963 82.8042 94.7973 83.7235 93.779 84.7418C92.7404 85.7804 91.8049 86.9028 90.979 88.0931L83.921 84.0067L86.0847 80.2484L82.4278 78.143L76.3537 88.6933L80.0107 90.7986L81.8156 87.6636L88.8817 91.7548C87.7864 94.1194 87.0707 96.6554 86.7734 99.2689H78.2197V95.5556H74V107.729H78.2197V103.489H86.664C86.8477 106.446 87.5656 109.324 88.7627 111.991L82.1928 115.786L79.9981 111.984L76.3437 114.094L82.4201 124.619L86.0744 122.509L84.3026 119.44L90.8162 115.678C91.6829 116.96 92.6752 118.166 93.7851 119.275C94.6429 120.133 95.5579 120.921 96.521 121.634L93.0275 127.683L89.6872 125.752L87.5754 129.405L98.1333 135.508L100.245 131.855L96.6808 129.795L100.117 123.846C102.934 125.258 106.014 126.123 109.192 126.37V133.554H105.205V137.774H117.379V133.554H113.412V126.327C116.68 126.007 119.834 125.034 122.693 123.482L126.891 130.777L121.921 133.633L124.031 137.304L134.623 131.217L132.513 127.546L130.549 128.674L126.22 121.152C126.951 120.572 127.652 119.948 128.319 119.282C129.258 118.342 130.114 117.334 130.88 116.269L138.028 120.398L136.245 123.482L139.898 125.594L146.001 115.036L142.348 112.924L140.14 116.744L133.039 112.643C134.277 110.084 135.066 107.316 135.356 104.459H143.92V108.7H148.14V96.5261H143.92V100.239H135.415C135.191 97.1975 134.402 94.2435 133.107 91.5228L140.561 87.2086L142.75 91.0087L146.407 88.9027L140.331 78.3535L136.674 80.4595L138.455 83.552L130.971 87.8833C130.182 86.7707 129.296 85.7192 128.319 84.7418C127.265 83.6886 126.126 82.7413 124.917 81.9068L128.987 74.8767L133.045 77.2188L135.155 73.564L124.629 67.4895L122.52 71.1442L125.332 72.7675L121.25 79.8188C118.787 78.6854 116.139 77.9632 113.412 77.6961V69.3935H117.547V65.1738ZM111.049 81.7994C105.69 81.805 100.552 83.9363 96.7627 87.7256C92.9734 91.515 90.8421 96.6528 90.8365 102.012C90.8421 107.371 92.9734 112.508 96.7627 116.298C100.552 120.087 105.69 122.218 111.049 122.224C116.408 122.218 121.546 120.087 125.335 116.298C129.124 112.508 131.256 107.371 131.261 102.012C131.256 96.6528 129.124 91.515 125.335 87.7256C121.546 83.9363 116.408 81.805 111.049 81.7994Z" fill="#286BAF"/>
<defs>
<filter id="filter0_d" x="0" y="0.173828" width="221" height="221" filterUnits="userSpaceOnUse" color-interpolation-filters="sRGB">
<feFlood flood-opacity="0" result="BackgroundImageFix"/>
<feColorMatrix in="SourceAlpha" type="matrix" values="0 0 0 0 0 0 0 0 0 0 0 0 0 0 0 0 0 0 127 0" result="hardAlpha"/>
<feOffset dy="10"/>
<feGaussianBlur stdDeviation="12.5"/>
<feComposite in2="hardAlpha" operator="out"/>
<feColorMatrix type="matrix" values="0 0 0 0 0 0 0 0 0 0 0 0 0 0 0 0 0 0 0.15 0"/>
<feBlend mode="normal" in2="BackgroundImageFix" result="effect1_dropShadow"/>
<feBlend mode="normal" in="SourceGraphic" in2="effect1_dropShadow" result="shape"/>
</filter>
<linearGradient id="paint0_linear" x1="42.2689" y1="166.806" x2="169.883" y2="39.1924" gradientUnits="userSpaceOnUse">
<stop stop-color="#004FD4"/>
<stop offset="0.32" stop-color="#3187E5"/>
<stop offset="0.63" stop-color="#5BB7F3"/>
<stop offset="0.87" stop-color="#75D5FC"/>
<stop offset="1" stop-color="#7FE0FF"/>
</linearGradient>
<linearGradient id="paint1_linear" x1="67.6987" y1="155.87" x2="154.26" y2="50.0496" gradientUnits="userSpaceOnUse">
<stop stop-color="#C6C8CC"/>
<stop offset="0.47" stop-color="#DBDDE1"/>
<stop offset="1" stop-color="#F7FAFF"/>
</linearGradient>
<linearGradient id="paint2_linear" x1="180.966" y1="93.6392" x2="42.0081" y2="107.535" gradientUnits="userSpaceOnUse">
<stop stop-color="#C6C8CC"/>
<stop offset="0.12" stop-color="#D0D3D7"/>
<stop offset="0.43" stop-color="#E6E8ED"/>
<stop offset="0.73" stop-color="#F3F6FA"/>
<stop offset="1" stop-color="#F7FAFF"/>
</linearGradient>
</defs>
</svg>
