<svg width="221" height="222" viewBox="0 0 221 222" fill="none" xmlns="http://www.w3.org/2000/svg">
<g filter="url(#filter0_d)">
<path d="M110.5 186.174C157.72 186.174 196 147.894 196 100.674C196 53.4535 157.72 15.1738 110.5 15.1738C63.2797 15.1738 25 53.4535 25 100.674C25 147.894 63.2797 186.174 110.5 186.174Z" fill="url(#paint0_linear)"/>
</g>
<path d="M111 169.174C148.555 169.174 179 138.729 179 101.174C179 63.6185 148.555 33.1738 111 33.1738C73.4446 33.1738 43 63.6185 43 101.174C43 138.729 73.4446 169.174 111 169.174Z" fill="url(#paint1_linear)"/>
<path d="M179.667 93.8804C181.011 107.558 178.268 121.328 171.787 133.447C165.306 145.567 155.377 155.493 143.256 161.971C131.134 168.448 117.364 171.186 103.687 169.839C90.0089 168.492 77.0379 163.119 66.4132 154.401C55.7885 145.683 47.9873 134.01 43.9957 120.859C40.0041 107.707 40.0014 93.6675 43.9879 80.5146C47.9745 67.3617 55.7712 55.686 66.3926 46.9636C77.0139 38.2413 89.9829 32.8639 103.66 31.5112C112.746 30.6126 121.921 31.5133 130.659 34.1618C139.397 36.8103 147.528 41.1547 154.587 46.9467C161.645 52.7388 167.493 59.8649 171.797 67.918C176.1 75.9711 178.775 84.7933 179.667 93.8804ZM43.7649 107.352C45.0754 120.551 50.2704 133.066 58.693 143.313C67.1156 153.56 78.3876 161.079 91.0836 164.92C103.78 168.761 117.329 168.751 130.02 164.891C142.71 161.032 153.971 153.496 162.378 143.236C170.786 132.977 175.962 120.455 177.253 107.254C178.544 94.0523 175.892 80.7647 169.632 69.0708C163.371 57.377 153.784 47.8021 142.081 41.5569C130.379 35.3118 117.088 32.6768 103.889 33.9852C95.1233 34.8541 86.6149 37.4411 78.8494 41.5985C71.0839 45.7559 64.2134 51.4023 58.6303 58.2152C53.0471 65.0281 48.8607 72.874 46.3101 81.305C43.7594 89.736 42.8946 98.5868 43.7649 107.352Z" fill="url(#paint2_linear)"/>
<path fill-rule="evenodd" clip-rule="evenodd" d="M94.8749 80.2463C93.6013 79.8149 92.4101 79.1448 91.3692 78.261C89.2123 76.4388 87.8529 73.846 87.5809 71.0355C87.3089 68.2251 88.146 65.4197 89.9134 63.2178L90.0822 63.0068C91.9374 60.8179 94.5843 59.4535 97.4434 59.2122C100.303 58.971 103.141 59.8727 105.336 61.7198C106.434 62.6273 107.336 63.7476 107.988 65.013C108.641 66.2785 109.031 67.663 109.134 69.0831C109.262 70.4993 109.106 71.9269 108.675 73.2819C108.539 73.7104 108.376 74.129 108.187 74.5352L121.809 81.5388C122.034 81.2695 122.272 81.0099 122.521 80.7608C123.628 79.6539 124.942 78.7758 126.388 78.1768C127.834 77.5777 129.385 77.2693 130.95 77.2693C134.103 77.286 137.121 78.5487 139.346 80.7818C141.571 83.0149 142.823 86.0374 142.828 89.19C142.823 92.3425 141.571 95.365 139.346 97.5981C137.202 99.7495 134.323 101 131.296 101.104L129.511 121.55C131.098 121.951 132.589 122.712 133.861 123.791C134.949 124.712 135.845 125.838 136.497 127.105C137.148 128.372 137.543 129.756 137.659 131.176C137.776 132.591 137.611 134.016 137.173 135.367C136.734 136.718 136.032 137.968 135.106 139.046C134.085 140.254 132.812 141.225 131.376 141.888C129.94 142.551 128.376 142.892 126.793 142.886C124.515 142.862 122.301 142.124 120.464 140.776L120 140.375L119.873 140.269L119.536 139.974C117.532 138.141 116.302 135.614 116.097 132.906C116.026 132.095 116.048 131.28 116.162 130.478L100.796 122.787C99.8423 123.787 98.7301 124.626 97.5025 125.268C96.0291 126.039 94.4182 126.512 92.7618 126.661L91.6014 126.703C88.641 126.703 85.7742 125.665 83.4996 123.77C80.9444 121.599 79.346 118.51 79.0499 115.17C78.7538 111.83 79.7838 108.508 81.9172 105.921C82.9804 104.643 84.2872 103.59 85.7614 102.822C87.2356 102.054 88.8479 101.587 90.5043 101.448C90.8753 101.415 91.246 101.398 91.6156 101.398L94.8749 80.2463ZM125.294 121.333L127.115 100.471C125.49 99.9166 123.99 99.0137 122.728 97.809L103.608 109.957C103.936 110.915 104.149 111.912 104.239 112.926C104.435 115.112 104.058 117.291 103.171 119.257L117.58 126.469C117.882 125.965 118.225 125.486 118.607 125.036C120.316 123.024 122.697 121.712 125.294 121.333ZM120.233 94.3944C119.451 92.7877 119.033 91.0106 119.029 89.19C119.029 87.8314 119.262 86.4844 119.715 85.2068L105.668 77.9849C104.968 78.6339 104.182 79.1865 103.33 79.6259C102.065 80.2786 100.68 80.6684 99.26 80.7717L99.062 80.7807L95.7776 102.095C97.2115 102.592 98.558 103.347 99.7454 104.339C100.427 104.908 101.044 105.545 101.59 106.24L120.233 94.3944ZM93.2048 65.8129L93.458 65.5597C94.6066 64.3195 96.186 63.5653 97.8726 63.4516C99.5592 63.3378 101.225 63.8731 102.53 64.9478C103.197 65.5045 103.746 66.1889 104.144 66.9606C104.543 67.7323 104.783 68.5759 104.851 69.4418C105.012 71.151 104.497 72.8552 103.416 74.189C102.86 74.8557 102.175 75.4044 101.404 75.8029C100.632 76.2015 99.7884 76.4418 98.9225 76.5098C98.0538 76.5836 97.1791 76.4835 96.3495 76.2154C95.52 75.9474 94.7522 75.5167 94.0909 74.9485C92.7735 73.847 91.9421 72.2715 91.7763 70.5622C91.6105 68.853 92.1236 67.1471 93.2048 65.8129ZM91.6014 105.605C90.3616 105.603 89.1365 105.874 88.0134 106.399C86.8902 106.924 85.8966 107.69 85.1031 108.643C83.6818 110.347 82.989 112.542 83.1746 114.754C83.3602 116.965 84.4093 119.014 86.0947 120.458C86.951 121.221 87.9539 121.802 89.0421 122.165C90.1304 122.528 91.2812 122.665 92.4243 122.568C94.6519 122.366 96.7084 121.289 98.142 119.572C98.8568 118.72 99.3963 117.735 99.7294 116.675C100.063 115.614 100.183 114.497 100.083 113.39C99.8815 111.162 98.8039 109.106 97.087 107.672C95.5753 106.359 93.6459 105.626 91.6436 105.605H91.6014ZM122.827 137.337C124.174 138.347 125.854 138.807 127.528 138.623C129.201 138.438 130.741 137.624 131.836 136.345C132.398 135.685 132.823 134.92 133.088 134.094C133.352 133.268 133.45 132.398 133.376 131.535C133.312 130.67 133.075 129.827 132.681 129.055C132.286 128.283 131.74 127.598 131.076 127.041C129.748 125.91 128.026 125.35 126.287 125.485C124.547 125.619 122.932 126.436 121.793 127.758C121.23 128.413 120.804 129.175 120.539 129.997C120.275 130.82 120.177 131.687 120.253 132.547C120.373 134.039 120.998 135.446 122.025 136.535H122.489L122.827 137.337ZM128 82.0695C128.935 81.6835 129.938 81.4862 130.95 81.489C132.985 81.5002 134.933 82.3165 136.368 83.7595C137.803 85.2025 138.609 87.1548 138.609 89.19C138.603 91.2234 137.796 93.1726 136.362 94.6144C134.928 96.0562 132.983 96.8742 130.95 96.8909C129.939 96.8909 128.937 96.6917 128.003 96.3047C127.069 95.9177 126.22 95.3505 125.505 94.6354C124.79 93.9203 124.222 93.0713 123.835 92.137C123.448 91.2026 123.249 90.2013 123.249 89.19C123.246 88.1779 123.444 87.1752 123.83 86.2397C124.216 85.3041 124.783 84.4541 125.498 83.7384C126.214 83.0228 127.064 82.4556 128 82.0695Z" fill="#286BAF"/>
<defs>
<filter id="filter0_d" x="0" y="0.173828" width="221" height="221" filterUnits="userSpaceOnUse" color-interpolation-filters="sRGB">
<feFlood flood-opacity="0" result="BackgroundImageFix"/>
<feColorMatrix in="SourceAlpha" type="matrix" values="0 0 0 0 0 0 0 0 0 0 0 0 0 0 0 0 0 0 127 0" result="hardAlpha"/>
<feOffset dy="10"/>
<feGaussianBlur stdDeviation="12.5"/>
<feComposite in2="hardAlpha" operator="out"/>
<feColorMatrix type="matrix" values="0 0 0 0 0 0 0 0 0 0 0 0 0 0 0 0 0 0 0.15 0"/>
<feBlend mode="normal" in2="BackgroundImageFix" result="effect1_dropShadow"/>
<feBlend mode="normal" in="SourceGraphic" in2="effect1_dropShadow" result="shape"/>
</filter>
<linearGradient id="paint0_linear" x1="42.2689" y1="166.806" x2="169.883" y2="39.1924" gradientUnits="userSpaceOnUse">
<stop stop-color="#004FD4"/>
<stop offset="0.32" stop-color="#3187E5"/>
<stop offset="0.63" stop-color="#5BB7F3"/>
<stop offset="0.87" stop-color="#75D5FC"/>
<stop offset="1" stop-color="#7FE0FF"/>
</linearGradient>
<linearGradient id="paint1_linear" x1="67.6987" y1="155.87" x2="154.26" y2="50.0496" gradientUnits="userSpaceOnUse">
<stop stop-color="#C6C8CC"/>
<stop offset="0.47" stop-color="#DBDDE1"/>
<stop offset="1" stop-color="#F7FAFF"/>
</linearGradient>
<linearGradient id="paint2_linear" x1="180.966" y1="93.6392" x2="42.0081" y2="107.535" gradientUnits="userSpaceOnUse">
<stop stop-color="#C6C8CC"/>
<stop offset="0.12" stop-color="#D0D3D7"/>
<stop offset="0.43" stop-color="#E6E8ED"/>
<stop offset="0.73" stop-color="#F3F6FA"/>
<stop offset="1" stop-color="#F7FAFF"/>
</linearGradient>
</defs>
</svg>
