<svg width="221" height="222" viewBox="0 0 221 222" fill="none" xmlns="http://www.w3.org/2000/svg">
<g filter="url(#filter0_d)">
<path d="M110.5 186.174C157.72 186.174 196 147.894 196 100.674C196 53.4535 157.72 15.1738 110.5 15.1738C63.2797 15.1738 25 53.4535 25 100.674C25 147.894 63.2797 186.174 110.5 186.174Z" fill="url(#paint0_linear)"/>
</g>
<path d="M111 169.174C148.555 169.174 179 138.729 179 101.174C179 63.6185 148.555 33.1738 111 33.1738C73.4446 33.1738 43 63.6185 43 101.174C43 138.729 73.4446 169.174 111 169.174Z" fill="url(#paint1_linear)"/>
<path d="M179.667 93.8804C181.011 107.558 178.268 121.328 171.787 133.447C165.306 145.567 155.377 155.493 143.256 161.971C131.134 168.448 117.364 171.186 103.687 169.839C90.0089 168.492 77.0379 163.119 66.4132 154.401C55.7885 145.683 47.9873 134.01 43.9957 120.859C40.0041 107.707 40.0014 93.6675 43.9879 80.5146C47.9745 67.3617 55.7712 55.686 66.3926 46.9636C77.0139 38.2413 89.9829 32.8639 103.66 31.5112C112.746 30.6126 121.921 31.5133 130.659 34.1618C139.397 36.8103 147.528 41.1547 154.587 46.9467C161.645 52.7388 167.493 59.8649 171.797 67.918C176.1 75.9711 178.775 84.7933 179.667 93.8804ZM43.7649 107.352C45.0754 120.551 50.2704 133.066 58.693 143.313C67.1156 153.56 78.3876 161.079 91.0836 164.92C103.78 168.761 117.329 168.751 130.02 164.891C142.71 161.032 153.971 153.496 162.378 143.236C170.786 132.977 175.962 120.455 177.253 107.254C178.544 94.0523 175.892 80.7647 169.631 69.0708C163.371 57.377 153.784 47.8021 142.081 41.5569C130.379 35.3118 117.088 32.6768 103.889 33.9852C95.1233 34.8541 86.6149 37.4411 78.8494 41.5985C71.0839 45.7559 64.2134 51.4023 58.6303 58.2152C53.0471 65.0281 48.8607 72.874 46.3101 81.305C43.7594 89.736 42.8946 98.5868 43.7649 107.352V107.352Z" fill="url(#paint2_linear)"/>
<path fill-rule="evenodd" clip-rule="evenodd" d="M99.9759 125.52H123.184V129.381C123.179 132.457 121.954 135.405 119.779 137.58C117.604 139.755 114.656 140.98 111.58 140.985C108.504 140.98 105.556 139.755 103.381 137.58C101.206 135.405 99.9814 132.457 99.9759 129.381V125.52ZM95.6929 125.52H95.7562V129.381C95.7673 133.574 97.438 137.593 100.403 140.558C103.368 143.523 107.387 145.194 111.58 145.205C115.775 145.199 119.797 143.53 122.763 140.564C125.729 137.598 127.398 133.576 127.404 129.381V123.495H127.261L127.193 121.765C127.193 117.123 129.387 113.114 132.742 107.523L133.987 105.413C137.004 100.687 140.316 95.3493 140.316 87.3952C140.322 79.6544 137.254 72.2282 131.786 66.7488C126.318 61.2693 118.899 58.185 111.158 58.1738C103.417 58.185 95.9978 61.2693 90.5302 66.7488C85.0626 72.2282 81.9944 79.6544 82 87.3952C82 95.7607 85.6901 101.307 88.9809 106.253L89.068 106.384L89.9752 107.776C92.8657 112.228 95.6929 116.954 95.6929 121.743V125.52ZM136.096 87.3952C136.102 80.7736 133.478 74.4206 128.802 69.7325C124.126 65.0444 117.78 62.4047 111.158 62.3935C104.536 62.4047 98.1902 65.0444 93.514 69.7325C88.8377 74.4206 86.2141 80.7736 86.2197 87.3952C86.2197 94.4607 89.4074 99.3178 92.4908 104.016L92.5492 104.105L93.4987 105.519C96.6423 110.371 99.8282 115.583 99.8282 121.343H123.037C123.183 115.46 126.175 110.422 129.077 105.537L129.176 105.371L130.463 103.261C133.438 98.5774 136.096 94.1889 136.096 87.3952ZM93.7094 88.4712L108.584 103.346L130.547 81.361L127.551 78.3651L108.584 97.3748L96.7054 85.4752L93.7094 88.4712Z" fill="#286BAF"/>
<defs>
<filter id="filter0_d" x="0" y="0.173828" width="221" height="221" filterUnits="userSpaceOnUse" color-interpolation-filters="sRGB">
<feFlood flood-opacity="0" result="BackgroundImageFix"/>
<feColorMatrix in="SourceAlpha" type="matrix" values="0 0 0 0 0 0 0 0 0 0 0 0 0 0 0 0 0 0 127 0" result="hardAlpha"/>
<feOffset dy="10"/>
<feGaussianBlur stdDeviation="12.5"/>
<feComposite in2="hardAlpha" operator="out"/>
<feColorMatrix type="matrix" values="0 0 0 0 0 0 0 0 0 0 0 0 0 0 0 0 0 0 0.15 0"/>
<feBlend mode="normal" in2="BackgroundImageFix" result="effect1_dropShadow"/>
<feBlend mode="normal" in="SourceGraphic" in2="effect1_dropShadow" result="shape"/>
</filter>
<linearGradient id="paint0_linear" x1="42.2689" y1="166.806" x2="169.883" y2="39.1924" gradientUnits="userSpaceOnUse">
<stop stop-color="#004FD4"/>
<stop offset="0.32" stop-color="#3187E5"/>
<stop offset="0.63" stop-color="#5BB7F3"/>
<stop offset="0.87" stop-color="#75D5FC"/>
<stop offset="1" stop-color="#7FE0FF"/>
</linearGradient>
<linearGradient id="paint1_linear" x1="67.6987" y1="155.87" x2="154.26" y2="50.0496" gradientUnits="userSpaceOnUse">
<stop stop-color="#C6C8CC"/>
<stop offset="0.47" stop-color="#DBDDE1"/>
<stop offset="1" stop-color="#F7FAFF"/>
</linearGradient>
<linearGradient id="paint2_linear" x1="180.966" y1="93.6392" x2="42.0081" y2="107.535" gradientUnits="userSpaceOnUse">
<stop stop-color="#C6C8CC"/>
<stop offset="0.12" stop-color="#D0D3D7"/>
<stop offset="0.43" stop-color="#E6E8ED"/>
<stop offset="0.73" stop-color="#F3F6FA"/>
<stop offset="1" stop-color="#F7FAFF"/>
</linearGradient>
</defs>
</svg>
