<svg width="60" height="61" viewBox="0 0 60 61" fill="none" xmlns="http://www.w3.org/2000/svg">
<path d="M13.592 30.3421H45.3908V19.1146M29.5401 19.1881V41.5207M13.812 19.3103V41.643M50.919 13.3419C50.8806 14.4261 50.5239 15.475 49.8936 16.358C49.2633 17.241 48.387 17.9191 47.3741 18.3077C46.3612 18.6962 45.2565 18.7782 44.1974 18.5433C43.1382 18.3084 42.1714 17.7671 41.4178 16.9867C40.6641 16.2064 40.1568 15.2215 39.9588 14.1549C39.7609 13.0882 39.8814 11.9868 40.3049 10.988C40.7285 9.98921 41.4363 9.13711 42.3407 8.53789C43.2451 7.93866 44.306 7.6189 45.3908 7.61822C46.1421 7.61478 46.8863 7.76184 47.5798 8.05073C48.2733 8.33962 48.902 8.76442 49.4287 9.30019C49.9553 9.83597 50.3694 10.4718 50.6464 11.1701C50.9233 11.8685 51.0574 12.6153 51.0411 13.3664L50.919 13.3419ZM35.1906 47.4646C35.157 48.55 34.8044 49.6016 34.1769 50.4879C33.5494 51.3741 32.6748 52.056 31.6622 52.4483C30.6495 52.8405 29.5436 52.9258 28.4827 52.6936C27.4219 52.4613 26.4533 51.9217 25.6972 51.1422C24.9411 50.3627 24.4312 49.3778 24.2314 48.3104C24.0316 47.243 24.1506 46.1404 24.5736 45.1402C24.9966 44.14 25.7047 43.2866 26.6097 42.6864C27.5147 42.0862 28.5765 41.7658 29.6625 41.7652C31.1504 41.791 32.5675 42.4052 33.6036 43.4733C34.6397 44.5415 35.2103 45.9767 35.1906 47.4646ZM35.1906 13.4642C35.1522 14.5484 34.7956 15.5975 34.1653 16.4804C33.5349 17.3634 32.6589 18.0414 31.646 18.4299C30.6331 18.8185 29.5282 18.9004 28.469 18.6655C27.4099 18.4306 26.4434 17.8893 25.6897 17.109C24.936 16.3286 24.4284 15.3438 24.2305 14.2771C24.0326 13.2105 24.153 12.1092 24.5766 11.1104C25.0001 10.1116 25.7083 9.25953 26.6127 8.66031C27.517 8.06109 28.5776 7.74118 29.6625 7.7405C31.1376 7.76615 32.5436 8.37016 33.5776 9.42247C34.6116 10.4748 35.1908 11.8911 35.1906 13.3664V13.4642ZM19.3157 47.4646C19.282 48.5511 18.9288 49.6035 18.3002 50.4902C17.6715 51.377 16.7953 52.0588 15.7812 52.4504C14.7672 52.8419 13.6603 52.9259 12.5988 52.6916C11.5374 52.4574 10.5686 51.9153 9.81357 51.1334C9.05849 50.3515 8.55077 49.3643 8.35375 48.2953C8.15672 47.2263 8.27909 46.1229 8.70579 45.1232C9.13249 44.1235 9.84444 43.2717 10.7526 42.6744C11.6608 42.0772 12.725 41.7609 13.812 41.7652C15.2956 41.7974 16.7065 42.4144 17.7373 43.4818C18.7681 44.5493 19.3354 45.9808 19.3157 47.4646ZM19.3157 13.4642C19.2772 14.5494 18.9199 15.5993 18.2885 16.4828C17.6571 17.3663 16.7794 18.0442 15.7651 18.432C14.7508 18.8198 13.6449 18.9005 12.5851 18.6636C11.5253 18.4267 10.5588 17.8829 9.8061 17.1002C9.05344 16.3174 8.54801 15.3303 8.35285 14.262C8.1577 13.1938 8.2815 12.0917 8.70877 11.0934C9.13605 10.0951 9.84777 9.24465 10.7553 8.64837C11.6629 8.05208 12.7261 7.73637 13.812 7.7405C15.2828 7.77248 16.6826 8.3792 17.7113 9.43083C18.7401 10.4825 19.316 11.8953 19.3157 13.3664V13.4642Z" stroke="#2C7EC2" stroke-width="5.02259"/>
</svg>
