<svg xmlns="http://www.w3.org/2000/svg" viewBox="0 0 85.9 85.9"><g fill="#252d40"><path d="M43 0C19.2 0 0 19.2 0 43s19.2 43 43 43 43-19.2 43-43S66.7 0 43 0z" opacity=".082"/><path d="M43 6.4C22.8 6.4 6.4 22.8 6.4 43c0 20.2 16.4 36.5 36.5 36.5 20.2 0 36.5-16.4 36.5-36.5C79.5 22.8 63.1 6.4 43 6.4z" opacity=".235"/><path d="M43 13.9c-16 0-29 13-29 29s13 29 29 29 29-13 29-29-13-29-29-29z"/></g><path d="M34.8 51.3l18-18m-18 0l18 18" fill="#fff" stroke="#fff" stroke-width="3" stroke-linecap="round"/></svg>