<svg xmlns="http://www.w3.org/2000/svg" width="49.358" height="60.232"><defs><clipPath id="a"><path data-name="Path 5425" d="M0 12.458h49.358v-60.232H0z" transform="translate(0 47.774)" fill="none"/></clipPath></defs><g data-name="04-data-icon"><g data-name="Group 2818"><path data-name="Path 5421" d="M9.201 33.297l7.9-7.926 7.652 7.3 10.948-10.136" fill="none" stroke="#fff" stroke-linecap="round" stroke-linejoin="round"/></g><g data-name="Group 2819"><path data-name="Path 5422" d="M37.572 26.289l2.382-7.69-7.847 1.783z" fill="#fff"/></g><path data-name="Path 5423" d="M19.082 50.448H8.089v-4.816h10.993zm10.991 0H19.08v-8.572h10.993zm10.993 0H30.073V35.575h10.993z" fill="none" stroke="#fff" stroke-linecap="round" stroke-linejoin="round" stroke-miterlimit="10"/><g data-name="Group 2821"><g data-name="Group 2820" clip-path="url(#a)"><path data-name="Path 5424" d="M47.519.631h-27.97L.631 16.194v43.409h46.888a1.207 1.207 0 001.21-1.208V1.841a1.21 1.21 0 00-1.21-1.21m-27.97 0V17.46H.631" fill="none" stroke="#fff" stroke-linecap="round" stroke-linejoin="round" stroke-miterlimit="10"/></g></g></g></svg>