<svg xmlns="http://www.w3.org/2000/svg" width="50.469" height="66.183"><defs><clipPath id="a"><path data-name="Path 5420" d="M0 14.441h50.469v-66.182H0z" transform="translate(0 51.741)" fill="none"/></clipPath></defs><g data-name="04-half-icon"><g data-name="Group 2816" clip-path="url(#a)"><path data-name="Path 5419" d="M20.495 5.18a4.746 4.746 0 019.478-.082m4.852 3.9h12.037a2.969 2.969 0 012.969 2.969v50.607a2.967 2.967 0 01-2.969 2.968H3.608a2.967 2.967 0 01-2.969-2.968V11.968a2.969 2.969 0 012.969-2.969h12.034m25.7 29.551a16.109 16.109 0 11-16.108-16.109A16.109 16.109 0 0141.343 38.55zm-5-11.108L25.234 38.55l13.953 4.753M25.234 38.55l9.721 11.587M33.8 13.004H16.668a1.025 1.025 0 01-1.026-1.025V6.213a1.025 1.025 0 011.026-1.024H33.8a1.025 1.025 0 011.025 1.025v5.765a1.025 1.025 0 01-1.025 1.025z" fill="none" stroke="#fff" stroke-linecap="round" stroke-linejoin="round"/></g></g></svg>