<svg xmlns="http://www.w3.org/2000/svg" xmlns:xlink="http://www.w3.org/1999/xlink" width="111.019" height="109.632"><defs><linearGradient id="a" y1="1.502" x2="1.001" y2="1.502" gradientUnits="objectBoundingBox"><stop offset="0" stop-color="#b83325"/><stop offset="1" stop-color="#ef412b"/></linearGradient><linearGradient id="b" x1=".001" y1="1.502" x2="1" y2="1.502" xlink:href="#a"/><linearGradient id="c" x1="0" y1="1.741" x2="1" y2="1.741" xlink:href="#a"/><linearGradient id="d" x1="0" y1="-.037" x2="1" y2="-.037" xlink:href="#a"/><linearGradient id="e" x1="0" y1="-.801" x2="1.002" y2="-.801" xlink:href="#a"/><linearGradient id="f" x1="0" y1="-1.401" x2="1" y2="-1.401" xlink:href="#a"/><linearGradient id="g" x1="0" y1="-2.371" x2="1.004" y2="-2.371" xlink:href="#a"/><linearGradient id="h" x1="0" y1=".011" x2="1" y2=".011" xlink:href="#a"/><linearGradient id="i" x1="0" y1="2.2" x2="1" y2="2.2" xlink:href="#a"/><linearGradient id="j" x1="0" y1="-.679" x2="1" y2="-.679" xlink:href="#a"/><linearGradient id="k" x1="0" y1="-1.369" x2="1" y2="-1.369" xlink:href="#a"/><linearGradient id="l" x1="0" y1="-2.035" x2="1" y2="-2.035" xlink:href="#a"/><linearGradient id="m" x1="0" y1="6.831" x2="1" y2="6.831" xlink:href="#a"/></defs><g data-name="07-hands-icon"><g data-name="Group 5858"><path data-name="Path 8559" d="M81.693 64.341a1.206 1.206 0 01-.861-2.052l4.825-4.906a27.655 27.655 0 10-39.1-39.122l-5.019 5.163a1.206 1.206 0 11-1.731-1.679l5.035-5.181A30.068 30.068 0 1187.374 59.08l-4.821 4.9a1.208 1.208 0 01-.86.361z" transform="translate(14.907 -7.821)" fill="url(#a)"/></g><g data-name="Group 5859"><path data-name="Path 8560" d="M20.166 64.342a1.2 1.2 0 01-.853-.354l-4.906-4.906a30.067 30.067 0 0142.51-42.531l5.183 5.182a1.206 1.206 0 01-1.705 1.705l-5.179-5.179a27.655 27.655 0 10-39.1 39.12l4.9 4.9a1.206 1.206 0 01-.853 2.059z" transform="translate(-5.665 -7.821)" fill="url(#b)"/></g><g data-name="Group 5860"><path data-name="Path 8561" d="M73.938 51.884a1.2 1.2 0 01-.852-.354L46.224 24.669a1.206 1.206 0 011.705-1.705l26.863 26.862a1.206 1.206 0 01-.854 2.059z" transform="translate(18.801 1.179)" fill="url(#c)"/></g><g data-name="Group 5861"><path data-name="Path 8562" d="M76.9 65.894a8.144 8.144 0 01-5.765-2.374l-18.9-18.82a1.206 1.206 0 111.7-1.708l18.9 18.818a5.77 5.77 0 008.126 0l.336-.336a5.8 5.8 0 000-8.141L69.171 41.209a1.206 1.206 0 111.705-1.709L83 51.632a8.229 8.229 0 010 11.544l-.341.343a8.152 8.152 0 01-5.759 2.375z" transform="translate(22.458 11.243)" fill="url(#d)"/></g><g data-name="Group 5862"><path data-name="Path 8563" d="M68.494 72.244a8.144 8.144 0 01-5.765-2.374L49.182 56.275a1.206 1.206 0 011.708-1.7l13.544 13.59a5.773 5.773 0 008.123 0l.336-.336a5.811 5.811 0 000-8.144L60.765 47.559a1.206 1.206 0 111.707-1.705L74.6 57.982a8.231 8.231 0 010 11.546l-.343.341a8.149 8.149 0 01-5.763 2.375z" transform="translate(20.602 15.107)" fill="url(#e)"/></g><g data-name="Group 5863"><path data-name="Path 8564" d="M62.162 79.185a8.171 8.171 0 01-5.768-2.363l-13.58-13.581a1.206 1.206 0 011.705-1.705L58.1 75.112a5.805 5.805 0 008.141 0l.336-.335a5.772 5.772 0 000-8.123l-13.522-13.68a1.206 1.206 0 111.715-1.7l13.513 13.677a8.19 8.19 0 010 11.528l-.343.339a8.179 8.179 0 01-5.778 2.367z" transform="translate(16.726 18.404)" fill="url(#f)"/></g><g data-name="Group 5864"><path data-name="Path 8565" d="M53.685 84.764a8.131 8.131 0 01-5.757-2.371l-8.044-8.044a1.206 1.206 0 111.705-1.707l8.044 8.042a5.767 5.767 0 008.121 0l.318-.333a5.743 5.743 0 00.019-8.139L45.962 60.066l1.707-1.707L59.8 70.5a8.155 8.155 0 010 11.533l-.318.335a8.186 8.186 0 01-5.797 2.396z" transform="translate(14.943 22.931)" fill="url(#g)"/></g><g data-name="Group 5865"><path data-name="Path 8566" d="M15.12 67.992a8.446 8.446 0 01-5.969-14.43l12.807-12.806a8.4 8.4 0 015.98-2.479 8.453 8.453 0 015.974 14.433L21.1 65.517a8.433 8.433 0 01-5.98 2.475zm12.823-27.3a6.008 6.008 0 00-4.275 1.773L10.856 55.269A6.04 6.04 0 1019.4 63.81L32.206 51a6.037 6.037 0 00-4.263-10.31z" transform="translate(-5.048 10.712)" fill="url(#h)"/></g><g data-name="Group 5866"><path data-name="Path 8567" d="M36.021 48.125a8.065 8.065 0 01-5.67-2.3l-.571-.571a8.082 8.082 0 010-11.353l17.36-17.3a1.206 1.206 0 011.7 1.708L31.485 35.6a5.661 5.661 0 000 7.948l.561.56A5.7 5.7 0 0040 44.1l20.314-20.134a1.207 1.207 0 011.7 1.715L41.7 45.819a8.079 8.079 0 01-5.679 2.306z" transform="translate(7.592 -2.691)" fill="url(#i)"/></g><g data-name="Group 5867"><path data-name="Path 8568" d="M21.5 74.365a8.452 8.452 0 01-5.969-14.433L28.34 47.126a8.4 8.4 0 015.98-2.48 8.383 8.383 0 015.98 2.474 8.456 8.456 0 010 11.958L27.488 71.886a8.408 8.408 0 01-5.98 2.479zm12.825-27.306a6 6 0 00-4.275 1.773L17.24 61.638a6.037 6.037 0 004.26 10.314 6.014 6.014 0 004.275-1.771l12.813-12.809a6.046 6.046 0 00.006-8.548 5.994 5.994 0 00-4.269-1.765z" transform="translate(-1.168 14.587)" fill="url(#j)"/></g><g data-name="Group 5868"><path data-name="Path 8569" d="M27.863 80.736a8.447 8.447 0 01-5.969-14.43L34.7 53.5a8.4 8.4 0 015.98-2.48 8.388 8.388 0 015.98 2.48 8.456 8.456 0 010 11.958L33.849 78.261a8.439 8.439 0 01-5.986 2.475zm12.823-27.3a6.015 6.015 0 00-4.277 1.773L23.6 68.013a6.04 6.04 0 108.541 8.543l12.808-12.807a6.044 6.044 0 000-8.548 5.989 5.989 0 00-4.263-1.767z" transform="translate(2.706 18.466)" fill="url(#k)"/></g><g data-name="Group 5869"><path data-name="Path 8570" d="M34.228 87.331A8.029 8.029 0 0128.554 85l-.6-.717a8.049 8.049 0 01.076-11.266l13.388-13.382a8.129 8.129 0 0111.348-.008l.619.619a8.127 8.127 0 01.008 11.348l-3.385 3.386a1.191 1.191 0 01-.262.2L39.906 85a8.04 8.04 0 01-5.678 2.331zm12.87-27.6a5.655 5.655 0 00-3.981 1.62L29.741 74.724a5.658 5.658 0 000 7.948l.59.711a5.647 5.647 0 007.869-.09l10-9.987a1.234 1.234 0 01.262-.2L51.68 69.9a5.7 5.7 0 00-.008-7.954l-.6-.6a5.647 5.647 0 00-3.972-1.618z" transform="translate(6.524 22.3)" fill="url(#l)"/></g><g data-name="Group 5870"><path data-name="Path 8571" d="M61.928 30.586A16.415 16.415 0 0158 30.108a16.217 16.217 0 01-10.071-7.4A1.207 1.207 0 1150 21.461a13.913 13.913 0 0019.109 4.692 1.207 1.207 0 111.251 2.064 16.219 16.219 0 01-8.432 2.369z" transform="translate(19.951 .125)" fill="url(#m)"/></g></g></svg>