<svg data-name="07-paper-icon" xmlns="http://www.w3.org/2000/svg" xmlns:xlink="http://www.w3.org/1999/xlink" width="105.835" height="94.453"><defs><linearGradient id="a" x1="-.003" y1=".588" x2=".997" y2=".588" gradientUnits="objectBoundingBox"><stop offset="0" stop-color="#b83325"/><stop offset="1" stop-color="#ef412b"/></linearGradient><linearGradient id="b" x1="0" y1="5.72" x2="1.001" y2="5.72" xlink:href="#a"/><linearGradient id="c" x1=".006" y1="5.72" x2="1.006" y2="5.72" xlink:href="#a"/><linearGradient id="d" x1="-.004" y1="-3.984" x2=".996" y2="-3.984" xlink:href="#a"/><linearGradient id="e" x1="0" y1="-3.984" x2="1" y2="-3.984" xlink:href="#a"/><linearGradient id="f" x1="0" y1="5.72" x2="1" y2="5.72" xlink:href="#a"/><linearGradient id="g" x1="-.003" y1="4.296" x2="1.003" y2="4.296" xlink:href="#a"/><linearGradient id="h" x1="-.003" y1=".394" x2="1.003" y2=".394" xlink:href="#a"/><linearGradient id="i" x1="0" y1="-20.826" x2="1" y2="-20.826" xlink:href="#a"/><linearGradient id="j" x1="0" y1="-30.494" x2="1" y2="-30.494" xlink:href="#a"/><linearGradient id="k" x1="0" y1="16.82" x2="1" y2="16.82" xlink:href="#a"/><linearGradient id="l" x1="0" y1="11.437" x2="1" y2="11.437" xlink:href="#a"/><linearGradient id="m" x1="0" y1="6.043" x2="1" y2="6.043" xlink:href="#a"/><linearGradient id="n" x1="0" y1="1.277" x2="1.001" y2="1.277" xlink:href="#a"/><linearGradient id="o" x1="0" y1="-2.179" x2=".997" y2="-2.179" xlink:href="#a"/><linearGradient id="p" x1="0" y1="-.507" x2="1" y2="-.507" xlink:href="#a"/><linearGradient id="q" x1="-.003" y1="-1.297" x2=".998" y2="-1.297" xlink:href="#a"/></defs><g data-name="Group 5920"><g data-name="Group 5902"><path data-name="Path 8601" d="M21.838 87.411a1.383 1.383 0 01-1.383-1.383v-64.94a1.383 1.383 0 112.766 0v64.94a1.383 1.383 0 01-1.383 1.383z" transform="translate(-.347 -6.331)" fill="url(#a)"/></g><g data-name="Group 5903"><path data-name="Path 8602" d="M21.838 27.385A1.384 1.384 0 0120.455 26c0-8.136 5.123-14.757 11.421-14.757a1.383 1.383 0 110 2.766c-4.772 0-8.655 5.379-8.655 11.99a1.384 1.384 0 01-1.383 1.386z" transform="translate(-.347 -11.245)" fill="url(#b)"/></g><g data-name="Group 5904"><path data-name="Path 8603" d="M38.2 27.385A1.384 1.384 0 0136.819 26c0-6.611-3.889-11.99-8.671-11.99a1.383 1.383 0 010-2.766c6.306 0 11.437 6.62 11.437 14.757a1.384 1.384 0 01-1.385 1.384z" transform="translate(3.318 -11.245)" fill="url(#c)"/></g><g data-name="Group 5905"><path data-name="Path 8604" d="M15.508 76.925a1.383 1.383 0 110-2.766c4.78 0 8.671-5.378 8.671-11.99a1.383 1.383 0 012.766 0c0 8.137-5.131 14.756-11.437 14.756z" transform="translate(-4.024 17.528)" fill="url(#d)"/></g><g data-name="Group 5906"><path data-name="Path 8605" d="M57.308 76.925a1.383 1.383 0 110-2.766c4.78 0 8.671-5.378 8.671-11.99a1.383 1.383 0 012.766 0c0 8.137-5.131 14.756-11.437 14.756z" transform="translate(20.254 17.528)" fill="url(#e)"/></g><g data-name="Group 5907"><path data-name="Path 8606" d="M19.172 76.925c-6.307 0-11.437-6.619-11.437-14.757a1.383 1.383 0 012.766 0c0 6.613 3.89 11.99 8.671 11.99a1.383 1.383 0 110 2.766z" transform="translate(-7.735 17.528)" fill="url(#e)"/></g><g data-name="Group 5908"><path data-name="Path 8607" d="M102.494 27.385H38.179a1.383 1.383 0 010-2.766h61.49c-.5-5.963-4.169-10.607-8.612-10.607H28.188a1.383 1.383 0 010-2.766h62.869c6.306 0 11.437 6.62 11.437 14.757z" transform="translate(3.341 -11.245)" fill="url(#f)"/></g><g data-name="Group 5909"><path data-name="Path 8608" d="M63.668 35.165a1.383 1.383 0 01-1.383-1.383V21.388a1.383 1.383 0 112.766 0v12.394a1.382 1.382 0 01-1.383 1.383z" transform="translate(23.948 -6.157)" fill="url(#g)"/></g><g data-name="Group 5910"><path data-name="Path 8609" d="M63.668 83.055a1.383 1.383 0 01-1.383-1.383V28.588a1.383 1.383 0 012.766 0v53.084a1.382 1.382 0 01-1.383 1.383z" transform="translate(23.948 -1.975)" fill="url(#h)"/></g><g data-name="Group 5911"><path data-name="Path 8610" d="M29.226 63.551H9.118a1.383 1.383 0 110-2.766h20.108a1.383 1.383 0 010 2.766z" transform="translate(-7.735 17.528)" fill="url(#i)"/></g><g data-name="Group 5912"><path data-name="Path 8611" d="M81.6 72.011H15.478a1.383 1.383 0 110-2.766H81.6a1.383 1.383 0 010 2.766z" transform="translate(-4.041 22.442)" fill="url(#j)"/></g><g data-name="Group 5913"><path data-name="Path 8612" d="M55.68 30.611H29.328a1.383 1.383 0 110-2.766H55.68a1.383 1.383 0 110 2.766z" transform="translate(4.003 -1.604)" fill="url(#k)"/></g><g data-name="Group 5914"><path data-name="Path 8613" d="M55.68 35.321H29.328a1.383 1.383 0 110-2.766H55.68a1.383 1.383 0 010 2.766z" transform="translate(4.003 1.132)" fill="url(#l)"/></g><g data-name="Group 5915"><path data-name="Path 8614" d="M42.5 40.041H29.328a1.383 1.383 0 110-2.766H42.5a1.383 1.383 0 110 2.766z" transform="translate(4.003 3.873)" fill="url(#m)"/></g><g data-name="Group 5916"><path data-name="Path 8615" d="M51.334 47.993a5.7 5.7 0 115.7-5.7 5.7 5.7 0 01-5.7 5.7zm0-8.631a2.932 2.932 0 102.932 2.932 2.935 2.935 0 00-2.932-2.933z" transform="translate(14.277 3.478)" fill="url(#n)"/></g><g data-name="Group 5917"><path data-name="Path 8616" d="M58.063 68.015h-.051a3.158 3.158 0 01-3.1-3.048l-1.227-6.729a1.382 1.382 0 012.719-.5l1.274 6.979v.136a.384.384 0 00.109.275.425.425 0 00.277.117.386.386 0 00.387-.381l-.046-.373-.234-8.067a2.369 2.369 0 00-.726-1.333 7.852 7.852 0 00-1.544-.315l-2.5-.354a1.383 1.383 0 01.389-2.738l2.45.346a10.584 10.584 0 012.343.52l.4.213a5.13 5.13 0 011.934 3.337l.014.158.232 8.035a3.071 3.071 0 01.051.626 3.152 3.152 0 01-3.151 3.1z" transform="translate(18.094 12.238)" fill="url(#o)"/></g><g data-name="Group 5918"><path data-name="Path 8617" d="M58.682 64.386h-.058l-11.184-.46-1.516-14.4a5.852 5.852 0 014.633-6.355l.089-.09h.579a5.8 5.8 0 016.271 5.171l1.152 9.66a1.383 1.383 0 11-2.747.327l-1.154-9.675a3.066 3.066 0 00-3.312-2.73l-.057.006a3.079 3.079 0 00-2.7 3.389L49.94 61.26l8.8.362a1.383 1.383 0 01-.057 2.765z" transform="translate(14.424 7.224)" fill="url(#p)"/></g><g data-name="Group 5919"><path data-name="Path 8618" d="M50.3 74.209a12.738 12.738 0 01-3.9-24.858 1.384 1.384 0 11.849 2.634 9.966 9.966 0 1011.9 14.1A1.383 1.383 0 1161.6 67.37a12.778 12.778 0 01-11.3 6.839z" transform="translate(9.599 10.849)" fill="url(#q)"/></g></g></svg>