<svg xmlns="http://www.w3.org/2000/svg" xmlns:xlink="http://www.w3.org/1999/xlink" width="121.229" height="112.173"><defs><linearGradient id="a" x1=".153" y1="-8.752" x2=".847" y2="-8.752" gradientUnits="objectBoundingBox"><stop offset="0" stop-color="#31419a"/><stop offset="1" stop-color="#962580"/></linearGradient><linearGradient id="b" x1="-4.159" y1="-1.337" x2="5.159" y2="-1.337" xlink:href="#a"/><linearGradient id="c" x1="-.001" y1="6.199" x2="1.001" y2="6.199" xlink:href="#a"/><linearGradient id="d" x1="-5.008" y1="1.219" x2="6.008" y2="1.219" xlink:href="#a"/><linearGradient id="e" x1=".071" y1="-3.96" x2=".929" y2="-3.96" xlink:href="#a"/><linearGradient id="f" x1="-.824" y1="-.589" x2="1.824" y2="-.589" xlink:href="#a"/><linearGradient id="g" x1="-9.042" y1="1.367" x2="10.042" y2="1.367" xlink:href="#a"/><linearGradient id="h" x1="-1.168" y1="2.459" x2="2.168" y2="2.459" xlink:href="#a"/><linearGradient id="i" x1=".311" y1="9.715" x2=".689" y2="9.715" xlink:href="#a"/><linearGradient id="j" x1=".001" y1="3.35" x2="1" y2="3.35" xlink:href="#a"/><linearGradient id="k" x1=".003" y1="2.207" x2=".997" y2="2.207" xlink:href="#a"/><linearGradient id="l" x1="0" y1="-3.961" x2="1" y2="-3.961" xlink:href="#a"/><linearGradient id="m" x1=".003" y1="-7.026" x2=".997" y2="-7.026" xlink:href="#a"/><linearGradient id="n" x1="0" y1="7.06" x2="1" y2="7.06" xlink:href="#a"/><linearGradient id="o" x1="-.004" y1="6.717" x2=".996" y2="6.717" xlink:href="#a"/><linearGradient id="p" x1="0" y1="3.85" x2="1" y2="3.85" xlink:href="#a"/><linearGradient id="q" x1=".003" y1="2.838" x2=".997" y2="2.838" xlink:href="#a"/><linearGradient id="r" x1="0" y1="-1.611" x2="1" y2="-1.611" xlink:href="#a"/><linearGradient id="s" x1=".003" y1="-4.057" x2=".997" y2="-4.057" xlink:href="#a"/><linearGradient id="t" x1="0" y1="1.156" x2="1" y2="1.156" xlink:href="#a"/></defs><g data-name="07-people-icon"><g data-name="Group 5921"><g data-name="Group 5921"><path data-name="Rectangle 2018" transform="rotate(-49.38 130.597 -28.474)" fill="url(#a)" d="M0 0h48.158v2.709H0z"/></g><g data-name="Group 5922"><path data-name="Rectangle 2019" transform="rotate(-61.13 83.336 11.507)" fill="url(#b)" d="M0 0h2.711v27.345H0z"/></g><g data-name="Group 5923"><path data-name="Rectangle 2020" transform="rotate(-5.978 530.75 -580.334)" fill="url(#c)" d="M0 0h37.101v2.71H0z"/></g><g data-name="Group 5924"><path data-name="Rectangle 2021" transform="rotate(-75.23 39.871 9.836)" fill="url(#d)" d="M0 0h2.709v30.148H0z"/></g><g data-name="Group 5925"><path data-name="Rectangle 2022" transform="rotate(-38.258 119.012 -10.433)" fill="url(#e)" d="M0 0h23.315v2.709H0z"/></g><g data-name="Group 5926"><path data-name="Rectangle 2023" transform="rotate(-9.389 398.813 -311.575)" fill="url(#f)" d="M0 0h2.709v27.568H0z"/></g><g data-name="Group 5927"><path data-name="Rectangle 2024" transform="rotate(-66.67 45.269 -26.257)" fill="url(#g)" d="M0 0h2.71v55.14H0z"/></g><g data-name="Group 5928"><path data-name="Rectangle 2025" transform="rotate(-15.63 113.378 -156.57)" fill="url(#h)" d="M0 0h2.709v23.821H0z"/></g><g data-name="Group 5929"><path data-name="Rectangle 2026" transform="rotate(-71.1 61.422 15.552)" fill="url(#i)" d="M0 0h47.107v2.709H0z"/></g><g data-name="Group 5930"><path data-name="Path 8619" d="M72.008 41.966a7.838 7.838 0 117.838-7.838 7.847 7.847 0 01-7.838 7.838zm0-12.967a5.129 5.129 0 105.129 5.129A5.135 5.135 0 0072.008 29z" transform="translate(37.676 2.787)" fill="url(#j)"/></g><g data-name="Group 5931"><path data-name="Path 8620" d="M85.2 46.112H62.128l.06-1.412a11.486 11.486 0 0122.951 0zM65.068 43.4h17.188a8.843 8.843 0 00-8.221-6.988 8.731 8.731 0 00-8.967 6.988z" transform="translate(36.03 8.756)" fill="url(#k)"/></g><g data-name="Group 5932"><path data-name="Path 8621" d="M46.288 73.7a7.838 7.838 0 117.838-7.838 7.847 7.847 0 01-7.838 7.838zm0-12.967a5.129 5.129 0 105.129 5.129 5.135 5.135 0 00-5.129-5.133z" transform="translate(16.945 28.363)" fill="url(#l)"/></g><g data-name="Group 5933"><path data-name="Path 8622" d="M59.48 77.84H36.408l.058-1.411a11.487 11.487 0 0122.953 0zm-20.132-2.709h17.19a8.778 8.778 0 00-17.19 0z" transform="translate(15.299 34.333)" fill="url(#m)"/></g><g data-name="Group 5934"><path data-name="Path 8623" d="M38.048 25.866a7.838 7.838 0 117.838-7.838 7.847 7.847 0 01-7.838 7.838zm0-12.967a5.129 5.129 0 105.129 5.129 5.135 5.135 0 00-5.129-5.128z" transform="translate(10.303 -10.19)" fill="url(#n)"/></g><g data-name="Group 5935"><path data-name="Path 8624" d="M51.187 30.2H28.25v-1.352a11.468 11.468 0 0122.937 0zm-20.123-2.706h17.309a8.76 8.76 0 00-17.309 0z" transform="translate(8.723 -4.395)" fill="url(#o)"/></g><g data-name="Group 5936"><path data-name="Path 8625" d="M17.658 39.8a7.838 7.838 0 117.842-7.842 7.847 7.847 0 01-7.842 7.842zm0-12.967a5.129 5.129 0 105.129 5.129 5.135 5.135 0 00-5.129-5.133z" transform="translate(-6.132 1.038)" fill="url(#p)"/></g><g data-name="Group 5937"><path data-name="Path 8626" d="M30.848 43.941H7.778l.06-1.412a11.487 11.487 0 0122.953 0zm-20.13-2.709h17.188a8.777 8.777 0 00-17.188 0z" transform="translate(-7.778 7.007)" fill="url(#q)"/></g><g data-name="Group 5938"><path data-name="Path 8627" d="M26.318 63.5a7.838 7.838 0 117.838-7.838 7.847 7.847 0 01-7.838 7.838zm0-12.967a5.129 5.129 0 105.129 5.129 5.136 5.136 0 00-5.129-5.133z" transform="translate(.848 20.141)" fill="url(#r)"/></g><g data-name="Group 5939"><path data-name="Path 8628" d="M39.5 67.641H16.428l.058-1.412a11.487 11.487 0 0122.953 0zm-20.13-2.709h17.186a8.776 8.776 0 00-17.188 0z" transform="translate(-.806 26.111)" fill="url(#s)"/></g><g data-name="Group 5940"><path data-name="Path 8629" d="M42.794 51.937a8.254 8.254 0 118.254-8.254 8.263 8.263 0 01-8.254 8.254zm0-13.8a5.545 5.545 0 105.545 5.545 5.55 5.55 0 00-5.545-5.543z" transform="translate(13.793 10.155)" fill="url(#t)"/></g></g></g></svg>