<svg xmlns="http://www.w3.org/2000/svg" xmlns:xlink="http://www.w3.org/1999/xlink" width="103.655" height="80.353"><defs><linearGradient id="a" y1="26.913" x2="1" y2="26.913" gradientUnits="objectBoundingBox"><stop offset="0" stop-color="#31419a"/><stop offset="1" stop-color="#962580"/></linearGradient><linearGradient id="b" x1="0" y1="6.251" x2="1" y2="6.251" xlink:href="#a"/><linearGradient id="c" x1="0" y1="-29.7" x2="1" y2="-29.7" xlink:href="#a"/><linearGradient id="d" x1="0" y1=".422" x2="1" y2=".422" xlink:href="#a"/><linearGradient id="e" x1="0" y1=".592" x2="1" y2=".592" xlink:href="#a"/><linearGradient id="f" x1="0" y1="2.656" x2="1" y2="2.656" xlink:href="#a"/><linearGradient id="g" x1="0" y1="2.573" x2="1" y2="2.573" xlink:href="#a"/></defs><g data-name="07-scales-icon"><g data-name="Group 5892" transform="translate(12.564 13.194)"><path data-name="Path 8593" d="M91.347 24.732H15.726a1.146 1.146 0 010-2.292h75.621a1.146 1.146 0 010 2.292z" transform="translate(-14.58 -22.44)" fill="url(#a)"/><circle data-name="Ellipse 3047" cx="7.17" cy="7.17" r="7.17" transform="translate(31.787 -13.194)" fill="url(#b)"/></g><g data-name="Group 5893"><path data-name="Path 8594" d="M76.461 67.192H22.976a1.146 1.146 0 010-2.292h53.485a1.146 1.146 0 010 2.292z" transform="translate(1.81 13.161)" fill="url(#c)"/></g><g data-name="Group 5894"><path data-name="Rectangle 2017" transform="translate(50.375 15.012)" fill="url(#d)" d="M0 0h2.292v64.195H0z"/></g><g data-name="Group 5898"><path data-name="Path 8597" d="M28.636 58.423a22.316 22.316 0 01-22.274-21.69c-.009-.4-.009-.8 0-1.2l.029-1.117H50.9l.029 1.115a22.288 22.288 0 01-21.686 22.885c-.202.004-.405.007-.607.007zM8.654 36.712a20 20 0 0039.98 0z" transform="translate(-6.356 -2.924)" fill="url(#e)"/></g><g data-name="Group 5899"><path data-name="Path 8598" d="M39.962 42.374l-13.7-15.469-13.688 15.469-1.716-1.519 15.4-17.407 15.419 17.408z" transform="translate(-3.979 -8.714)" fill="url(#f)"/></g><g data-name="Group 5900"><path data-name="Path 8599" d="M67.307 58.423a22.316 22.316 0 01-22.274-21.69q-.016-.6 0-1.2l.032-1.114h44.5l.029 1.115a22.315 22.315 0 01-21.679 22.882 30.99 30.99 0 01-.608.007zM47.324 36.712a20 20 0 0039.98 0z" transform="translate(14.05 -2.924)" fill="url(#e)"/></g><g data-name="Group 5901"><path data-name="Path 8600" d="M80.51 42.882L65.172 25.97 50.878 42.6l-1.737-1.493 15.986-18.6 17.081 18.835z" transform="translate(16.222 -9.211)" fill="url(#g)"/></g></g></svg>