<svg xmlns="http://www.w3.org/2000/svg" xmlns:xlink="http://www.w3.org/1999/xlink" width="232.108" height="162.985"><defs><linearGradient id="a" y1=".48" x2=".991" y2=".48" gradientUnits="objectBoundingBox"><stop offset="0" stop-color="#13496b"/><stop offset="1" stop-color="#3fad49"/></linearGradient><linearGradient id="b" x1="0" y1=".502" x2="1" y2=".502" xlink:href="#a"/><linearGradient id="c" x1="0" y1="10.677" x2="1" y2="10.677" xlink:href="#a"/><linearGradient id="d" x1="0" y1="4.609" x2=".996" y2="4.609" xlink:href="#a"/><linearGradient id="e" x1=".002" y1=".368" x2=".998" y2=".368" xlink:href="#a"/><linearGradient id="f" x1="0" y1="-.43" x2="1" y2="-.43" xlink:href="#a"/><linearGradient id="g" x1="0" y1="-5.668" x2="1" y2="-5.668" xlink:href="#a"/><linearGradient id="h" x1="0" y1="-2.944" x2="1.001" y2="-2.944" xlink:href="#a"/><linearGradient id="i" x1="0" y1="-1.323" x2="1" y2="-1.323" xlink:href="#a"/><linearGradient id="j" x1="0" y1=".602" x2="1" y2=".602" xlink:href="#a"/><linearGradient id="k" x1="0" y1="1.054" x2="1" y2="1.054" xlink:href="#a"/><linearGradient id="l" x1="0" y1="-.104" x2="1" y2="-.104" xlink:href="#a"/><linearGradient id="m" x1="0" y1="5.72" x2="1" y2="5.72" xlink:href="#a"/><linearGradient id="n" x1="0" y1="1.53" x2="1" y2="1.53" xlink:href="#a"/><linearGradient id="o" x1="0" y1="1.562" x2="1" y2="1.562" xlink:href="#a"/><linearGradient id="p" x1="0" y1="-3.867" x2="1" y2="-3.867" xlink:href="#a"/><linearGradient id="q" x1="0" y1="-4.377" x2="1" y2="-4.377" xlink:href="#a"/><linearGradient id="r" x1="0" y1="-31.468" x2="1" y2="-31.468" xlink:href="#a"/><linearGradient id="s" x1="0" y1="-5.795" x2="1" y2="-5.795" xlink:href="#a"/><linearGradient id="t" x1="0" y1="-10.507" x2="1" y2="-10.507" xlink:href="#a"/><linearGradient id="u" x1="0" y1="-8.294" x2="1" y2="-8.294" xlink:href="#a"/></defs><g data-name="07-shield-icon"><g data-name="Group 5871"><path data-name="Path 8572" d="M82.036 195.635h-.864a5.183 5.183 0 01-1.635-.4c-33.478-9.9-55.938-37.106-64.8-78.606a200.187 200.187 0 01-3.3-59.453 5.837 5.837 0 012.237-3.981 5.75 5.75 0 014.275-1.14 73.987 73.987 0 009.025.565h.191c27.258 0 47.4-15.386 51.172-18.476a6.241 6.241 0 013.978-1.495 5.719 5.719 0 013.764 1.414c.882.756 22.171 18.7 51.336 18.7h4.007l1.864-.124a1.37 1.37 0 011.421 1.129l7.406 2.544a1.35 1.35 0 11-.875 2.553l-9.908-3.4h-3.915c-30.155 0-52.178-18.567-53.1-19.358a2.957 2.957 0 00-2.015-.756 3.275 3.275 0 00-2.2.841c-5.517 4.527-25.466 19.129-52.924 19.129h-.205a76.866 76.866 0 01-9.366-.587 3.076 3.076 0 00-3.468 2.645 197.468 197.468 0 003.247 58.7c8.642 40.463 30.454 66.964 63.078 76.627a3.085 3.085 0 00.859.24l.72-.007a3.25 3.25 0 001.475-.357 1.384 1.384 0 01.239-.1 81.668 81.668 0 0037.023-22.727 1.35 1.35 0 011.974 1.844 84.377 84.377 0 01-38.131 23.446 5.969 5.969 0 01-2.585.59z" transform="translate(-10.554 -32.65)" fill="url(#a)"/></g><g data-name="Group 5872"><path data-name="Path 8573" d="M72.54 159.417h-.468c-.063 0-.288-.005-.351-.013a4.174 4.174 0 01-1.118-.321c-23.36-6.983-39.063-26.018-45.248-54.972a139.874 139.874 0 01-2.312-41.43 4.445 4.445 0 014.984-3.953 52.9 52.9 0 006.236.405 58.983 58.983 0 0035.455-12.761 4.5 4.5 0 015.9-.04 60.09 60.09 0 0020.958 10.855 1.352 1.352 0 11-.751 2.6A62.868 62.868 0 0173.892 48.41a1.826 1.826 0 00-2.424.018 61.76 61.76 0 01-37.187 13.407 55.619 55.619 0 01-6.581-.425 1.8 1.8 0 00-1.315.36 1.737 1.737 0 00-.65 1.179A137.192 137.192 0 0028 103.554c5.966 27.924 21.024 46.252 43.546 53a2.5 2.5 0 00.479.158h.519a1.7 1.7 0 00.8-.2 1.466 1.466 0 01.263-.108 56.638 56.638 0 0016.639-7.93 1.35 1.35 0 111.541 2.217 59.289 59.289 0 01-17.305 8.273 4.417 4.417 0 01-1.942.453z" transform="translate(-1.039 -22.561)" fill="url(#b)"/></g><g data-name="Group 5873"><path data-name="Path 8574" d="M81.042 54.406h-.077a1.355 1.355 0 01-1.273-1.424 9.868 9.868 0 0119.695-.167 1.351 1.351 0 11-2.694.2 7.167 7.167 0 00-14.3.122 1.35 1.35 0 01-1.351 1.269z" transform="translate(44.806 -23.83)" fill="url(#c)"/></g><g data-name="Group 5874"><path data-name="Path 8575" d="M122.322 69.605a1.351 1.351 0 01-1.351-1.351v-9.561a4.057 4.057 0 00-4.052-4.052H95.311a1.351 1.351 0 110-2.7h21.609a6.761 6.761 0 016.753 6.753v9.562a1.351 1.351 0 01-1.351 1.349z" transform="translate(56.233 -17.204)" fill="url(#d)"/></g><g data-name="Group 5875"><path data-name="Path 8576" d="M84.308 156.081H66.643a6.784 6.784 0 01-6.753-6.639v-90.8a6.76 6.76 0 016.753-6.753h21.609a1.351 1.351 0 110 2.7H66.643a4.055 4.055 0 00-4.052 4.052v90.775a4.067 4.067 0 004.052 3.962h17.665a1.351 1.351 0 110 2.7z" transform="translate(28.951 -17.244)" fill="url(#e)"/></g><g data-name="Group 5876"><path data-name="Path 8577" d="M133.817 136.829H74.051a1.351 1.351 0 010-2.7h59.767a4.071 4.071 0 004.052-3.985V77.171a1.351 1.351 0 012.7 0v53a6.79 6.79 0 01-6.753 6.658z" transform="translate(39.209 1.918)" fill="url(#f)"/></g><g data-name="Group 5877"><path data-name="Path 8578" d="M96.723 108.613H85.991a1.351 1.351 0 01-1.351-1.351V96.981a1.351 1.351 0 011.351-1.351h10.732a1.351 1.351 0 011.351 1.351v10.282a1.351 1.351 0 01-1.351 1.35zm-9.382-2.7h8.031v-7.582h-8.031z" transform="translate(48.77 17.781)" fill="url(#g)"/></g><g data-name="Group 5878"><path data-name="Path 8579" d="M102.767 112.153H91.981a1.351 1.351 0 01-1.351-1.353V92.561a1.351 1.351 0 011.351-1.351h10.786a1.351 1.351 0 011.351 1.351V110.8a1.351 1.351 0 01-1.351 1.353zm-9.436-2.7h8.085V93.911h-8.085z" transform="translate(53.566 14.241)" fill="url(#h)"/></g><g data-name="Group 5879"><path data-name="Path 8580" d="M108.271 117.484h-10.3a1.351 1.351 0 01-1.351-1.351V85.881a1.351 1.351 0 011.351-1.351h10.3a1.351 1.351 0 011.351 1.351v30.252a1.351 1.351 0 01-1.351 1.351zm-8.95-2.7h7.6V87.231h-7.6z" transform="translate(58.363 8.893)" fill="url(#i)"/></g><g data-name="Group 5880"><path data-name="Path 8581" d="M90.4 111.621a24.94 24.94 0 1124.94-24.94 24.967 24.967 0 01-24.94 24.94zm0-47.179a22.239 22.239 0 1022.239 22.238A22.264 22.264 0 0090.4 64.441z" transform="translate(33.411 -9.356)" fill="url(#j)"/></g><g data-name="Group 5881"><path data-name="Path 8582" d="M100.331 91.74a1.365 1.365 0 01-.436-.072L79.473 84.7a1.351 1.351 0 01-.519-2.233l16.263-16.261a1.35 1.35 0 011.909 1.909L82.4 82.843l18.371 6.268a1.351 1.351 0 01-.438 2.629z" transform="translate(43.901 -6.097)" fill="url(#k)"/></g><g data-name="Group 5882"><path data-name="Path 8583" d="M94.137 94.5a1.34 1.34 0 01-1.034-.483L78.876 77.058a1.35 1.35 0 112.069-1.736L95.17 92.284a1.352 1.352 0 01-1.034 2.22z" transform="translate(43.9 1.133)" fill="url(#l)"/></g><g data-name="Group 5883"><path data-name="Path 8584" d="M109.146 64.851H77.651a2.794 2.794 0 01-2.791-2.791V50.931a2.794 2.794 0 012.791-2.791h31.495a2.794 2.794 0 012.791 2.791V62.06a2.794 2.794 0 01-2.791 2.791zm-31.495-14.01a.091.091 0 00-.09.09V62.06l31.585.09.09-11.219z" transform="translate(40.938 -20.246)" fill="url(#m)"/></g><g data-name="Group 5884"><path data-name="Path 8585" d="M119.8 100.416h-4.124a1.351 1.351 0 01-1.336-1.16 22.93 22.93 0 01-.193-4.516V79.077c0-1.927 0-3.918.185-5.89a1.239 1.239 0 01.032-.182 6.572 6.572 0 011.45-2.813c.931-1.322 1.966-2.739 3-4.156 1.273-1.745 2.548-3.488 3.789-5.256a5.87 5.87 0 001.035-3.818c-.077-1.28-.05-2.472-.027-3.625.013-.565.023-1.131.023-1.7a4.755 4.755 0 016.238-4.651 7.8 7.8 0 013.592 2.555 15.663 15.663 0 012.936 11.968 192.679 192.679 0 00-.827 5.5h15.811a5.511 5.511 0 015.4 3.89 5.245 5.245 0 01-2.31 6.088 5.86 5.86 0 01-1.138 7.813 5.354 5.354 0 011.152 4.075 4.8 4.8 0 01-2.526 3.735 4.717 4.717 0 01.646 3.787 5.531 5.531 0 01-5.2 4.014zm-2.917-2.7h30.451a2.815 2.815 0 002.656-1.981 2.508 2.508 0 00-1.441-2.723 1.351 1.351 0 01.711-2.5c2.011 0 2.458-1.223 2.544-1.954a2.33 2.33 0 00-1.423-2.586 1.351 1.351 0 01-.009-2.624 3.18 3.18 0 001.963-1.471 3.169 3.169 0 00-1.129-4.336 1.349 1.349 0 01.646-2.514 2.562 2.562 0 00.71-.122 2.537 2.537 0 001.642-3.195 2.837 2.837 0 00-2.779-2h-17.4a1.348 1.348 0 01-1.338-1.532c.344-2.537.69-4.983 1.052-7.122a12.934 12.934 0 00-2.415-9.873 5.067 5.067 0 00-2.316-1.644 2.084 2.084 0 00-.7-.094 2.055 2.055 0 00-1.97 2.132c0 .646-.009 1.232-.022 1.815-.025 1.149-.049 2.235.022 3.378a8.564 8.564 0 01-1.52 5.557c-1.253 1.783-2.537 3.54-3.818 5.3a424.708 424.708 0 00-3.068 4.237 4.154 4.154 0 00-.917 1.675c-.166 1.815-.166 3.708-.166 5.537v15.74a21.231 21.231 0 00.033 2.899z" transform="translate(72.368 -21.364)" fill="url(#n)"/></g><g data-name="Group 5885"><path data-name="Path 8586" d="M123.176 89.2h-17.125a1.351 1.351 0 01-1.351-1.351V62.011a1.351 1.351 0 011.351-1.351h17.125a1.351 1.351 0 011.351 1.351v25.84a1.351 1.351 0 01-1.351 1.349zM107.4 86.5h14.424V63.361H107.4z" transform="translate(64.833 -10.221)" fill="url(#o)"/></g><g data-name="Group 5886"><path data-name="Path 8587" d="M134.463 106.266a7.563 7.563 0 117.563-7.563 7.571 7.571 0 01-7.563 7.563zm0-12.425a4.862 4.862 0 104.862 4.862 4.867 4.867 0 00-4.862-4.862z" transform="translate(82.609 14.185)" fill="url(#p)"/></g><g data-name="Group 5887"><path data-name="Path 8588" d="M125.759 117.122a1.35 1.35 0 01-1.2-1.963L133 98.538a1.351 1.351 0 012.409 1.225l-8.445 16.621a1.35 1.35 0 01-1.205.738z" transform="translate(80.615 19.519)" fill="url(#q)"/></g><g data-name="Group 5888"><path data-name="Path 8589" d="M127.848 112.085a1.35 1.35 0 01-.108-2.7l11.7-.954a1.35 1.35 0 01.22 2.69l-11.7.954a.472.472 0 01-.112.01z" transform="translate(82.29 28.031)" fill="url(#r)"/></g><g data-name="Group 5889"><path data-name="Path 8590" d="M138.887 111.878a1.354 1.354 0 01-1.2-.736l-5.834-11.415a1.351 1.351 0 012.406-1.232l5.834 11.417a1.35 1.35 0 01-1.2 1.966z" transform="translate(86.453 19.486)" fill="url(#s)"/></g><g data-name="Group 5890"><path data-name="Path 8591" d="M127.332 117.824a5.4 5.4 0 115.4-5.4 5.408 5.408 0 01-5.4 5.4zm0-8.1a2.7 2.7 0 102.7 2.7 2.7 2.7 0 00-2.7-2.703z" transform="translate(78.629 26.901)" fill="url(#t)"/></g><g data-name="Group 5891"><path data-name="Path 8592" d="M138.755 116.769a6.285 6.285 0 116.285-6.285 6.291 6.291 0 01-6.285 6.285zm0-9.868a3.583 3.583 0 103.583 3.583 3.587 3.587 0 00-3.583-3.584z" transform="translate(87.069 24.643)" fill="url(#u)"/></g></g></svg>