<svg xmlns="http://www.w3.org/2000/svg" width="98.625" height="98.625"><g data-name="08-coins-icon"><g data-name="Group 3079"><g data-name="Group 3075"><path data-name="Path 5533" d="M54.705 93.232a44.251 44.251 0 0038.528-49.313A44.25 44.25 0 0043.92 5.392 44.25 44.25 0 005.393 54.705a44.251 44.251 0 0049.313 38.528" fill="#edc231"/></g><g data-name="Group 3076"><path data-name="Path 5534" d="M50.721 58.312l.786 6.398c.74 6.035 7.823 10.129 15.821 9.147s13.88-6.668 13.14-12.703l-.786-6.398m-.04-.329c.74 6.033-5.144 11.72-13.14 12.701s-15.08-3.112-15.821-9.145m8.88 8.865l.774 6.313M49.311 46.829l.786 6.398c.74 6.033 7.823 10.127 15.821 9.145s13.881-6.666 13.14-12.7l-.785-6.399m-.04-.328c.74 6.034-5.143 11.72-13.14 12.702s-15.082-3.115-15.822-9.146m24.144 5.986l.775 6.311m-7.524-3.307l.775 6.312m-9.29-6.435l.775 6.311M47.884 35.205l.786 6.4c.74 6.032 7.824 10.131 15.822 9.15s13.88-6.674 13.14-12.707l-.786-6.399m-13.18 12.374c-7.999.982-15.081-3.112-15.822-9.145s5.14-11.721 13.139-12.703 15.08 3.112 15.821 9.147-5.142 11.719-13.139 12.7zm-2.748.218l.775 6.313m-8.95-8.402l.776 6.313M20.845 63.71l.674 5.489c.636 5.176 6.71 8.689 13.573 7.846s11.906-5.72 11.27-10.897l-.673-5.488M34.383 71.277c-6.86.842-12.936-2.67-13.572-7.846s4.408-10.053 11.271-10.896 12.937 2.669 13.572 7.845-4.41 10.054-11.27 10.897zm-2.355.188l.665 5.414m-7.678-7.206l.665 5.413" fill="none" stroke="#fff" stroke-linecap="round" stroke-linejoin="round" stroke-width="2"/></g></g></g></svg>