<svg xmlns="http://www.w3.org/2000/svg" width="88.499" height="88.499"><defs><clipPath id="a"><path data-name="Path 5546" d="M0 8.434h42.988v-51.883H0z" transform="translate(0 43.449)" fill="none"/></clipPath></defs><g data-name="08-document-icon"><g data-name="Group 3079"><g data-name="Group 3075"><path data-name="Path 5533" d="M44.25 88.499a44.251 44.251 0 0044.25-44.25A44.25 44.25 0 0044.25 0 44.25 44.25 0 000 44.25 44.251 44.251 0 0044.25 88.5" fill="#7fc3fa"/></g><g data-name="Group 3100"><g data-name="Group 3099" transform="translate(22.756 18.308)" clip-path="url(#a)"><g data-name="Group 3098"><path data-name="Path 5545" d="M7.889 0h-.062l-.02.007-.035.006-.031.008-.023.006-.032.017L7.67.05l-.031.017a.073.073 0 00-.017.008L7.583.1l-.009.005a.3.3 0 00-.031.023l-.008.006-.028.032L.162 7.512a.307.307 0 00-.039.039.539.539 0 00-.123.344v38.214a2.857 2.857 0 002.786 2.85v.072a2.856 2.856 0 002.85 2.852h29a2.857 2.857 0 002.852-2.852V29.689l2.11 2.111a1.988 1.988 0 002.809-2.807l-4.926-4.928V5.778a2.857 2.857 0 00-2.786-2.85v-.07A2.856 2.856 0 0031.847.006zm.545 1.089h23.417a1.747 1.747 0 011.763 1.763v17.542a2 2 0 00-1.48-.024.054.054 0 01-.017.006c-.017.007-.031.017-.047.024a.1.1 0 00-.032.017l-.039.016c-.023.008-.047.024-.07.032a.072.072 0 01-.024.008.064.064 0 00-.023.016L30.495 19.1a9.206 9.206 0 10-16.013-7.251H3.795a.544.544 0 00-.553.536.546.546 0 00.536.553h10.635a9.22 9.22 0 00.246 2.176H3.795a.545.545 0 00-.548.541.544.544 0 00.54.548h11.2a9.188 9.188 0 001.165 2.177H3.795a.544.544 0 00-.553.536.543.543 0 00.536.552h13.3a.155.155 0 00.031.032 9.214 9.214 0 0012.622.374l1.386 1.386c-.008.017-.017.024-.024.039a1.923 1.923 0 00-.144.358 2.013 2.013 0 00-.006 1.109.232.232 0 01.006.024.181.181 0 01.008.031c.006.024.017.039.024.063s.023.062.031.09c.017.031.024.062.039.088a.333.333 0 01.039.087c.008.017.017.031.024.048s.016.023.023.038a.419.419 0 00.056.082l.055.081a.512.512 0 00.062.079c.024.024.039.055.063.079a.659.659 0 01.063.07l2.177 2.177v20.3a1.747 1.747 0 01-1.763 1.764h-29a1.746 1.746 0 01-1.763-1.764V8.439h4.491a2.858 2.858 0 002.85-2.853zm-1.089.77v3.723a1.747 1.747 0 01-1.763 1.764h-3.72zm27.356 2.163a1.742 1.742 0 011.7 1.752v17.2l-1.7-1.7zm-11.094.843a8.122 8.122 0 015.8 13.808.556.556 0 00-.112.112 8.118 8.118 0 11-5.688-13.919zm5.377 4.459a.545.545 0 00-.377.164l-6.54 6.543-3.46-3.464a.545.545 0 00-.77.77l3.849 3.847a.545.545 0 00.77 0l6.926-6.926a.544.544 0 00.011-.77.549.549 0 00-.41-.164zm3.858 12a.9.9 0 01.636.27l6.429 6.429-1.269 1.277-1.309-1.309-1.132-1.132-1.655-1.659-.935-.938-1.4-1.4a.9.9 0 01-.232-.382.924.924 0 01-.039-.253.966.966 0 01.039-.254.88.88 0 01.232-.381.892.892 0 01.635-.27zm-29.054.325a.546.546 0 00-.549.54.544.544 0 00.539.549H17.65a.545.545 0 10.012-1.089H3.788zm0 3.266a.546.546 0 00-.558.53.544.544 0 00.531.555H17.65a.544.544 0 10.027-1.088H3.788zm21.84 1.476a.544.544 0 00-.092 1.084l.777.105c-.31.307-.628.609-.949.905q-1.3 1.191-2.7 2.257a36.869 36.869 0 01-5.992 3.7 36.773 36.773 0 01-6.643 2.508q-1.728.467-3.513.767a.545.545 0 00-.456.621.545.545 0 00.62.456h.016q1.836-.306 3.618-.789a37.921 37.921 0 006.84-2.582 38.092 38.092 0 006.168-3.823q1.444-1.094 2.779-2.323.433-.4.855-.813l-.1.724a.544.544 0 101.076.165v-.019l.264-1.956a.545.545 0 00-.124-.548.547.547 0 00-.385-.171h-.024l-1.98-.266a.286.286 0 00-.055-.006zm9.073.511l.725.725.972.972v20.426a1.747 1.747 0 01-1.763 1.764h-29a1.748 1.748 0 01-1.758-1.764v-.07h28.12a2.86 2.86 0 002.7-2.848zM3.788 28.175a.543.543 0 00-.547.541.543.543 0 00.54.548h13.87a.545.545 0 00.008-1.089H3.788zm36.891.617l.964.965a.9.9 0 11-1.272 1.272l-.964-.965zm-17.815 5.127a.542.542 0 00-.545.543v2.953h-4.7a.546.546 0 00-.546.545v1.786h-4.7a.541.541 0 00-.541.541v1.789H7.094a.526.526 0 00-.527.528v2.368a.526.526 0 00.527.528h21.013a.544.544 0 00.545-.545V34.463a.544.544 0 00-.545-.545h-5.243zm.545 1.088h4.153v9.4h-4.155v-9.4zm-5.241 3.5h4.151v5.9h-4.152zm-5.254 2.322h4.163v3.587h-4.163zm-5.293 2.3h4.21v1.314h-4.21z" fill="#fff"/></g></g></g></g></g></svg>