<svg xmlns="http://www.w3.org/2000/svg" width="88.499" height="88.499"><defs><clipPath id="a"><path data-name="Path 5542" d="M0 16.843h56.507v-60.289H0z" transform="translate(-1.88 41.491)" fill="none"/></clipPath></defs><g data-name="08-fist-icon"><g data-name="Group 3079"><g data-name="Group 3075"><path data-name="Path 5533" d="M44.25 88.499a44.251 44.251 0 0044.25-44.25A44.25 44.25 0 0044.25 0 44.25 44.25 0 000 44.25 44.251 44.251 0 0044.25 88.5" fill="#e09033"/></g><g data-name="Group 3094"><g data-name="Group 3093" transform="translate(19.25 17.003)" clip-path="url(#a)"><g data-name="Group 3089"><path data-name="Path 5538" d="M13.506 8.183V4.745A4.215 4.215 0 0117.721.532a4.215 4.215 0 014.214 4.214v12.531a4.215 4.215 0 01-7.73 2.325m7.291-16.9a4.6 4.6 0 012.509-.725 3.981 3.981 0 014.214 3.7v10.984a3.981 3.981 0 01-4.214 3.7 4.627 4.627 0 01-2.271-.582M11.34 3.598a4.6 4.6 0 00-2.509-.725 3.981 3.981 0 00-4.214 3.7v3.95m25.299-4.166a3.648 3.648 0 011.988-.576 3.156 3.156 0 013.342 2.932v8.719a3.156 3.156 0 01-3.341 2.93 3.67 3.67 0 01-1.8-.462m4.917 3.144v5.676a8.041 8.041 0 01-8.306 7.746m-13.94-.004H8.837a8.041 8.041 0 01-8.306-7.746V17.365a8.041 8.041 0 018.306-7.746m12.662 20.508a9.753 9.753 0 00-12.578-5.678m15.571 5.678a4.443 4.443 0 014.446-4.445M8.916 9.619h6.641a3.943 3.943 0 110 7.886H8.916m0 0v6.941M8.71 36.462v10.87m22.009-11.313v11.313m0-10.148c0 .8-1.791 1.442-4 1.442M14.205 19.602v-2.1" fill="none" stroke="#fff" stroke-linecap="round" stroke-linejoin="round" stroke-width="2"/></g><g data-name="Group 3090"><path data-name="Path 5539" d="M51.936 40.452a13.51 13.51 0 01-13.511 13.51 13.51 13.51 0 01-13.51-13.51 13.511 13.511 0 0113.51-13.511 13.511 13.511 0 0113.511 13.511" fill="#e09033"/></g><g data-name="Group 3091"><path data-name="Path 5540" d="M51.936 40.452a13.51 13.51 0 01-13.511 13.51 13.51 13.51 0 01-13.51-13.51 13.511 13.511 0 0113.51-13.511 13.511 13.511 0 0113.511 13.511z" fill="none" stroke="#fff" stroke-width="2"/></g><g data-name="Group 3092"><path data-name="Path 5541" d="M39.452 46.787v1.982h-1.769V46.84a8.376 8.376 0 01-4.406-1.416l.973-2.158a7.166 7.166 0 003.433 1.251v-2.95c-1.964-.478-4.159-1.133-4.159-3.662 0-1.875 1.363-3.486 4.159-3.8v-1.964h1.769v1.929a8 8 0 013.592 1.074l-.885 2.173a7.223 7.223 0 00-2.707-.919v3.008c1.964.46 4.123 1.115 4.123 3.61 0 1.84-1.345 3.433-4.123 3.769m-1.769-7.819v-2.513c-.939.213-1.309.725-1.309 1.309 0 .62.531.956 1.309 1.2m3.043 4.268c0-.62-.513-.956-1.274-1.22v2.442c.884-.196 1.274-.655 1.274-1.222" fill="#fff"/></g></g></g></g></g></svg>