<svg xmlns="http://www.w3.org/2000/svg" width="88.499" height="88.499"><defs><clipPath id="a"><path data-name="Path 5544" d="M0 18.1h66.138v-57.058H0z" transform="translate(-3.911 36.064)" fill="none"/></clipPath></defs><g data-name="08-money-hand-icon"><g data-name="Group 3079"><g data-name="Group 3075"><path data-name="Path 5533" d="M44.25 88.499a44.251 44.251 0 0044.25-44.25A44.25 44.25 0 0044.25 0 44.25 44.25 0 000 44.25 44.251 44.251 0 0044.25 88.5" fill="#c569f1"/></g><g data-name="Group 3097"><g data-name="Group 3096" transform="translate(17.125 18.627)" clip-path="url(#a)"><g data-name="Group 3095"><path data-name="Path 5543" d="M35.925 43.657c3.429.293 4.642-.773 6.526-1.7a16.354 16.354 0 012.337-1.008c2.618-1.018 4.862-.52 5.5.556a1.124 1.124 0 01-.245 1.467c-5.633 6.215-14.224 7.806-21.517 7.678a44.659 44.659 0 01-11.69-1.709 24.545 24.545 0 00-13.484-.311M.587 38.505c3.108-.8 9.876-4.7 10.93-5.189a6.537 6.537 0 013.393-.766c1.7.03 5.686.1 12.3 6.436a.483.483 0 01.075.089c1.047 1.566 4.924 1.328 6.202 1.248.218-.013.388-.024.5-.025a1.726 1.726 0 011.549.732 2.655 2.655 0 01.389 2.627c-.291.7-1.034 1.575-2.928 1.789a34.176 34.176 0 01-4.459.239c-3.441-.055-6.086-.779-7.891-2.155m15.314-1.964l6.8-2.868c1.771-.725 3.553-.329 4.059.9.205.5.139.606.139.606m-16.66.018l5.171-2.113a4.35 4.35 0 012.387-.3 3.379 3.379 0 012.132 1.576M24.915 20.104v3.612c0 3.406-3.659 6.167-8.174 6.167s-8.174-2.761-8.174-6.167v-3.612m0-.185c0 3.406 3.659 6.167 8.174 6.167s8.174-2.761 8.174-6.167m-4.333 5.536v3.563m4.333-15.4v3.612c0 3.407-3.659 6.168-8.174 6.168s-8.174-2.761-8.174-6.168v-3.611m0-.185c0 3.406 3.659 6.167 8.174 6.167s8.174-2.761 8.174-6.167m-13.019 4.977v3.562m3.956-2.343v3.562M24.915 7.06v3.612c0 3.406-3.659 6.167-8.174 6.167s-8.174-2.761-8.174-6.167V7.06m8.174 5.981c4.514 0 8.174-2.761 8.174-6.167S21.256.707 16.741.707 8.567 3.468 8.567 6.874s3.66 6.167 8.174 6.167zm1.543-.064v3.562m23.614 4.528v3.1c0 2.922-3.14 5.289-7.012 5.289s-7.011-2.369-7.011-5.29v-3.1m7.011 5.132c3.873 0 7.012-2.369 7.012-5.291s-3.14-5.289-7.012-5.289-7.011 2.368-7.011 5.289 3.139 5.291 7.011 5.291zm1.323-.057v3.057m3.778-4.532v3.056M32.564 9.93q-.371-.314-.747-.624a.41.41 0 01-.113-.612c.395-.662.781-1.329 1.155-2a.4.4 0 01.564-.2c.741.275 1.486.533 2.226.813a.316.316 0 00.406-.1q.454-.489.943-.942a.318.318 0 00.1-.409c-.276-.729-.529-1.467-.8-2.2a.42.42 0 01.217-.606c.667-.366 1.325-.75 1.977-1.139a.409.409 0 01.612.116c.5.612 1.017 1.21 1.519 1.821a.279.279 0 00.347.116c.452-.135.909-.262 1.371-.363.195-.042.224-.162.249-.31q.187-1.1.378-2.189c.084-.487.121-.518.608-.518.721 0 1.443.012 2.164-.005a.416.416 0 01.492.413c.12.76.267 1.517.392 2.276a.355.355 0 00.321.343c.434.093.862.214 1.285.349a.3.3 0 00.374-.114l1.5-1.8c.247-.293.318-.305.652-.113.651.374 1.294.762 1.953 1.121a.418.418 0 01.208.609c-.274.729-.527 1.467-.805 2.2a.316.316 0 00.1.406c.326.3.642.616.943.942a.314.314 0 00.408.095c.72-.274 1.444-.53 2.169-.792.372-.134.449-.107.645.232l1.11 1.926c.188.326.175.4-.12.651-.6.5-1.193 1.008-1.8 1.5a.3.3 0 00-.107.376 13.225 13.225 0 01.345 1.285.354.354 0 00.35.316c.759.126 1.515.27 2.276.391a.418.418 0 01.409.5c-.016.751-.018 1.5 0 2.253a.416.416 0 01-.414.491c-.751.122-1.5.267-2.247.391a.382.382 0 00-.379.356 7.685 7.685 0 01-.313 1.171.394.394 0 00.158.517c.577.464 1.14.947 1.707 1.425.306.257.32.337.125.675-.375.65-.76 1.294-1.121 1.953a.409.409 0 01-.585.209c-.741-.274-1.485-.535-2.223-.816a.3.3 0 00-.384.088c-.309.333-.631.655-.963.966a.3.3 0 00-.095.381c.274.72.531 1.446.795 2.168.141.388.113.467-.237.67-.642.371-1.289.73-1.922 1.114a.424.424 0 01-.637-.112c-.495-.605-1.006-1.2-1.5-1.8a.32.32 0 00-.4-.114c-.414.128-.833.249-1.258.337a.355.355 0 00-.325.339c-.129.77-.276 1.535-.4 2.3a.4.4 0 01-.48.391 62.84 62.84 0 00-1.44-.007m.35-7.507a6.73 6.73 0 006.655-6.689 6.719 6.719 0 00-6.794-6.724 6.692 6.692 0 00-6.1 4.122" fill="none" stroke="#fff" stroke-linecap="round" stroke-linejoin="round" stroke-width="2"/></g></g></g></g></g></svg>