<svg xmlns="http://www.w3.org/2000/svg" width="88.499" height="88.499"><defs><clipPath id="a"><path data-name="Path 5537" d="M0 13.407h51.932v-52.783H0z" transform="translate(0 39.376)" fill="none"/></clipPath></defs><g data-name="08-world-icon"><g data-name="Group 3079"><g data-name="Group 3075"><path data-name="Path 5533" d="M44.25 88.499a44.251 44.251 0 0044.25-44.25A44.25 44.25 0 0044.25 0 44.25 44.25 0 000 44.25 44.251 44.251 0 0044.25 88.5" fill="#9bc64b"/></g><g data-name="Group 3088"><g data-name="Group 3087" transform="translate(18.284 17.757)" clip-path="url(#a)"><g data-name="Group 3085"><path data-name="Path 5535" d="M47.671 8.509a4.266 4.266 0 00-4.264-4.26 4.266 4.266 0 00-4.26 4.26 4.266 4.266 0 004.26 4.26 4.266 4.266 0 004.26-4.26m-6.806 0a2.555 2.555 0 012.561-2.556 2.554 2.554 0 012.555 2.556 2.554 2.554 0 01-2.555 2.556 2.555 2.555 0 01-2.557-2.556" fill="#fff"/></g><g data-name="Group 3086"><path data-name="Path 5536" d="M51.932 8.509a8.507 8.507 0 00-16.991-.654 24.078 24.078 0 00-11.1-2.744A23.6 23.6 0 006.91 12.177 23.65 23.65 0 000 28.948a23.681 23.681 0 006.9 16.77 23.721 23.721 0 0016.941 7.065 23.64 23.64 0 0016.931-7.066 23.676 23.676 0 006.9-16.77 23.8 23.8 0 00-1.371-7.959c2.327-3.7 5.631-9.476 5.631-12.479m-8.52-6.805a6.816 6.816 0 016.806 6.806c0 2.93-4.416 10.193-6.806 13.8-2.4-3.617-6.806-10.869-6.806-13.8a6.816 6.816 0 016.806-6.806m-8.334 8.177a22.755 22.755 0 001.763 4.603c-.56.4-1.133.79-1.714 1.133a20.5 20.5 0 00-5.14-7.939 22.287 22.287 0 015.091 2.2m10.879 19.921a21.909 21.909 0 01-5.816 14.121 23.879 23.879 0 00-4.436-3.294 37.743 37.743 0 001.736-10.827zm-35.732 0a38.563 38.563 0 001.735 10.827 23.888 23.888 0 00-4.437 3.294 21.967 21.967 0 01-5.808-14.121zM22.984 6.867v11.836a22 22 0 01-8.977-2.276c2.005-5.393 5.257-9.06 8.977-9.559m0 13.55v7.678H11.929a37.385 37.385 0 011.527-10.028 23.935 23.935 0 009.528 2.349m0 9.382v7.689a23.609 23.609 0 00-9.517 2.338 37.366 37.366 0 01-1.538-10.027zm0 21.217c-3.72-.488-6.972-4.166-8.977-9.559a22.1 22.1 0 018.977-2.275zm1.7 0V39.183a21.839 21.839 0 018.977 2.275c-2.005 5.393-5.257 9.06-8.977 9.559m-12.143-8.769a20.372 20.372 0 005.165 7.969 22.007 22.007 0 01-8.979-5.1 23.17 23.17 0 013.814-2.869m22.589 0a22.53 22.53 0 013.811 2.866 22 22 0 01-8.977 5.1 20.364 20.364 0 005.166-7.966m-.925-2.421a23.647 23.647 0 00-9.517-2.338v-7.69h11.053a37.063 37.063 0 01-1.536 10.027m-9.517-11.731v-7.689a23.526 23.526 0 009.517-2.348 37.085 37.085 0 011.536 10.037zm0-9.393V6.867c3.72.489 6.972 4.157 8.968 9.55a21.834 21.834 0 01-8.968 2.286m-12.147-3.066a22.311 22.311 0 01-3.8-2.867 21.877 21.877 0 018.966-5.092 20.346 20.346 0 00-5.166 7.959m-5.008-1.651a23.887 23.887 0 004.437 3.294 37.774 37.774 0 00-1.736 10.816H1.725a21.958 21.958 0 015.808-14.11m38.408 14.109h-8.493a38.11 38.11 0 00-1.745-10.827c.654-.385 1.3-.8 1.922-1.247 2.067 3.875 5.787 9.31 5.787 9.31s1.205-1.756 1.693-2.493a21.823 21.823 0 01.836 5.257" fill="#fff"/></g></g></g></g></g></svg>