<svg xmlns="http://www.w3.org/2000/svg" width="279.103" height="139.868"><defs><clipPath id="a"><path data-name="Path 8794" d="M0 74.852h279.1V-65.017H0z" transform="translate(0 65.017)" fill="none"/></clipPath><clipPath id="b"><path data-name="Rectangle 2098" fill="none" d="M0 0h352.245v169.986H0z"/></clipPath></defs><g data-name="12-ambition-icon" transform="translate(0 -.001)" clip-path="url(#a)"><g data-name="Group 6212"><g data-name="Group 6211"><g data-name="Group 6210" clip-path="url(#b)" transform="translate(-36.571 -27.966)"><g data-name="Group 6203"><path data-name="Path 8787" d="M252.762 93.005l-84.919-63.692c-3.586-2.691-6.529-1.22-6.529 3.268v130.64c0 4.49 2.943 5.957 6.529 3.27l84.919-63.692c3.59-2.689 3.59-7.1 0-9.79" fill="#85c25e"/></g><g data-name="Group 6204"><path data-name="Path 8788" d="M312.981 93.005l-84.919-63.692c-3.593-2.691-6.531-1.22-6.531 3.268v22.454l57.157 42.864-57.157 42.868v22.453c0 4.49 2.939 5.957 6.531 3.27l84.919-63.691c3.59-2.689 3.59-7.1 0-9.79" fill="#289841"/></g><g data-name="Group 6205"><path data-name="Path 8789" d="M126.464 74.326c0 13.876-6.525 22.257-11.729 31.114-4.914 8.37-9.555 16.272-9.555 25.042v2.736H60.502v-2.736c0-8.45-4.546-16.487-9.876-24.669-5.7-8.749-12.441-17.612-12.441-31.488.869-24.225 20.329-43.657 44.136-43.657s43.274 19.432 44.143 43.658" fill="none" stroke="#bbe4c0" stroke-miterlimit="10" stroke-width="1.5"/></g><g data-name="Group 6206"><path data-name="Path 8790" d="M84.242 101.832l-1.123-.209a29.651 29.651 0 01-19.396-12.717 29.611 29.611 0 01-4.434-22.764l.232-1.119 1.121.209a29.656 29.656 0 0119.4 12.714 29.631 29.631 0 014.434 22.765z" fill="none" stroke="#289841" stroke-miterlimit="10"/></g><g data-name="Group 6207"><path data-name="Path 8791" d="M85.826 101.21l-.054-1.14a20.369 20.369 0 015.529-14.925 20.319 20.319 0 0114.545-6.46l1.14-.024.049 1.14a20.362 20.362 0 01-5.522 14.93 20.34 20.34 0 01-14.545 6.456z" fill="none" stroke="#289841" stroke-miterlimit="10"/></g><g data-name="Group 6208"><path data-name="Path 8792" d="M84.463 99.839a24.6 24.6 0 015.985 14.334 25.374 25.374 0 01-10.474 22.02" fill="none" stroke="#289841" stroke-miterlimit="10"/></g><g data-name="Group 6209"><path data-name="Path 8793" d="M107.086 131.165v10.378a24.237 24.237 0 11-48.474 0v-10.378z" fill="#59c480"/></g></g></g></g></g></svg>