<svg xmlns="http://www.w3.org/2000/svg" width="79.814" height="79.813"><defs><linearGradient id="a" x1="2.336" y1="4.052" x2="3.042" y2="4.758" gradientUnits="objectBoundingBox"><stop offset="0" stop-color="#fff"/><stop offset="1" stop-color="#ababac"/></linearGradient><linearGradient id="b" x1=".234" y1="1.607" x2=".94" y2="2.313" gradientUnits="objectBoundingBox"><stop offset="0" stop-color="#ebeeef"/><stop offset="1" stop-color="#f0f5f5"/></linearGradient><linearGradient id="c" x1="-.016" y1=".5" x2="1.66" y2=".5" gradientUnits="objectBoundingBox"><stop offset=".033" stop-color="#fff"/><stop offset=".089" stop-color="#fff" stop-opacity=".914"/><stop offset=".304" stop-color="#fff" stop-opacity=".592"/><stop offset=".496" stop-color="#fff" stop-opacity=".337"/><stop offset=".655" stop-color="#fff" stop-opacity=".157"/><stop offset=".777" stop-color="#fff" stop-opacity=".043"/><stop offset=".847" stop-color="#fff" stop-opacity="0"/></linearGradient><linearGradient id="d" x1=".5" y1=".096" x2=".5" y2="1.063" gradientUnits="objectBoundingBox"><stop offset=".301" stop-color="#fff"/><stop offset=".361" stop-color="#fff" stop-opacity=".965"/><stop offset=".456" stop-color="#fff" stop-opacity=".875"/><stop offset=".575" stop-color="#fff" stop-opacity=".725"/><stop offset=".713" stop-color="#fff" stop-opacity=".518"/><stop offset=".865" stop-color="#fff" stop-opacity=".259"/><stop offset="1" stop-color="#fff" stop-opacity="0"/></linearGradient><radialGradient id="e" cx=".5" cy=".5" r=".47" gradientTransform="matrix(1.141 0 0 1 -.07 0)" gradientUnits="objectBoundingBox"><stop offset="0" stop-color="#fff" stop-opacity="0"/><stop offset=".095" stop-color="#fff" stop-opacity=".075"/><stop offset=".286" stop-color="#fff" stop-opacity=".263"/><stop offset=".556" stop-color="#fff" stop-opacity=".565"/><stop offset=".893" stop-color="#fff" stop-opacity=".98"/><stop offset=".909" stop-color="#fff"/></radialGradient></defs><g data-name="12-covid-icon"><g data-name="Group 6362"><g data-name="Group 6361"><path data-name="Path 8836" d="M106.821 44.295A39.907 39.907 0 1166.914 4.388a39.908 39.908 0 0139.907 39.907z" fill="url(#a)" transform="translate(-27.007 -4.388)"/><path data-name="Path 8837" d="M66.914 5.606A38.69 38.69 0 10105.6 44.295 38.69 38.69 0 0066.914 5.606z" fill="url(#b)" transform="translate(-27.007 -4.388)"/></g></g><g data-name="Group 6368"><path data-name="Path 8838" d="M39.907 72.765A33.308 33.308 0 106.599 39.457a33.308 33.308 0 0033.308 33.308" fill="#248332"/><g data-name="Group 6363"><path data-name="Path 8839" d="M59.9 24.157a8.244 8.244 0 016.741.448c1.6.661 2.87 1.183 4.852.448v5.937c-1.982.734-3.252.213-4.852-.449a8.252 8.252 0 00-6.741-.448v-5.936" fill="url(#c)" transform="translate(-27.007 -4.388)"/><path data-name="Path 8840" d="M69.857 43.091c0-1.348-1.485-1.288-1.485-1.288a8.243 8.243 0 00-2.767-4.603 8.714 8.714 0 00-4.975-2.083h-.138a8.329 8.329 0 00-6.3 2.083 8.581 8.581 0 00-2.771 4.6 1.151 1.151 0 00-1.357 1.288h-5.01v14.56h10.138v-5.206h9.319v5.206h10.266V43.091z" fill="url(#d)" transform="translate(-27.007 -4.388)"/><path data-name="Line 20" fill="none" stroke="#707070" stroke-linecap="round" stroke-linejoin="round" stroke-width=".527" d="M32.897 19.563v11.524"/></g><g data-name="Group 6367"><g data-name="Group 6366"><g data-name="Group 6365"><g data-name="Group 6364"><path data-name="Path 8841" d="M90.78 45.16a.408.408 0 00-.153-.275.415.415 0 00-.3-.085 6.95 6.95 0 01-.84.051 7.966 7.966 0 01-4.78-1.75.4.4 0 00-.266-.1.421.421 0 00-.282.11 7.88 7.88 0 01-4.771 1.715 6.731 6.731 0 01-.84-.054.408.408 0 00-.457.357 18.2 18.2 0 00.3 5.394c.8 3.743 2.822 6.194 5.847 7.091a.485.485 0 00.1.027h.078a.406.406 0 00.192-.046c3.01-.89 5.032-3.325 5.848-7.048a18.191 18.191 0 00.326-5.394" fill="url(#e)" transform="translate(-27.007 -4.388)"/></g></g></g></g></g></g></svg>