<svg xmlns="http://www.w3.org/2000/svg" xmlns:xlink="http://www.w3.org/1999/xlink" width="79.814" height="79.813"><defs><linearGradient id="b" x1="2.336" y1="4.052" x2="3.042" y2="4.758" gradientUnits="objectBoundingBox"><stop offset="0" stop-color="#fff"/><stop offset="1" stop-color="#ababac"/></linearGradient><linearGradient id="c" x1=".234" y1="1.607" x2=".94" y2="2.313" gradientUnits="objectBoundingBox"><stop offset="0" stop-color="#ebeeef"/><stop offset="1" stop-color="#f0f5f5"/></linearGradient><linearGradient id="a" x1="-13.213" y1="21.144" x2="-12.568" y2="22.255" gradientUnits="objectBoundingBox"><stop offset=".301" stop-color="#fff"/><stop offset=".361" stop-color="#fff" stop-opacity=".965"/><stop offset=".456" stop-color="#fff" stop-opacity=".875"/><stop offset=".575" stop-color="#fff" stop-opacity=".725"/><stop offset=".713" stop-color="#fff" stop-opacity=".518"/><stop offset=".865" stop-color="#fff" stop-opacity=".259"/><stop offset="1" stop-color="#fff" stop-opacity="0"/></linearGradient><linearGradient id="d" x1="10.247" y1="265.583" x2="12.06" y2="282.016" xlink:href="#a"/><linearGradient id="e" x1="10.247" y1="263.814" x2="12.059" y2="280.24" xlink:href="#a"/><linearGradient id="f" y1=".5" x2="1" y2=".5" gradientUnits="objectBoundingBox"><stop offset=".02" stop-color="#fff"/><stop offset=".323" stop-color="#fff"/><stop offset=".381" stop-color="#fff" stop-opacity=".969"/><stop offset=".472" stop-color="#fff" stop-opacity=".878"/><stop offset=".586" stop-color="#fff" stop-opacity=".729"/><stop offset=".719" stop-color="#fff" stop-opacity=".525"/><stop offset=".864" stop-color="#fff" stop-opacity=".267"/><stop offset="1" stop-color="#fff" stop-opacity="0"/></linearGradient></defs><g data-name="12-gender-icon"><g data-name="Group 6370"><g data-name="Group 6369"><path data-name="Path 8842" d="M263.648 44.295a39.907 39.907 0 11-39.907-39.907 39.908 39.908 0 0139.907 39.907z" fill="url(#b)" transform="translate(-183.834 -4.388)"/><path data-name="Path 8843" d="M223.741 5.606a38.69 38.69 0 1038.689 38.689 38.69 38.69 0 00-38.689-38.689z" fill="url(#c)" transform="translate(-183.834 -4.388)"/></g></g><g data-name="Group 6376"><g data-name="Group 6373"><path data-name="Path 8846" d="M40.166 73.403A33.417 33.417 0 106.749 39.986a33.417 33.417 0 0033.417 33.417" fill="#248332"/></g><g data-name="Group 6374"><path data-name="Path 8847" d="M226.639 23.486h-7.315a.093.093 0 00-.093.093v2.431a.093.093 0 00.093.093h2.913L219 29.338a9.577 9.577 0 10-7.144 17.033v2.8h-2.885a.092.092 0 00-.094.092v2.607a.092.092 0 00.094.093h2.885v2.756a.093.093 0 00.093.093h2.6a.094.094 0 00.1-.093v-2.756h2.884a.092.092 0 00.093-.093v-2.606a.092.092 0 00-.093-.092h-2.884v-2.846a9.572 9.572 0 006.275-14.963l3.188-3.189v2.72a.094.094 0 00.1.093h2.43a.094.094 0 00.095-.093v-7.315a.094.094 0 00-.095-.093M213.1 43.925a7.052 7.052 0 117.052-7.052 7.059 7.059 0 01-7.052 7.052" fill="url(#a)" transform="translate(-183.834 -4.388)"/><path data-name="Path 8848" d="M217.4 33.978h-8.55a.089.089 0 00-.093.084v2.07a.088.088 0 00.093.085h8.55a.089.089 0 00.1-.085v-2.07a.09.09 0 00-.1-.084" fill="url(#d)" transform="translate(-183.834 -4.388)"/><path data-name="Path 8849" d="M217.4 37.676h-8.55a.09.09 0 00-.093.086v2.071a.088.088 0 00.093.083h8.55a.089.089 0 00.1-.083v-2.071a.091.091 0 00-.1-.086" fill="url(#e)" transform="translate(-183.834 -4.388)"/></g><g data-name="Group 6375"><path data-name="Path 8850" d="M236.431 61.453a20.664 20.664 0 007.086-8.7c1.114-2.714 2.384-10.4-4.014-12.852-3.525-1.349-8.168-1.261-11.3 3.431s-1.847 10.8-6.027 14.78c-2.03 1.931-5.585 3.815-8.339 3.3a.239.239 0 00-.2.43 14.657 14.657 0 007.332 3.2c5.916.734 11.089-.371 15.462-3.589z" fill="url(#f)" transform="translate(-183.834 -4.388)"/><path data-name="Path 8851" d="M62.545 28.862a9.027 9.027 0 00-5.669 3.484 8.254 8.254 0 00-1.314 2.985" fill="none" stroke="#707070" stroke-linecap="round" stroke-linejoin="round" stroke-width=".514"/></g></g></g></svg>