<svg xmlns="http://www.w3.org/2000/svg" xmlns:xlink="http://www.w3.org/1999/xlink" width="79.814" height="79.813"><defs><linearGradient id="b" x1="2.336" y1="4.052" x2="3.042" y2="4.758" gradientUnits="objectBoundingBox"><stop offset="0" stop-color="#fff"/><stop offset="1" stop-color="#ababac"/></linearGradient><linearGradient id="c" x1=".234" y1="1.607" x2=".94" y2="2.313" gradientUnits="objectBoundingBox"><stop offset="0" stop-color="#ebeeef"/><stop offset="1" stop-color="#f0f5f5"/></linearGradient><linearGradient id="a" x1=".514" y1="-.079" x2=".485" y2="1.115" gradientUnits="objectBoundingBox"><stop offset=".02" stop-color="#fff"/><stop offset=".323" stop-color="#fff"/><stop offset=".381" stop-color="#fff" stop-opacity=".969"/><stop offset=".472" stop-color="#fff" stop-opacity=".878"/><stop offset=".586" stop-color="#fff" stop-opacity=".729"/><stop offset=".719" stop-color="#fff" stop-opacity=".525"/><stop offset=".864" stop-color="#fff" stop-opacity=".267"/><stop offset="1" stop-color="#fff" stop-opacity="0"/></linearGradient><linearGradient id="d" x1=".499" y1=".166" x2=".509" y2="1.003" xlink:href="#a"/><linearGradient id="e" x1=".498" y1=".229" x2=".518" y2="1.007" xlink:href="#a"/><linearGradient id="f" x1=".508" y1="-.133" x2=".493" y2="1.077" xlink:href="#a"/><linearGradient id="g" x1="0" y1=".5" x2="1" y2=".5" xlink:href="#a"/></defs><g data-name="12-youth-icon"><g data-name="Group 6372"><g data-name="Group 6371"><path data-name="Path 8844" d="M420.475 44.295a39.907 39.907 0 11-39.907-39.907 39.908 39.908 0 0139.907 39.907z" fill="url(#b)" transform="translate(-340.661 -4.388)"/><path data-name="Path 8845" d="M380.568 5.606a38.69 38.69 0 1038.689 38.689 38.69 38.69 0 00-38.689-38.689z" fill="url(#c)" transform="translate(-340.661 -4.388)"/></g></g><g data-name="Group 6382"><g data-name="Group 6377"><path data-name="Path 8852" d="M39.907 73.324A33.417 33.417 0 106.49 39.907a33.417 33.417 0 0033.417 33.417" fill="#248332"/></g><g data-name="Group 6379"><g data-name="Group 6378"><circle data-name="Ellipse 3049" cx="4.166" cy="4.166" r="4.166" transform="translate(26.36 22.156)" fill="url(#a)"/></g><path data-name="Path 8853" d="M366.991 47.741V60.9a1.154 1.154 0 001.15 1.151h.809a1.154 1.154 0 001.15-1.151v-9.76a4.388 4.388 0 01.164-1.3h.655a4.379 4.379 0 01.157 1.273V60.9a1.154 1.154 0 001.151 1.151h.8a1.154 1.154 0 001.15-1.151V41.368a.347.347 0 01.272-.353c.15-.018.385.182.521.445s.472.945.745 1.516l1.824 3.817a1.109 1.109 0 001.943.162 1.056 1.056 0 00.014-.937l-2.942-7.695a7.7 7.7 0 00-.831-1.609 3.845 3.845 0 00-1.51-.9l-2.238-.476c-.687 0-3.018-.216-3.018-.216l-5.636-.536-.08-.014a.483.483 0 00-.054 0l-.2-.019-4.657-2.824a1.06 1.06 0 10-1.1 1.812l5.132 3.112a1.147 1.147 0 00.479.214l3.673.644.488.422-.006 6.842v2.966z" fill="url(#d)" transform="translate(-340.661 -4.388)"/></g><g data-name="Group 6381"><path data-name="Path 8854" d="M382.227 45.3l3.749-6.689c.248-.444.673-1.16.943-1.592l.049-.078a2.882 2.882 0 011.376-1.055l1.071-.327a4.52 4.52 0 003.648-.025l1.594.479a1.726 1.726 0 01.168.074l4.289 1.355.613-4.421a1.2 1.2 0 01.414-.74l.1-2.076a.349.349 0 01.359-.327.345.345 0 01.328.359L400.843 32a1.184 1.184 0 01.253-.016 1.213 1.213 0 011.036 1.369l-.809 5.831a1.213 1.213 0 01-1.2 1.047 1.18 1.18 0 01-.353-.053l-4.375-1.331a8.227 8.227 0 00-1.085 2.239l-.03.271a4.958 4.958 0 00.192 1.8l.876 2.6c.163.482.4 1.28.528 1.773l.536 2.065c.128.492.256 1.085.284 1.316s-.345.551-.828.711l-.178.059a9.386 9.386 0 01-1.219.33.441.441 0 00-.366.388c-.014.191-.072.762-.128 1.268l-.824 7.46a1.021 1.021 0 01-.954.92h-1.863a1.021 1.021 0 01-.953-.92l-.824-7.46a58.67 58.67 0 01-.129-1.268.439.439 0 00-.366-.388 9.382 9.382 0 01-1.218-.33l-.179-.059c-.483-.16-.855-.48-.827-.711s.156-.824.284-1.316l.535-2.065c.128-.493.366-1.291.528-1.773l.877-2.6a4.98 4.98 0 00.192-1.8l-.03-.271c-.057-.506-.245-.74-.419-.52s-.547.746-.83 1.169l-3.244 4.843a.8.8 0 01-1.216.165l-.038-.033a1.182 1.182 0 01-.252-1.41z" fill="url(#e)" transform="translate(-340.661 -4.388)"/><g data-name="Group 6380" transform="translate(-340.661 -4.388)"><circle data-name="Ellipse 3050" cx="4.016" cy="4.016" r="4.016" transform="translate(387.481 27.242)" fill="url(#f)"/><path data-name="Path 8855" d="M386.963 30.064a.942.942 0 01-.379.416l-.07.036a2.641 2.641 0 00-.451.3 3.756 3.756 0 00-.367.39c-.1.125-.245.325-.322.446a.841.841 0 01-.332.292.616.616 0 01-.353.02.878.878 0 01-.333-.3l-1.018-1.477a1.007 1.007 0 01-.174-.422.816.816 0 01.091-.348.981.981 0 01.366-.306l.5-.244a2.861 2.861 0 01.563-.194l.532-.11a3.2 3.2 0 01.594-.053l.426.011a3.085 3.085 0 01.59.084l.366.1a.257.257 0 01.178.354z" fill="url(#g)"/></g></g></g></g></svg>