<svg xmlns="http://www.w3.org/2000/svg" width="155" height="155"><defs><clipPath id="a"><path data-name="Path 9552" d="M0 27.049h73.547v-75.441H0z" transform="translate(0 48.392)" fill="none"/></clipPath></defs><g data-name="17-globe" transform="translate(-563 -26210)"><circle data-name="Ellipse 3062" cx="77.5" cy="77.5" r="77.5" transform="translate(563 26210)" fill="#60aa55"/><circle data-name="Ellipse 3065" cx="64.5" cy="64.5" r="64.5" transform="translate(576 26223)" fill="#fff"/><g data-name="Group 7000"><g data-name="Group 6999" transform="translate(607.815 26246.866)" clip-path="url(#a)"><g data-name="Group 6996"><path data-name="Path 9549" d="M1.169 45.605a28.666 28.666 0 1128.666 28.666A28.666 28.666 0 011.169 45.605zm28.571 28.8a40.541 40.541 0 000-57.369m.029 57.367a40.544 40.544 0 010-57.369m28.732 28.725H1.169M51.06 64.718a29.965 29.965 0 00-42.4 0m0-38.224a29.965 29.965 0 0042.4 0" fill="none" stroke="#44b44a" stroke-width="1.5"/></g><g data-name="Group 6997"><path data-name="Path 9550" d="M58.502 0a15.061 15.061 0 0115.044 15.045c0 8.1-14.077 30.409-14.676 31.355l-.368.58-.368-.58c-.6-.946-14.678-23.253-14.678-31.355A15.062 15.062 0 0158.502 0" fill="#45b248"/></g><g data-name="Group 6998"><path data-name="Path 9551" d="M65.088 14.346a6.587 6.587 0 01-6.586 6.586 6.587 6.587 0 01-6.587-6.586 6.587 6.587 0 016.587-6.587 6.587 6.587 0 016.586 6.587" fill="#fff"/></g></g></g></g></svg>