<svg xmlns="http://www.w3.org/2000/svg" width="112" height="112"><defs><clipPath id="a"><path data-name="Path 9459" d="M0 31.758h66.376v-66.387H0z" transform="translate(0 34.629)" fill="none"/></clipPath></defs><g data-name="17-gear" transform="translate(-160 -24495)"><circle data-name="Ellipse 3053" cx="56" cy="56" r="56" transform="translate(160 24495)" fill="#fff"/><g data-name="Group 6946"><g data-name="Group 6945" transform="translate(182.812 24517.807)" clip-path="url(#a)"><g data-name="Group 6944"><path data-name="Path 9458" d="M64.527 28.875c-1.733-.276-3.462-.562-5.2-.807a.717.717 0 01-.709-.638q-.362-1.475-.845-2.918a.719.719 0 01.251-.92c1.355-1.148 2.672-2.341 4.024-3.495a.956.956 0 00.255-1.446c-.918-1.44-1.775-2.924-2.663-4.384-.454-.752-.612-.805-1.426-.493a306.769 306.769 0 00-4.981 1.932.674.674 0 01-.872-.184 32.573 32.573 0 00-2.18-2.107.81.81 0 01-.263-1.039c.587-1.654 1.125-3.324 1.722-4.975a.947.947 0 00-.525-1.365c-1.459-.757-2.885-1.578-4.327-2.371-.97-.533-1.079-.512-1.781.366l-3.162 3.95c-.215.27-.4.475-.838.347a45.605 45.605 0 00-3.136-.784.634.634 0 01-.568-.612c-.332-1.771-.705-3.535-1.029-5.308a.934.934 0 00-1.093-.9c-1.733.059-3.466.1-5.2.1a.958.958 0 00-1.1.97c-.255 1.76-.562 3.51-.813 5.268a.722.722 0 01-.64.709 37.57 37.57 0 00-2.92.844.724.724 0 01-.922-.251c-1.166-1.371-2.37-2.707-3.547-4.068a.9.9 0 00-1.34-.23q-2.232 1.4-4.509 2.722a.935.935 0 00-.449 1.346c.274.686.541 1.375.805 2.065.382.993.759 1.986 1.152 2.973a.669.669 0 01-.194.868 19.48 19.48 0 00-1.963 2.025 1 1 0 01-1.361.334c-1.626-.6-3.28-1.118-4.915-1.685a.834.834 0 00-1.162.456q-1.277 2.384-2.611 4.736a.828.828 0 00.241 1.22c1.411 1.12 2.8 2.264 4.212 3.38a.817.817 0 01.334 1.02 32.478 32.478 0 00-.725 2.943.673.673 0 01-.636.623c-1.771.33-3.535.7-5.308 1.028a.936.936 0 00-.888 1.108c.058 1.687.073 3.374.107 5.063.021.968.125 1.085 1.114 1.238 1.71.268 3.42.552 5.134.79a.714.714 0 01.7.652 35.3 35.3 0 00.821 2.855.753.753 0 01-.24.982c-1.309 1.1-2.586 2.235-3.871 3.363-.2.176-.383.374-.663.65a3.16 3.16 0 00.232.809c.89 1.513 1.829 3 2.707 4.517a.961.961 0 001.386.493c1.608-.646 3.24-1.238 4.846-1.89a.843.843 0 011.146.242 15.276 15.276 0 001.99 1.915.9.9 0 01.316 1.2c-.583 1.607-1.127 3.226-1.676 4.846-.282.836-.213.993.535 1.407 1.5.828 3.01 1.633 4.492 2.49a.921.921 0 001.388-.251c1.1-1.4 2.235-2.763 3.338-4.156a.811.811 0 011.024-.318c.943.289 1.911.508 2.878.711a.724.724 0 01.679.669c.316 1.752.686 3.493 1.008 5.243a.962.962 0 001.145.924c1.687-.069 3.376-.075 5.065-.107.918-.019 1.062-.146 1.208-1.074.272-1.733.554-3.464.8-5.2a.681.681 0 01.61-.659c1-.253 2-.541 2.983-.865a.681.681 0 01.863.247c1.166 1.369 2.364 2.713 3.539 4.074a.933.933 0 001.4.226c1.444-.918 2.922-1.779 4.386-2.665.759-.458.821-.635.495-1.484-.608-1.576-1.2-3.159-1.842-4.722a.9.9 0 01.255-1.208 17.213 17.213 0 001.913-1.99.872.872 0 011.148-.293c1.631.579 3.28 1.112 4.912 1.693a.95.95 0 001.369-.523q1.185-2.278 2.479-4.5a.951.951 0 00-.268-1.44c-1.384-1.077-2.736-2.2-4.112-3.286a.8.8 0 01-.349-1.014c.3-.964.521-1.955.727-2.945a.678.678 0 01.627-.635c1.75-.322 3.495-.673 5.239-1.022.865-.174.972-.309.957-1.168q-.043-2.531-.1-5.063c-.021-.892-.144-1.032-1.035-1.174zM46.56 40.621a15.337 15.337 0 01-20.642 6.022 15.312 15.312 0 01-6.115-20.808 15.306 15.306 0 0120.6-6.112 15.311 15.311 0 016.157 20.898z" fill="none" stroke="#ed402c" stroke-linecap="round" stroke-linejoin="round" stroke-width="2"/></g></g></g></g></svg>