<svg xmlns="http://www.w3.org/2000/svg" width="112" height="112"><defs><clipPath id="a"><path data-name="Path 9468" d="M0 19.39h46.346V-36H0z" transform="translate(0 36)" fill="none"/></clipPath></defs><g data-name="17-handshake" transform="translate(-160 -25023)"><circle data-name="Ellipse 3054" cx="56" cy="56" r="56" transform="translate(160 25023)" fill="#fff"/><g data-name="Group 6963"><g data-name="Group 6955" transform="translate(192.827 25051.305)" clip-path="url(#a)"><g data-name="Group 6947"><path data-name="Path 9460" d="M44.99 54.654H1.209a21.8 21.8 0 0121.891-21.7 21.8 21.8 0 0121.89 21.7z" fill="none" stroke="#248236" stroke-linecap="round" stroke-linejoin="round" stroke-width="2"/></g><g data-name="Group 6948"><path data-name="Path 9461" d="M23.172 32.847a30.528 30.528 0 00-9.053 21.717m9.028-21.717A30.535 30.535 0 0132.2 54.564M6.941 40.18a22.9 22.9 0 0032.281 0" fill="none" stroke="#248236" stroke-linecap="round" stroke-linejoin="round" stroke-width="2"/></g><g data-name="Group 6949"><path data-name="Path 9462" d="M21.498 27.497l3.243 1.165 1.591-.04 1.074-.474.675-.674.439-.871 1.551-.078.875-.634.2-.634.118-.831 1.274-.158.914-.277.358-.435.158-.357.163-.669.158-.475s.238-.277.477-.237a.593.593 0 00.318 0l1.234-.158.2-.158s.755-1.543.8-1.782a7.645 7.645 0 00-.545-1.549l1.551-.712.537-.772.657-.654.815-.725a2.833 2.833 0 003.86 1.029 2.806 2.806 0 001.038-3.841l-6-10.35a2.833 2.833 0 00-3.86-1.029A2.81 2.81 0 0033.979 3.9l.057.14-.358.237-1.609.772h-1.024l-1.132-.238-1.611-.594-1.254-.177h-4.892l-2.025.29-1.968.417-1.138 1.251-2.625-.237-2.029-1.009-.183-.14a2.808 2.808 0 00-1.2-3.5 2.835 2.835 0 00-3.867 1.033l-6 10.35a2.805 2.805 0 001.035 3.842 2.834 2.834 0 003.86-1.029l1.75 3.094a1.922 1.922 0 00.445 2.693 3.661 3.661 0 001.988.592 1.938 1.938 0 00.426 2.716 1.961 1.961 0 002.729-.425 2.028 2.028 0 00.414 2.8 2.243 2.243 0 002.811-.178c-.639.877-.114 1.562.768 2.2s2.753.957 4.151-1.3" fill="none" stroke="#248236" stroke-linecap="round" stroke-linejoin="round" stroke-width="2"/></g><g data-name="Group 6950"><path data-name="Path 9463" d="M11.908 4.663a2.978 2.978 0 01-.162.34L6.06 15.125" fill="none" stroke="#248236" stroke-linecap="round" stroke-linejoin="round" stroke-width="2"/></g><g data-name="Group 6951"><path data-name="Path 9464" d="M34.249 3.942a2.8 2.8 0 00.34 1.039l5.7 10.144" fill="none" stroke="#248236" stroke-linecap="round" stroke-linejoin="round" stroke-width="2"/></g><g data-name="Group 6952"><path data-name="Path 9465" d="M10.277 21.7l3.145-4.336a1.854 1.854 0 012.6-.409 1.88 1.88 0 01.408 2.617l-3.143 4.341" fill="none" stroke="#248236" stroke-linecap="round" stroke-linejoin="round" stroke-width="2"/></g><g data-name="Group 6953"><path data-name="Path 9466" d="M7.824 18.476l.574-.8a1.787 1.787 0 012.485-.404 1.767 1.767 0 01.408 2.471l-.575.8" fill="none" stroke="#248236" stroke-linecap="round" stroke-linejoin="round" stroke-width="2"/></g><g data-name="Group 6954"><path data-name="Path 9467" d="M13.432 24.111l2.179-3.024a1.855 1.855 0 012.6-.417 1.874 1.874 0 01.415 2.612l-2.178 3.023" fill="none" stroke="#248236" stroke-linecap="round" stroke-linejoin="round" stroke-width="2"/></g></g><g data-name="Group 6956"><path data-name="Path 9469" d="M213.508 25078.934l-.42.722" fill="none" stroke="#248236" stroke-linecap="round" stroke-linejoin="round" stroke-width="2"/></g><g data-name="Group 6959" transform="translate(192.827 25051.305)" clip-path="url(#a)"><g data-name="Group 6957"><path data-name="Path 9470" d="M17.042 26.133l1.329-1.8a1.866 1.866 0 012.569-.4 1.781 1.781 0 01.412 2.515l-.594.8" fill="none" stroke="#248236" stroke-linecap="round" stroke-linejoin="round" stroke-width="2"/></g><g data-name="Group 6958"><path data-name="Path 9471" d="M17.109 6.068L14.39 10.21l-.474 1.516.3 1.051.769.408 1.125.175h1.117l1.183-.642.711-.642 1.006-.934.77-.874.355-.526.651-.466.3-.058.711-.058.532-.174a18.861 18.861 0 001.944.99c.415.117 4.676 2.8 4.676 2.8l5.8 4.083.829 1.166" fill="none" stroke="#248236" stroke-linecap="round" stroke-linejoin="round" stroke-width="2"/></g></g><g data-name="Group 6960"><path data-name="Path 9473" d="M219.935 25068.299l6.8 4.357" fill="none" stroke="#248236" stroke-linecap="round" stroke-linejoin="round" stroke-width="2"/></g><g data-name="Group 6961"><path data-name="Path 9474" d="M221.204 25077.874l-5.039-2.593" fill="none" stroke="#248236" stroke-linecap="round" stroke-linejoin="round" stroke-width="2"/></g><g data-name="Group 6962"><path data-name="Path 9475" d="M223.998 25075.237l-6.522-3.8" fill="none" stroke="#248236" stroke-linecap="round" stroke-linejoin="round" stroke-width="2"/></g></g></g></svg>