<svg xmlns="http://www.w3.org/2000/svg" width="155" height="155"><defs><clipPath id="a"><path data-name="Path 9548" d="M0 16.575h64.151V-43.2H0z" transform="translate(0 43.197)" fill="none"/></clipPath></defs><g data-name="17-transparency" transform="translate(-308 -26210)"><circle data-name="Ellipse 3061" cx="77.5" cy="77.5" r="77.5" transform="translate(308 26210)" fill="#d8318a"/><circle data-name="Ellipse 3064" cx="64.5" cy="64.5" r="64.5" transform="translate(321 26223)" fill="#fff"/><g data-name="Group 6994"><g data-name="Group 6988"><path data-name="Path 9543" d="M371.607 26295.697l-4.289-3.985 5.114-5.506 4.291 3.985z" fill="#fb3099"/></g><g data-name="Group 6993" transform="translate(349.105 26255.616)" clip-path="url(#a)"><g data-name="Group 6989"><path data-name="Path 9544" d="M1.252 59.079l-.423-.394a2.593 2.593 0 01-.136-3.664L15.355 39.24a2.593 2.593 0 013.664-.136l.423.394a2.592 2.592 0 01.136 3.664L4.916 58.948a2.592 2.592 0 01-3.664.136" fill="#fb3099"/></g><g data-name="Group 6990"><path data-name="Path 9545" d="M51.63 31.799a18.3 18.3 0 01-25.866.952 18.3 18.3 0 01-.952-25.866 18.3 18.3 0 0125.866-.952 18.3 18.3 0 01.952 25.866z" fill="none" stroke="#fb3099" stroke-width="1.5"/></g><g data-name="Group 6991"><path data-name="Path 9546" d="M52.912 23.541a11.253 11.253 0 0111.24 11.24c0 6.052-10.518 22.719-10.964 23.425l-.275.433-.274-.433c-.449-.706-10.967-17.373-10.967-23.425a11.253 11.253 0 0111.24-11.24" fill="#fb3099"/></g><g data-name="Group 6992"><path data-name="Path 9547" d="M57.832 34.258a4.92 4.92 0 01-4.92 4.92 4.92 4.92 0 01-4.92-4.92 4.92 4.92 0 014.92-4.92 4.92 4.92 0 014.92 4.92" fill="#fff"/></g></g></g></g></svg>