<svg xmlns="http://www.w3.org/2000/svg" width="155" height="155"><defs><clipPath id="a"><path data-name="Path 9555" d="M0 25.53h81.9v-69.159H0z" transform="translate(0 43.629)" fill="none"/></clipPath></defs><g data-name="17-un"><path data-name="Path 9553" d="M77.5 0A77.5 77.5 0 110 77.5 77.5 77.5 0 0177.5 0z" fill="#4dacea"/><path data-name="Path 9554" d="M77.5 13A64.5 64.5 0 1113 77.5 64.5 64.5 0 0177.5 13z" fill="#fff"/><g data-name="Group 7002"><g data-name="Group 7003" transform="translate(36.552 42.918)" clip-path="url(#a)"><g data-name="Group 7002"><path data-name="Path 9554" d="M8.477 18.931q1.553-1.253 3.686-3.081a25.32 25.32 0 001.262-1.156 4.42 4.42 0 00.823-1.151 13.451 13.451 0 00.68-1.685l.921-2.745h-.1a6.558 6.558 0 01-1.7 2.406 25.3 25.3 0 01-2.224 1.684 21.429 21.429 0 00-2.422 1.924 10.367 10.367 0 00-2.181 3.036v-.1q.865-2.5 1.3-4.237t.77-3.034a9.728 9.728 0 01.867-2.259 5.929 5.929 0 011.684-1.829v-.1a7.244 7.244 0 00-4.242 3.084 9.331 9.331 0 00-1.644 5.393v6.74a10.729 10.729 0 012.52-2.89m4.556-8.233a33.208 33.208 0 002.457-2.841q1.1-1.441 2.118-2.744a15.853 15.853 0 012.264-2.359l-.1-.1a5.584 5.584 0 01-2.164 1.158 12.2 12.2 0 00-2.746 1.253 9.793 9.793 0 00-2.791 2.745 17.1 17.1 0 00-2.311 5.533 18.567 18.567 0 003.273-2.645M2.233 35.88a28.916 28.916 0 002.153 2.841 21.974 21.974 0 012.351 3.422h.071a9.721 9.721 0 01-.122-1.541v-1.354a10.088 10.088 0 01.545-2.551q.547-1.781 1.141-3.949t1.038-4.381a13.05 13.05 0 00.252-3.949h-.1a8.407 8.407 0 01-1.014 2.458c-.485.8-.984 1.637-1.5 2.5a18.77 18.77 0 00-1.36 2.793 8.828 8.828 0 00-.58 3.226 7.58 7.58 0 00.23 1.587 9.194 9.194 0 01.231 1.206h-.1a24.1 24.1 0 00-1.078-4.045q-.709-1.926-1.411-3.562t-1.175-2.985a7.093 7.093 0 01-.468-2.218 14.756 14.756 0 01.061-1.535c.04-.384.06-.867.06-1.444h-.1a24.4 24.4 0 00-.774 2.5 12.149 12.149 0 00-.46 3.082 15.569 15.569 0 00.575 4.67 13.038 13.038 0 001.533 3.227m17.529 26.1a10.8 10.8 0 001.06.046 10.548 10.548 0 001.441-.094c.449-.067 1.027-.16 1.733-.29s1.62-.338 2.742-.628 2.611-.656 4.473-1.106q-1.831-.478-3.175-.91a7.277 7.277 0 01-2.693-1.677q-1.633-1.436-3.272-2.972c-.848-.794-1.744-1.539-2.6-2.324-.243-.22-1.507-1.335-1.872-1.7l-.1.1c.146.233 1.332 2.617 1.332 2.617s.187.255.263.393c.322.572.639 1.144.948 1.721q.183.34.36.685a5.311 5.311 0 001.6 1.869 10.445 10.445 0 004.047 2.009v.1q-1.227-.19-2.072-.334c-.566-.1-1.083-.173-1.552-.239s-.94-.111-1.412-.144c-.575-.038-1.164-.07-1.734-.157-.453-.07-.9-.152-1.355-.2s-.889-.1-1.335-.152a39.674 39.674 0 00-.693-.079 16.574 16.574 0 01-2.419-.433 8.4 8.4 0 01-2.18-.915 13.9 13.9 0 01-2.321-1.783l-.1.1a11.645 11.645 0 001.306 1.831 15.225 15.225 0 002.033 1.931 11.614 11.614 0 002.856 1.661 15.236 15.236 0 003.774.98s.609.071.915.1M4.741 31.833h.122a9.385 9.385 0 01.285-1.539 8.2 8.2 0 01.713-1.636 24.393 24.393 0 011.475-2.315q.953-1.351 2.568-3.66a12.514 12.514 0 001.522-3.37q.571-1.926.762-2.793h-.1a3.912 3.912 0 01-.43.82c-.16.224-.365.48-.617.769s-.588.628-1 1.013-.967.9-1.664 1.541a9.254 9.254 0 00-2.469 3.18 20.755 20.755 0 00-.951 3.175h-.094q.059-.768.09-1.492c.019-.48.032-1.106.032-1.877q0-1.443-.184-3.37t-.18-5.006A4.51 4.51 0 015 13.443c.248-.578.475-1.123.664-1.638h-.1a16.129 16.129 0 00-2.768 4.864 14.513 14.513 0 00-.729 4.474 13.863 13.863 0 00.989 5.055 39.9 39.9 0 011.685 5.635m10.033 24.942l4.025.881 2.094.48a17 17 0 01-2.045-2.71 13.636 13.636 0 01-1.259-2.649q-.58-1.586-1.641-4.188a11.84 11.84 0 00-.629-1.541q-.338-.675-.774-1.4c-.29-.482-.645-1.026-1.062-1.636s-.95-1.363-1.595-2.265l-.094.1q.283.961.813 3.467t1.011 4.717a7.286 7.286 0 001.3 3.034 17.7 17.7 0 002.646 2.839l-.1.1a8.479 8.479 0 01-2.322-1.541 16.756 16.756 0 00-3.484-2.216 53.5 53.5 0 01-5.76-3.225 8.7 8.7 0 01-3.145-3.8l-.1.1a14.44 14.44 0 001.795 4.327 15.208 15.208 0 002.86 3.37 16.664 16.664 0 003.587 2.408 15.565 15.565 0 003.877 1.349m-9.005-9.92l7.112 4.717q-.471-.963-.8-1.829a10.546 10.546 0 01-.518-1.924q-.188-1.06-.328-2.359t-.328-3.131q-.377-3.174-.657-4.911a20.319 20.319 0 00-1.034-3.757h-.1a23.23 23.23 0 01-.144 2.795 18.383 18.383 0 01-.385 2.119c-.16.642-.29 1.233-.384 1.779a10.875 10.875 0 00-.146 1.88 8.383 8.383 0 00.621 2.744 23.722 23.722 0 001.18 2.744l-.1.1a28.267 28.267 0 00-3.219-4.285q-1.589-1.687-2.882-3.086a22.426 22.426 0 01-2.207-2.743 7.928 7.928 0 01-1.2-3.372 8.5 8.5 0 00-.182.916 6.463 6.463 0 00-.06.913 10.231 10.231 0 00.575 3.322 16.226 16.226 0 001.437 3.132 15.789 15.789 0 001.874 2.551 10.506 10.506 0 001.875 1.685m58.522-41.73q1.011 1.3 2.118 2.742a32.893 32.893 0 002.457 2.841 18.494 18.494 0 003.272 2.647 17.11 17.11 0 00-2.31-5.534 9.763 9.763 0 00-2.793-2.747 12.214 12.214 0 00-2.744-1.251 5.614 5.614 0 01-2.168-1.156l-.1.1a15.711 15.711 0 012.265 2.359M70.6 57.168a8.439 8.439 0 01-2.178.913 16.846 16.846 0 01-2.421.434c-.231.024-.461.051-.691.076-.445.052-.892.1-1.338.154s-.9.136-1.352.2c-.572.087-1.16.119-1.736.157q-.7.05-1.412.144c-.469.065-.984.146-1.552.239s-1.252.208-2.069.333v-.092a10.447 10.447 0 004.045-2.015 5.311 5.311 0 001.6-1.869c.117-.228.238-.458.358-.685.309-.577.628-1.149.948-1.72.078-.138.263-.395.263-.395s1.186-2.382 1.332-2.616l-.1-.1c-.363.366-1.628 1.484-1.87 1.7-.861.783-1.756 1.527-2.606 2.324q-1.634 1.531-3.27 2.972a7.31 7.31 0 01-2.695 1.676q-1.343.433-3.173.91 2.791.675 4.473 1.108t2.741.626q1.06.195 1.733.288a10.072 10.072 0 001.442.1q.578 0 1.06-.048c.3-.029.913-.1.913-.1a15.093 15.093 0 003.776-.98 11.553 11.553 0 002.855-1.661 15.035 15.035 0 002.032-1.939 11.481 11.481 0 001.308-1.829l-.1-.1a14.081 14.081 0 01-2.322 1.783m5.4-8.133a53.377 53.377 0 01-5.757 3.226 16.808 16.808 0 00-3.486 2.216 8.4 8.4 0 01-2.321 1.539l-.1-.1a17.623 17.623 0 002.644-2.841 7.268 7.268 0 001.3-3.034q.48-2.211 1.01-4.716t.815-3.468l-.094-.1q-.968 1.351-1.6 2.264c-.415.61-.772 1.156-1.062 1.636s-.547.948-.774 1.4a12.17 12.17 0 00-.628 1.541q-1.063 2.6-1.642 4.188a13.544 13.544 0 01-1.251 2.664 17.135 17.135 0 01-2.046 2.711l2.094-.48 4.025-.881a15.5 15.5 0 003.877-1.349 16.715 16.715 0 003.587-2.406 15.274 15.274 0 002.858-3.37 14.417 14.417 0 001.793-4.332l-.1-.1a8.7 8.7 0 01-3.143 3.8m2.918-18.439q-.706 1.636-1.411 3.562a23.987 23.987 0 00-1.081 4.045h-.1a9.5 9.5 0 01.231-1.2 7.509 7.509 0 00.231-1.588 8.829 8.829 0 00-.582-3.226 18.764 18.764 0 00-1.351-2.795c-.517-.865-1.016-1.7-1.5-2.5a8.424 8.424 0 01-1.019-2.455h-.1a13.012 13.012 0 00.255 3.949q.442 2.214 1.035 4.38t1.143 3.949a10.092 10.092 0 01.544 2.551v1.351a9.667 9.667 0 01-.122 1.538h.073a22.029 22.029 0 012.349-3.416 28.749 28.749 0 002.157-2.841 13.011 13.011 0 001.533-3.227 15.51 15.51 0 00.575-4.67 12.137 12.137 0 00-.461-3.08 23.55 23.55 0 00-.774-2.5h-.1a14.413 14.413 0 00.062 1.444 15.228 15.228 0 01.06 1.541 7.048 7.048 0 01-.469 2.216q-.471 1.348-1.173 2.985m-2.928-6.738a9.216 9.216 0 00-2.476-3.18l-1.664-1.551a15.129 15.129 0 01-1-1.013 9.319 9.319 0 01-.617-.769 3.8 3.8 0 01-.43-.82h-.1q.19.868.761 2.793a12.574 12.574 0 001.522 3.372q1.619 2.309 2.57 3.657a25.136 25.136 0 011.476 2.313 8.129 8.129 0 01.712 1.636 9.366 9.366 0 01.285 1.541h.122a39.427 39.427 0 011.685-5.632 13.876 13.876 0 00.989-5.055 14.471 14.471 0 00-.731-4.478 16.07 16.07 0 00-2.764-4.864h-.1q.283.773.664 1.637a4.5 4.5 0 01.379 1.829q0 3.084-.182 5.008a36.896 36.896 0 00-.182 3.37q0 1.158.03 1.877c.021.482.052.981.092 1.493h-.1a20.528 20.528 0 00-.95-3.175M71.738 8.543a9.872 9.872 0 01.867 2.262c.222.867.48 1.878.769 3.034s.723 2.568 1.3 4.237v.1a10.3 10.3 0 00-2.182-3.033 21.449 21.449 0 00-2.422-1.926 25.577 25.577 0 01-2.229-1.688 6.564 6.564 0 01-1.7-2.408h-.1l.923 2.745a12.984 12.984 0 00.68 1.685 4.388 4.388 0 00.821 1.156c.325.32.747.707 1.262 1.154q2.141 1.829 3.691 3.082a10.708 10.708 0 012.522 2.89v-6.741a9.335 9.335 0 00-1.644-5.393 7.248 7.248 0 00-4.248-3.081v.1a5.9 5.9 0 011.69 1.825m-11.149 55.4a8.007 8.007 0 01-1.591-.143c-.482-.1-1.075-.208-1.782-.338v.025q-.856-.281-1.939-.659-1.11-.385-2.658-.967-2.708-.963-4.112-1.447a8.465 8.465 0 00-2.752-.483 13.269 13.269 0 00-2.807.338c-.961.209-1.658.376-2.116.5-.4-.124-1.072-.292-2.023-.5a13.154 13.154 0 00-2.791-.338 8.415 8.415 0 00-2.741.48q-1.4.478-4.091 1.431-3.172 1.146-4.711 1.625a10.641 10.641 0 01-3.175.476 9.4 9.4 0 01-1.349-.094 5.043 5.043 0 01-1.152-.29s-.905-.263-1.4-.477c-.518-.227-1.129-.5-1.837-.821l-.1.1a19.368 19.368 0 003.383 2.6 10.578 10.578 0 005.34 1.544 13.351 13.351 0 002.07-.144 7.727 7.727 0 001.826-.528q.913-.383 2.021-.959t2.646-1.541q1.636-1.056 2.741-1.68a5.108 5.108 0 012.549-.625 3.694 3.694 0 011.156.192q-1.928 1.051-4.383 2.531a22.438 22.438 0 00-4.763 3.964l1.637 1.444a35.481 35.481 0 014.713-4.616 16.149 16.149 0 014.437-2.745 16.853 16.853 0 014.473 2.745 34.157 34.157 0 014.768 4.611l1.636-1.444a21.919 21.919 0 00-4.814-3.963q-2.506-1.479-4.429-2.531a5.522 5.522 0 011.259-.192 5.151 5.151 0 012.56.625q1.113.625 2.753 1.68 1.45.863 2.514 1.487a12.377 12.377 0 001.981.961 14.3 14.3 0 001.79.528 8.98 8.98 0 001.89.19h.387a11.682 11.682 0 004.386-.961 11.437 11.437 0 004.289-3.178v-.094a30.777 30.777 0 01-3.183 1.308 8.125 8.125 0 01-2.506.373m21.3-27.945c0-.1 0-.2-.01-.3a7.12 7.12 0 00-.044-.447 8.616 8.616 0 00-.184-.915 7.927 7.927 0 01-1.2 3.37 23.19 23.19 0 01-2.2 2.744l-.154.166q-1.241 1.334-2.739 2.923a28.074 28.074 0 00-3.169 4.207l-.027-.027a19.929 19.929 0 001.129-2.744 8.979 8.979 0 00.574-2.744 10.857 10.857 0 00-.146-1.878q-.145-.818-.338-1.78a28.9 28.9 0 01-.336-2.118 23 23 0 01-.143-2.795h-.1c-.011.022-.017.043-.027.065v-.057h-.1a20.457 20.457 0 00-1.027 3.764c-.187 1.154-.407 2.793-.658 4.908-.125 1.221-.233 2.265-.33 3.132s-.2 1.652-.328 2.359a10.513 10.513 0 01-.517 1.924 22.167 22.167 0 01-.672 1.555l-.151.266.038-.024c0 .011-.01.021-.016.033L71.404 50l4.809-3.142a10.581 10.581 0 001.877-1.687 13.909 13.909 0 001.829-2.549 17.742 17.742 0 00.915-1.877c.174-.4.339-.816.485-1.246a10.228 10.228 0 00.575-3.321v-.011c0-.057 0-.113-.006-.168M53.883 7.652a2.937 2.937 0 01.515.291 3.883 3.883 0 01.325.385.4.4 0 00.328.192c.187 0 .282-.063.282-.193s-.017-.174-.048-.143-.048-.016-.048-.144a.791.791 0 00-.187-.575.714.714 0 00-.84-.193.268.268 0 00-.185-.1h-.094c-.187 0-.282.067-.282.192a.313.313 0 00.233.288M43.677 5.343h.193a4.329 4.329 0 011.159-.244h1.355a.7.7 0 00.582-.244 2.573 2.573 0 00.288-.439 1.806 1.806 0 00-1.159-.685 7.888 7.888 0 00-.969-.1 5.825 5.825 0 00-1.16.353q-.968.352-1.16.453c-.325-.068-.517 0-.58.2a4.592 4.592 0 00.531.453 1.517 1.517 0 00.919.25m-2.91 52.757a29.048 29.048 0 10-29.047-29.054 29.08 29.08 0 0029.048 29.053M13.203 29.78h4.419a22.959 22.959 0 00.91 5.722.506.506 0 01-.336-.236l-.138-.135-.483-.678-.8.29c0 .453-.163.615-.483.485a.555.555 0 00-.387-.195.869.869 0 00-.921.823 7.979 7.979 0 00-.146 1.113l.678 1.742c.13.195.323.224.58.1a8.706 8.706 0 00.582.678.681.681 0 00.5.193.262.262 0 00.3-.29h.1a5.456 5.456 0 01.4.436 2.123 2.123 0 00.5.434v-.092a1.155 1.155 0 00.815.347 2.431 2.431 0 00.571 1.073 1.1 1.1 0 00.767.392.562.562 0 00.387-.193 3.184 3.184 0 00.483.976 4.532 4.532 0 01.482.293 2.827 2.827 0 01.387.292h.192a.011.011 0 00.006.008 1.711 1.711 0 00.48.775 3.81 3.81 0 00.58.49c-.019 0-.04.017-.059.024a.422.422 0 00.052.019c.025 0 .048.006.071.011.067.071.128.146.195.216l-3.123 3.123a27.483 27.483 0 01-7.561-18.236m21.288-8.146a6.226 6.226 0 00-.254-.154l-.289-.291a10.362 10.362 0 016.089-2.525v3.07a.455.455 0 00-.136-.073.559.559 0 01-.07-.1c-.01-.006-.025 0-.033-.011a.363.363 0 00-.233-.049.811.811 0 00-.111.017c-.01-.008-.021-.008-.029-.016a1.163 1.163 0 00-.211.03.674.674 0 01-.23.048.228.228 0 01-.116-.029c-.094-.067-.143-.209-.143-.438a.056.056 0 00-.013.008v-.019c-.262.128-.407.257-.439.385s-.081.352-.146.675a.734.734 0 01-.488.529 1.638 1.638 0 00-.587.339l-.304-.187h-.488a1.334 1.334 0 00-.293-.241.71.71 0 01-.195-.146c-.06-.063-.092-.063-.092 0a.247.247 0 00-.257.217l-.288-.287.078-.027v-.192a4.517 4.517 0 00-.724-.531m-1.588-1.493l-2.969-2.966a16.012 16.012 0 0110.1-4.191v4.2a11.84 11.84 0 00-7.131 2.957m1.668 13.976c.155-.152.089-.433.143-.623l-.333.308a2.722 2.722 0 00.579-.724 2.988 2.988 0 01.292-.533h.024a5.9 5.9 0 00.349.607l-2.715 2.716a10.364 10.364 0 01-2.253-4.364 2.347 2.347 0 01.675.19 6.594 6.594 0 01.61.552.867.867 0 00.39-.1l.392.29c0 .258.032.418.1.482 0 .063.1.147.292.243a.841.841 0 01.393.338l.195-.1a3.278 3.278 0 00-.051-.388c-.032-.192-.014-.29.051-.29l.192.678.192.772-.011.013a.551.551 0 00.5-.073m5.773 3.092c.16.16.241.274.241.336 0 .195-.258.292-.772.292-.2 0-.323.184-.388.55s-.13.675-.193.921c-.054-.01-.1-.024-.16-.032 0 .013.011.021.016.033a10.332 10.332 0 01-5.144-2.4l2.614-2.616a6.175 6.175 0 003.646 1.682.715.715 0 00.094.409.659.659 0 00-.193.483c0 .065.081.179.241.339m-12.875.181a12.411 12.411 0 00-.2-1.645 6.914 6.914 0 00-.292-.87 4.477 4.477 0 00-.306-1.3 5.581 5.581 0 00-.916-1.208v-.561a2.449 2.449 0 00-.193-.566v-.1a.228.228 0 01.151-.247l1.021-.347a2.43 2.43 0 01.1-.894l.7.122c.2 0 .3-.132.3-.4a2.876 2.876 0 00-.192-.6 2.322 2.322 0 01-.193-.7c0-.135.1-.25.288-.349a1.248 1.248 0 01.577-.151.708.708 0 01.671.333 1.416 1.416 0 01.192.716 2.835 2.835 0 01-.046.525 2.111 2.111 0 00-.048.428l.192.1c-.13.637-.385.954-.769.954a.467.467 0 01-.433-.246.41.41 0 00-.334-.244.086.086 0 00-.1.1.865.865 0 00.1.393 1.089 1.089 0 01.1.488q0 .682-.61.488c-.13.244.006.366.4.366.133.39.266.553.4.488a1.619 1.619 0 00.2-.655 3.128 3.128 0 01.2-.761l.1.1.4-.1.03.144a1.014 1.014 0 01.119.006 11.846 11.846 0 002.78 5.727l-4.093 4.091a.725.725 0 01-.227-.644c.087-.393.485-.636.537-1.045 0-.03.1-.77.1-.77a3.972 3.972 0 01-.707-1.16m-2.341-6.051a.845.845 0 01.1.385c0 .195-.063.276-.195.243a.167.167 0 00-.073.008 15.837 15.837 0 01-.254-2.191h.805a1.065 1.065 0 01-.09.393 2.725 2.725 0 01-.243.387.647.647 0 00-.146.385.866.866 0 00.1.39m-.425-3.021a16.029 16.029 0 014.191-10.1l2.969 2.969c-.029.032-.052.065-.079.1a2.424 2.424 0 00-.515.187 8.3 8.3 0 00-.43.569 4.434 4.434 0 00-.918.483 6.108 6.108 0 00-.724.774q-.583.292-.726.339a.959.959 0 00-.339.241c.13.325.13.5 0 .531s-.453.113-.967.244a.285.285 0 00-.193.094l-.29.293a.783.783 0 00-.1.338.767.767 0 01-.1.338 1.713 1.713 0 00-.482.485 1.208 1.208 0 000 .87l.122.967c-.011 0-.03-.008-.041-.008a1.7 1.7 0 01.082.292zm8.2 9.636a11.86 11.86 0 005.152 2.66c-.141.049-.284.1-.425.138a.779.779 0 00-.579.632.871.871 0 01-.438.731c-.227.1-.306.244-.241.441a2.657 2.657 0 01.677 1.168 1.216 1.216 0 00.969.875l.579.2a1.11 1.11 0 01.574.211c.171.022.339.046.506.082a16.017 16.017 0 01-9.742-4.167zm-4.016-21.81l-2.934-2.939a21.613 21.613 0 0114.071-5.836v4.151a17.49 17.49 0 00-11.137 4.624m-1.035 1.034a17.48 17.48 0 00-4.623 11.137h-4.151a21.616 21.616 0 015.838-14.071zm-4.622 12.6a17.676 17.676 0 00.228 2.145 9.033 9.033 0 01-.162-.287c-.23-.312-.422-.472-.572-.472a.382.382 0 00-.392.243 1.269 1.269 0 01-.293.434 2.72 2.72 0 01-1.075.483 2.444 2.444 0 00-.585 1.16.347.347 0 00.048.39c.1.128.049.257-.146.385.13.258.162.42.1.482.063.13.048.179-.051.147a.223.223 0 00-.244.048.6.6 0 00-.136.22 21.589 21.589 0 01-.87-5.378zm16.795 26.83a27.464 27.464 0 01-18.23-7.564l3.121-3.123a23.071 23.071 0 0015.108 6.273zm0-5.883a21.615 21.615 0 01-14.014-5.781 1.933 1.933 0 00.8.211 2.16 2.16 0 00.774-.2c.322-.135.612-.269.872-.407a1.57 1.57 0 00.869-.195 1.337 1.337 0 00.724 0 .447.447 0 00.339-.482.671.671 0 00-.342-.533c-.23-.16-.344-.306-.344-.436 0-.065-.067-.144-.2-.243a5.2 5.2 0 01-.629-.694l.006-.006a17.481 17.481 0 0011.144 4.615zm.779-10.781v-.029a2.017 2.017 0 01-.961-.157c-.03-.082-.065-.165-.1-.254a4.8 4.8 0 01.452-.3 1.366 1.366 0 01.6-.246v-.254l.712-.536a.832.832 0 01.249-.1 4.025 4.025 0 00.548-.195 3.511 3.511 0 01.747.339 3.421 3.421 0 00.747.338l.1-.387c.128 0 .323.128.579.387a.936.936 0 00.487-.195.644.644 0 000-.482.784.784 0 01.288.1.188.188 0 01.143.049.2.2 0 00.146.049h.1a1.058 1.058 0 00.529-.243 4.382 4.382 0 01.533-.339.122.122 0 01.193 0 .552.552 0 01.1.387 1.24 1.24 0 01-.821 1.162 13.829 13.829 0 01-1.4.579 1.567 1.567 0 00-.244.436c-.1.227-.208.338-.336.338a5.578 5.578 0 01-1.19-.193 2.164 2.164 0 01-.3-.58 2.939 2.939 0 00-.7.1l-.794.193a.913.913 0 01-.412.032m4.191-3.191a.772.772 0 01.482-.629 2.22 2.22 0 01.775-.144c0 .195-.179.388-.533.58a2.557 2.557 0 01-.629.29zm2.994-2.368a.8.8 0 01.387.726.342.342 0 01-.387.385q-.29 0-.483-.677c-.452-.127-.709-.336-.774-.626s-.033-.468.1-.533a1.888 1.888 0 01.388-.143c.127-.035.162.109.1.433.193.128.42.273.677.434m9.321-16.23a.278.278 0 01.193.1 1.185 1.185 0 01.678.195 7.285 7.285 0 011.168 1.45c.065 0 .146.1.244.29s.211.29.341.29a1.413 1.413 0 00.5-.157c.021-.1.04-.178.059-.265a21.543 21.543 0 011.943 8.259h-4.1c0-.024.013-.048.017-.073a2.093 2.093 0 00-.227-1.076 2.1 2.1 0 01-.135-1.427 1.465 1.465 0 00.051-.82.578.578 0 00-.39.1 1.609 1.609 0 00-.244.436c-.1.224-.178.4-.241.529v.055a.68.68 0 00-.071.181.913.913 0 01-.1.241l-.2.77a1.912 1.912 0 00-.01.774c0 .006 0 .011.01.017.006.1.016.2.019.3h-2.079a1.248 1.248 0 01.442-.293h-.068l.566-.285a.3.3 0 01-.19-.284c0-.192.032-.3.1-.334s.249-.111.564-.238a3.872 3.872 0 00.514-.9 5.722 5.722 0 00.751-1.918c0-.151-.2-.344-.22-.5a2.444 2.444 0 01.041-.426c.025-.682.306-1.855-.563-2.07-.068 0-.1-.092-.1-.285a.672.672 0 00.2-.736h-.6a.828.828 0 01.146-.341.851.851 0 00.151-.438.261.261 0 00-.3-.293 1.11 1.11 0 00-.5.1.8.8 0 01-.3.1.5.5 0 01-.151-.021c-.048-.07-.1-.135-.149-.2a1.506 1.506 0 00-.426-.948 1.813 1.813 0 00-.775-.569l-.03-.036a.637.637 0 00-.006-.411l.818-.816 1.171.418a.734.734 0 00.306.677 2.936 2.936 0 00.407.292 3.725 3.725 0 01.464.349v.055c.128.13.227.192.293.192m-3.971 28.109a.337.337 0 00-.243-.1c-.1 0-.146-.062-.146-.193s.1-.257.293-.387a1.418 1.418 0 00.488-.675 1.458 1.458 0 00.195-.58.224.224 0 00-.147-.241.96.96 0 01-.342-.243 7.71 7.71 0 00-.437-.192 3.062 3.062 0 01-.533-.293.56.56 0 01-.288-.482 2.117 2.117 0 01.143-.482c.033-.087.07-.174.106-.26.071-.067.144-.127.216-.192l2.237 2.235c0 .258.159.406.453.453l.246.246a22.217 22.217 0 01-2.5 2.008.785.785 0 01.162-.257.422.422 0 01.112-.072.49.49 0 00-.019-.293m-1.345-10.628a.68.68 0 00-.588.094.865.865 0 00-.588.571.086.086 0 01-.1.1.9.9 0 00-.385.1 3.951 3.951 0 00-.482.195c-.195 0-.292-.063-.292-.195 0-.19.289-.322.87-.387.257-.314.415-.5.477-.567a1.116 1.116 0 01.452-.19 2.157 2.157 0 00.723-.712 2.3 2.3 0 00.363-.615h.089c0 .317.135.474.406.474.2 0 .369-.224.507-.667a3.383 3.383 0 00.81.193.738.738 0 00.709-.368h1.209c-.008.03-.017.062-.027.09l-.029.079a.01.01 0 00.006 0 16.058 16.058 0 01-3.242 5.783c-.011-.1-.021-.2-.033-.295-.024.029-.285-.883-.349-.883-.12 0-.276.227-.458.677s-.308.742-.368.869l-.97.193a3.6 3.6 0 01-.867.1 2.435 2.435 0 01-.821-.339 2.5 2.5 0 00-.823-.339 6.282 6.282 0 00-.821-.193c-.355-.063-.531-.159-.531-.288 0-.193.128-.292.387-.292a4.088 4.088 0 01.772.146c.388.1.774.195 1.16.29s.74.195 1.062.29a3.439 3.439 0 00.582.144l.58-.193a1.189 1.189 0 01.195-.529 1.174 1.174 0 00.2-.533 4.58 4.58 0 00.358-1.064 5.5 5.5 0 00.152-1.159c0-.317-.1-.506-.295-.569m2.564-5.874h2.28a16 16 0 01-.38 2.828 3.143 3.143 0 00-.49-.865l-.785-.774a19.775 19.775 0 00-.147-.677.752.752 0 00-.135-.23 1.54 1.54 0 01-.341-.282m.942 11.832c-.193 0-.288.049-.288.146a4.367 4.367 0 01-.092.6l-1.438-1.438a17.488 17.488 0 004.082-7.509.814.814 0 00.07-.062q.492.193.639 0a.593.593 0 00.144-.285c0-.192-.162-.447-.482-.766h-.122a17.306 17.306 0 00.29-2.516h4.153a21.6 21.6 0 01-5.838 14.071l-.178-.178v-.04c-.06-.444-.128-.881-.212-1.3-.1-.479-.338-.72-.724-.72M54.469 20.65c0 .008.006.019.006.022a1.586 1.586 0 01-.1.487 3.947 3.947 0 01-.192.482 2.9 2.9 0 00.772.677 8.094 8.094 0 01.87.677 4.635 4.635 0 01.434 1.118 5.555 5.555 0 01.243 1.024 2.244 2.244 0 01-.29.683 1.133 1.133 0 01-.965.583l-.1-.1a1.429 1.429 0 01.201-.571 1.461 1.461 0 00.195-.571.778.778 0 00.387-.574c-.132-.062-.227-.111-.292-.143a3.161 3.161 0 01-.482-.43c0-.19-.195-.285-.58-.285a.784.784 0 00-.485.146c-.127.1-.288.209-.482.336l-.192-.387a.93.93 0 00.1-.407l-.772-1.293a3.127 3.127 0 00-1.064-.338 1.733 1.733 0 00-.775.027 1.753 1.753 0 01-.751-.043 1 1 0 00-.772.244 3.429 3.429 0 00-.64.628c-.1.119.041.274-.249.216a1.447 1.447 0 01-.239-.255l4.389-4.388a1.2 1.2 0 00.1.141 13.342 13.342 0 01.8.946 16.149 16.149 0 01.932 1.347m-10.537 29a3.551 3.551 0 001.236.639 21.844 21.844 0 01-3.67.442v-4.157a2.527 2.527 0 00.615.656 2.774 2.774 0 00.851.144c.433.032.652.114.652.241a.881.881 0 01-.146.436.854.854 0 00-.146.436 1.441 1.441 0 00.606 1.16m-2.433 6.964v-4.417a23.107 23.107 0 004.8-.661.694.694 0 01.038.09.805.805 0 01.021.124 3.384 3.384 0 01.964.918c.128.257.482.387 1.064.387a.771.771 0 00.629-.193 3.633 3.633 0 01.328-.388 1.211 1.211 0 01.483-.29.612.612 0 00.387-.29 1.231 1.231 0 00.678-.579 1.774 1.774 0 00.579-.772.529.529 0 00.387-.241 3.006 3.006 0 00.387-1.013c.057-.032.111-.068.166-.1.006-.049.016-.1.027-.147a23.352 23.352 0 004.164-3.113l3.124 3.118a27.469 27.469 0 01-18.231 7.564m19.266-8.6l-3.117-3.119a23.071 23.071 0 006.268-15.108h4.418a27.475 27.475 0 01-7.564 18.231m7.564-19.7h-4.422a23.029 23.029 0 00-4.464-12.922 1.261 1.261 0 00-.22-.4 1.477 1.477 0 00-.25-.225c-.361-.46-.742-.9-1.135-1.33a1.214 1.214 0 01-.117-.311l3.039-3.04a27.472 27.472 0 017.564 18.231m-26.83-26.83A27.469 27.469 0 0159.73 9.048l-2.69 2.695a2.276 2.276 0 01-.151-.409c-.212-.2-.352-.3-.4-.3a.743.743 0 01-.438-.62 1.014 1.014 0 00-.241-.617 1.774 1.774 0 01-.973-.854q-.39-.663-.774-.664a.857.857 0 01-.632-.073 2 2 0 00-.632-.173 2.14 2.14 0 00-.678.1 6.8 6.8 0 01-.759.19c-.035.03-.065.065-.1.1a22.989 22.989 0 00-9.433-2.5q.383-.6.1-.793c-.054-.054-.2.029-.423.236zm0 5.884a21.56 21.56 0 019 2.3c0 .022-.011.043-.014.063.116.12.243.258.384.425.16.192.274.319.339.384a6.56 6.56 0 00.29.859 4.9 4.9 0 00.29.476 1.079 1.079 0 00.146.812 6.9 6.9 0 00.533.813 3.068 3.068 0 00.387-.048 2.948 2.948 0 01.482-.051c.132 0 .276.1.436.29a1.848 1.848 0 01.339.58 1.27 1.27 0 01.082.319l-1.189 1.184v-.006a6.68 6.68 0 00-.572-1.606.95.95 0 00-.762-.243c-.065-.065-.29-.344-.672-.834s-.61-.736-.674-.736a.4.4 0 00-.292.1 3.3 3.3 0 00.193.344q.1.15.387.637a.171.171 0 01-.192.2.623.623 0 00.482.488l-.1.193.282.566a17.447 17.447 0 00-9.585-3.358zm0 5.618a16.017 16.017 0 0110.1 4.191l-2.968 2.966a11.825 11.825 0 00-7.132-2.959zm0 5.678a10.327 10.327 0 015.76 2.262.636.636 0 00-.2.108.734.734 0 01-.193.136c-.065.03-.1.108-.1.23 0 .16.214.219.363.244l-1.14 1.14v-.013a2.068 2.068 0 00-.43.3c-.265.133-.412.249-.444.346-.025.07-.055.182-.1.333l-.382.38a.515.515 0 01-.163.022c-.132 0-.331-.128-.594-.393s-.458-.393-.59-.393a.6.6 0 00-.445.151.275.275 0 01-.346.048q-.2-.2.444-.442c.426-.162.709-.281.84-.346a1.848 1.848 0 00.789-1.552c0-.331-.132-.5-.4-.5l-.293.279a2.682 2.682 0 00-.693.466c-.2.185-.361.344-.493.472a1.341 1.341 0 00-.593-.1h-.579l-.032.029zm-.858 6.648c.051.1.108.149.176.149a.73.73 0 01.469.151.6.6 0 00.5.063.322.322 0 00.108.181.364.364 0 00.374.2 1.233 1.233 0 01.119.127.688.688 0 01.059.1 2.739 2.739 0 00.155.346c.016.008.029.008.043.014.014.029.021.051.038.079a.388.388 0 00.309.049.36.36 0 01.246.025 1.764 1.764 0 00.017.217h.059c.01.076.022.154.04.236a2 2 0 01.051.43v.192q0 .1-.1.1a.8.8 0 00-.312.574c0 .128.086.174.257.143a.309.309 0 01.363.144.736.736 0 01.206.572v.861a.316.316 0 00.147.287c.1.063.144.127.144.19a3.3 3.3 0 01-.1.72 1.243 1.243 0 01-.292.62c-.067.063-.235.063-.5 0a3.07 3.07 0 00-.7-.1q-.2 0-.4.574a6.368 6.368 0 00-.3.872c-.067.257-.2.387-.4.387a1.773 1.773 0 00-.4.048.6.6 0 01-.075.01l-.327.522-.1.141a4.7 4.7 0 01-2.934-1.278l.514-.514a4.524 4.524 0 00.93-.219c.059-.022.113-.044.166-.067.518-.227.471-.644.731-1.1.17-.3.651-.626.263-.959.436-.764-1.58-.772-1.934-.6-.417.2-.151.644-.373.976-.116.174-.3.181-.458.3a2.537 2.537 0 00-.737 1.007l-.01.01a4.755 4.755 0 01-.328-.734.221.221 0 01.076.017c-.036-.078-.051-.136-.024-.163h.1v.1c.255.067.418.067.483 0a4.108 4.108 0 00.144-.533 6 6 0 01.533-1.137.434.434 0 01-.23-.292c-.03-.13-.1-.163-.227-.1a.313.313 0 00-.184.292.573.573 0 01-.181.388.538.538 0 01-.38.193.257.257 0 00-.292-.29.562.562 0 00-.387.193q-.195 0-.919.1a2.056 2.056 0 01-.918 0c-.13-.127.033-.258.485-.388a1.344 1.344 0 01.482-1.168 1.508 1.508 0 00.58.195l.193-.195h.1c.192 0 .306.163.339.488s.111.488.243.488a.546.546 0 00.385-.2v-.488c.127-.52.222-.878.288-1.075v-.292a1.516 1.516 0 01.3-.476h.114a.974.974 0 01.449-.208 1.564 1.564 0 00.195-.594c.193-.067.533-.2 1.016-.4s.728-.4.728-.6v-.051a4.954 4.954 0 01.656-.092.444.444 0 00.147.231M40.03 1.473v4.418a23.072 23.072 0 00-15.105 6.28l-3.121-3.123a27.465 27.465 0 0118.229-7.564m-19.266 8.599l3.123 3.121a23.078 23.078 0 00-6.268 15.11h-4.419a27.48 27.48 0 017.564-18.231" fill="#00adef"/></g></g></g></g></svg>