<svg width="201" height="200" fill="none" xmlns="http://www.w3.org/2000/svg"><g filter="url(#filter0_d)"><circle cx="100.5" cy="90" r="75" fill="#fff"/></g><path d="M100.625 100.721a10.162 10.162 0 01-5.746-1.522 10.192 10.192 0 01-3.918-4.476 10.212 10.212 0 011.91-11.225 10.166 10.166 0 0111.102-2.452 10.188 10.188 0 014.654 3.704 10.217 10.217 0 011.795 5.675 10.048 10.048 0 01-2.761 7.188 10.013 10.013 0 01-7.036 3.108zM131.5 89.873l-1.919-10.246-16.322 3.159 10.531-13.222-7.861-6.686-10.531 13.205L105.215 59l-10.164.117.184 17.083L84.52 63.28l-7.727 6.819L87.608 83.07l-16.44-2.791L69.5 90.692l16.389 2.775-14.286 8.709 5.173 9.009 14.303-8.792-5.507 16.13L95.168 122l5.507-16.13 5.858 15.996 9.513-3.677-5.841-16.013 14.469 8.357 5.007-9.126-14.453-8.358 16.272-3.176z" fill="#355DAB"/><defs><filter id="filter0_d" x=".5" y="0" width="200" height="200" filterUnits="userSpaceOnUse" color-interpolation-filters="sRGB"><feFlood flood-opacity="0" result="BackgroundImageFix"/><feColorMatrix in="SourceAlpha" values="0 0 0 0 0 0 0 0 0 0 0 0 0 0 0 0 0 0 127 0" result="hardAlpha"/><feOffset dy="10"/><feGaussianBlur stdDeviation="12.5"/><feComposite in2="hardAlpha" operator="out"/><feColorMatrix values="0 0 0 0 0 0 0 0 0 0 0 0 0 0 0 0 0 0 0.15 0"/><feBlend in2="BackgroundImageFix" result="effect1_dropShadow"/><feBlend in="SourceGraphic" in2="effect1_dropShadow" result="shape"/></filter></defs></svg>