<svg xmlns="http://www.w3.org/2000/svg" width="33.389" height="33.389"><path d="M16.694 3.008c4.458 0 4.986.017 6.746.1a9.24 9.24 0 013.1.575 5.173 5.173 0 011.92 1.249 5.172 5.172 0 011.249 1.92 9.238 9.238 0 01.575 3.1c.08 1.76.1 2.288.1 6.746s-.017 4.986-.1 6.746a9.238 9.238 0 01-.575 3.1 5.528 5.528 0 01-3.168 3.168 9.238 9.238 0 01-3.1.575c-1.76.08-2.288.1-6.746.1s-4.986-.017-6.746-.1a9.237 9.237 0 01-3.1-.575 5.172 5.172 0 01-1.92-1.249A5.172 5.172 0 013.68 26.54a9.238 9.238 0 01-.575-3.1c-.08-1.76-.1-2.288-.1-6.746s.017-4.986.1-6.746a9.238 9.238 0 01.575-3.1 5.172 5.172 0 011.249-1.92A5.173 5.173 0 016.848 3.68a9.239 9.239 0 013.1-.575c1.76-.08 2.288-.1 6.746-.1m0-3.008c-4.534 0-5.1.019-6.883.1a12.254 12.254 0 00-4.052.779A8.183 8.183 0 002.8 2.8 8.183 8.183 0 00.876 5.759 12.254 12.254 0 00.1 9.811C.019 11.592 0 12.16 0 16.694s.019 5.1.1 6.883a12.254 12.254 0 00.776 4.053A8.184 8.184 0 002.8 30.587a8.183 8.183 0 002.957 1.926 12.254 12.254 0 004.052.776c1.781.081 2.349.1 6.883.1s5.1-.019 6.883-.1a12.254 12.254 0 004.052-.776 8.537 8.537 0 004.882-4.882 12.254 12.254 0 00.776-4.052c.081-1.781.1-2.349.1-6.883s-.019-5.1-.1-6.883a12.254 12.254 0 00-.776-4.052A8.183 8.183 0 0030.587 2.8 8.183 8.183 0 0027.63.876 12.254 12.254 0 0023.577.1C21.8.019 21.228 0 16.694 0zm0 8.122a8.573 8.573 0 108.573 8.573 8.573 8.573 0 00-8.573-8.57zm0 14.138a5.565 5.565 0 115.565-5.565 5.565 5.565 0 01-5.565 5.567zM27.609 7.783a2 2 0 11-2-2 2 2 0 012 2z" fill="#fff"/></svg>