<svg xmlns="http://www.w3.org/2000/svg" width="27.873" height="24.776"><path d="M27.219.58a14.121 14.121 0 01-3.7 1.394c-3.268-4.416-11.542-.93-10.019 5.578-5.661-.465-9.145-3.254-11.976-6.508C0 3.834 1.306 8.249 3.266 9.409a4.182 4.182 0 01-2.4-.7c.218 3.719 1.96 5.345 4.573 6.275a8.234 8.234 0 01-2.4 0 5.959 5.959 0 005.453 4.425A11.046 11.046 0 010 21.961c2.613 1.628 5.444 3.022 9.364 2.789 9.581-.464 15.9-7.9 16.114-18.593 1.089-.929 2.178-1.859 2.4-3.021a11.906 11.906 0 01-3.049.93A6.56 6.56 0 0027.219.58z" fill="#fff" fill-rule="evenodd"/></svg>