<svg width="126" height="126" fill="none" xmlns="http://www.w3.org/2000/svg"><g filter="url(#filter0_d)"><path d="M25 53c0-20.987 17.013-38 38-38s38 17.013 38 38-17.013 38-38 38-38-17.013-38-38z" fill="#fff"/><path d="M62.85 40.2c5.578 0 10.1-4.522 10.1-10.1 0-5.578-4.522-10.1-10.1-10.1-5.578 0-10.1 4.522-10.1 10.1 0 5.578 4.522 10.1 10.1 10.1z" fill="url(#paint0_radial)"/><path d="M43.1 51.6c5.578 0 10.1-4.522 10.1-10.1 0-5.578-4.522-10.1-10.1-10.1-5.578 0-10.1 4.522-10.1 10.1 0 5.578 4.522 10.1 10.1 10.1z" fill="url(#paint1_radial)"/><path d="M43.1 74.39c5.578 0 10.1-4.522 10.1-10.1 0-5.578-4.522-10.1-10.1-10.1-5.578 0-10.1 4.522-10.1 10.1 0 5.578 4.522 10.1 10.1 10.1z" fill="url(#paint2_radial)"/><path d="M62.85 85.79c5.578 0 10.1-4.522 10.1-10.1 0-5.578-4.522-10.1-10.1-10.1-5.578 0-10.1 4.522-10.1 10.1 0 5.578 4.522 10.1 10.1 10.1z" fill="url(#paint3_radial)"/><path d="M82.59 74.39c5.578 0 10.1-4.522 10.1-10.1 0-5.578-4.522-10.1-10.1-10.1-5.578 0-10.1 4.522-10.1 10.1 0 5.578 4.522 10.1 10.1 10.1z" fill="url(#paint4_radial)"/><path d="M82.59 51.6c5.578 0 10.1-4.522 10.1-10.1 0-5.578-4.522-10.1-10.1-10.1-5.578 0-10.1 4.522-10.1 10.1 0 5.578 4.522 10.1 10.1 10.1z" fill="url(#paint5_radial)"/></g><defs><radialGradient id="paint0_radial" cx="0" cy="0" r="1" gradientUnits="userSpaceOnUse" gradientTransform="matrix(10.1 0 0 10.1 62.85 30.1)"><stop stop-color="#BD2027"/><stop offset="1" stop-color="#E82130"/></radialGradient><radialGradient id="paint1_radial" cx="0" cy="0" r="1" gradientUnits="userSpaceOnUse" gradientTransform="translate(43.1 41.5) scale(10.11)"><stop stop-color="#075777"/><stop offset="1" stop-color="#00558A"/></radialGradient><radialGradient id="paint2_radial" cx="0" cy="0" r="1" gradientUnits="userSpaceOnUse" gradientTransform="translate(43.1 64.29) scale(10.11)"><stop stop-color="#D24B27"/><stop offset="1" stop-color="#F26E25"/></radialGradient><radialGradient id="paint3_radial" cx="0" cy="0" r="1" gradientUnits="userSpaceOnUse" gradientTransform="matrix(10.1 0 0 10.1 62.85 75.69)"><stop offset=".01" stop-color="#2A572A"/><stop offset=".54" stop-color="#396633"/><stop offset="1" stop-color="#4A773E"/></radialGradient><radialGradient id="paint4_radial" cx="0" cy="0" r="1" gradientUnits="userSpaceOnUse" gradientTransform="translate(82.59 64.29) scale(10.11)"><stop stop-color="#CD8E2A"/><stop offset=".08" stop-color="#D49427"/><stop offset=".38" stop-color="#E7A31F"/><stop offset=".69" stop-color="#F3AD1B"/><stop offset="1" stop-color="#F7B019"/></radialGradient><radialGradient id="paint5_radial" cx="0" cy="0" r="1" gradientUnits="userSpaceOnUse" gradientTransform="translate(82.59 41.5) scale(10.11)"><stop offset=".01" stop-color="#AF2C24"/><stop offset=".45" stop-color="#CD3826"/><stop offset="1" stop-color="#ED4528"/></radialGradient><filter id="filter0_d" x="0" y="0" width="126" height="126" filterUnits="userSpaceOnUse" color-interpolation-filters="sRGB"><feFlood flood-opacity="0" result="BackgroundImageFix"/><feColorMatrix in="SourceAlpha" values="0 0 0 0 0 0 0 0 0 0 0 0 0 0 0 0 0 0 127 0" result="hardAlpha"/><feOffset dy="10"/><feGaussianBlur stdDeviation="12.5"/><feComposite in2="hardAlpha" operator="out"/><feColorMatrix values="0 0 0 0 0 0 0 0 0 0 0 0 0 0 0 0 0 0 0.15 0"/><feBlend in2="BackgroundImageFix" result="effect1_dropShadow"/><feBlend in="SourceGraphic" in2="effect1_dropShadow" result="shape"/></filter></defs></svg>