<svg width="126" height="126" fill="none" xmlns="http://www.w3.org/2000/svg"><g filter="url(#filter0_d)"><path d="M25 53c0-20.987 17.013-38 38-38s38 17.013 38 38-17.013 38-38 38-38-17.013-38-38z" fill="#fff"/><path d="M93.782 42.956l-9.76 3.85a22.37 22.37 0 01-41.51 16.35l-9.77 3.84a32.85 32.85 0 0061-24l.04-.04z" fill="url(#paint0_linear)"/><path d="M41.262 59.986a22.37 22.37 0 0141.51-16.35l9.77-3.84a32.85 32.85 0 00-61 24l9.72-3.81z" fill="url(#paint1_linear)"/><path d="M74.942 41.876l-33.1 13.03 4.56 11.56 33.09-13.03 3.14-7.91-7.69-3.65z" fill="url(#paint2_linear)"/></g><defs><linearGradient id="paint0_linear" x1="32.742" y1="64.606" x2="95.502" y2="64.606" gradientUnits="userSpaceOnUse"><stop stop-color="#8DC63F"/><stop offset=".13" stop-color="#82C343"/><stop offset=".36" stop-color="#64BC4C"/><stop offset=".66" stop-color="#33B05B"/><stop offset="1" stop-color="#00A651"/></linearGradient><linearGradient id="paint1_linear" x1="272.037" y1="1006.59" x2="4196.54" y2="1006.59" gradientUnits="userSpaceOnUse"><stop stop-color="#8DC63F"/><stop offset=".13" stop-color="#82C343"/><stop offset=".36" stop-color="#64BC4C"/><stop offset=".66" stop-color="#33B05B"/><stop offset="1" stop-color="#00A651"/></linearGradient><linearGradient id="paint2_linear" x1="691.219" y1="903.018" x2="2355.04" y2="903.018" gradientUnits="userSpaceOnUse"><stop stop-color="#8DC63F"/><stop offset=".13" stop-color="#82C343"/><stop offset=".36" stop-color="#64BC4C"/><stop offset=".66" stop-color="#33B05B"/><stop offset="1" stop-color="#00A651"/></linearGradient><filter id="filter0_d" x="0" y="0" width="126" height="126" filterUnits="userSpaceOnUse" color-interpolation-filters="sRGB"><feFlood flood-opacity="0" result="BackgroundImageFix"/><feColorMatrix in="SourceAlpha" values="0 0 0 0 0 0 0 0 0 0 0 0 0 0 0 0 0 0 127 0" result="hardAlpha"/><feOffset dy="10"/><feGaussianBlur stdDeviation="12.5"/><feComposite in2="hardAlpha" operator="out"/><feColorMatrix values="0 0 0 0 0 0 0 0 0 0 0 0 0 0 0 0 0 0 0.15 0"/><feBlend in2="BackgroundImageFix" result="effect1_dropShadow"/><feBlend in="SourceGraphic" in2="effect1_dropShadow" result="shape"/></filter></defs></svg>