<svg width="126" height="126" fill="none" xmlns="http://www.w3.org/2000/svg"><g filter="url(#filter0_d)"><path d="M25 53c0-20.987 17.013-38 38-38s38 17.013 38 38-17.013 38-38 38-38-17.013-38-38z" fill="#fff"/><path d="M55.366 61.54a15.75 15.75 0 01-4.19-7.95 13.11 13.11 0 011.88-10.31 8.33 8.33 0 015.79-3.5c5.62-.7 11.33 4.38 12.71 11.3a13.09 13.09 0 01-1.87 10.31 8.28 8.28 0 01-5.8 3.5 10.45 10.45 0 01-8.52-3.35zm12-18.35a10.36 10.36 0 00-8.46-3.32 8.2 8.2 0 00-5.73 3.46 12.998 12.998 0 00-1.86 10.24c1.39 6.87 7.06 11.91 12.63 11.23a8.2 8.2 0 005.73-3.46 13 13 0 001.86-10.24 15.64 15.64 0 00-4.22-7.91h.05z" fill="#1E95D3"/><path d="M54.316 61.28a15.06 15.06 0 01-3.34-5.19 13.638 13.638 0 01.2-10.6 10 10 0 015.6-5.21c5.73-2.06 12.46 1.68 15 8.34a13.57 13.57 0 01-.22 10.57 10 10 0 01-5.61 5.22c-3.95 1.43-8.39.05-11.63-3.13zm2.47-21a9.861 9.861 0 00-5.54 5.16 13.49 13.49 0 00-.19 10.52c2.5 6.67 9.21 10.39 14.89 8.32a9.811 9.811 0 005.55-5.16 13.55 13.55 0 00.19-10.51c-2.52-6.61-9.2-10.33-14.88-8.29l-.02-.04z" fill="#1E95D3"/><path d="M53.226 61.28a13.835 13.835 0 01-2.06-2.64 13.54 13.54 0 01-1.61-10.36 11.59 11.59 0 015.15-7v.05-.05c5.63-3.46 13.21-1.31 16.89 4.8a13.58 13.58 0 011.58 10.3 11.62 11.62 0 01-5.12 7.06 12.07 12.07 0 01-14.83-2.16zm16.23-17.8a12 12 0 00-14.7-2.14 11.54 11.54 0 00-5.08 7 13.42 13.42 0 001.58 10.22c3.65 6.06 11.16 8.2 16.75 4.76a11.5 11.5 0 005.07-7 13.491 13.491 0 00-1.52-10.22 13.653 13.653 0 00-2.1-2.62z" fill="#1E95D3"/><path d="M52.196 61.62a13.121 13.121 0 019.72-22.34 12.71 12.71 0 019.09 4.19 13.1 13.1 0 01-1 18.4 12.94 12.94 0 01-9.21 3.43 12.7 12.7 0 01-8.6-3.68zm18.28-18.5a12.57 12.57 0 00-8.56-3.69 13 13 0 00-10.08 21.65 12.552 12.552 0 009 4.15 12.83 12.83 0 009.13-3.4 13 13 0 00.94-18.24c-.13-.16-.28-.31-.43-.47z" fill="#1E95D3"/><path d="M51.306 62.33a12.11 12.11 0 01-3.4-7 14.22 14.22 0 013-10.56c4.75-6.19 13.33-7.84 19.12-3.66a12 12 0 014.87 8.24 14.27 14.27 0 01-3 10.56c-4.75 6.2-13.32 7.84-19.12 3.67a12.4 12.4 0 01-1.47-1.25zm20.06-19.91a10.718 10.718 0 00-1.45-1.23c-5.74-4.14-14.25-2.51-19 3.64a14.121 14.121 0 00-2.9 10.45 11.852 11.852 0 004.82 8.18c5.75 4.13 14.25 2.5 19-3.64a14.119 14.119 0 002.94-10.48 11.88 11.88 0 00-3.41-6.92z" fill="#1E95D3"/><path d="M50.686 63.41a11.269 11.269 0 01-2.7-4.38 14.998 14.998 0 011.29-11.75c4-7.4 12.61-11.14 19.28-8.33a11.1 11.1 0 016.22 6.74 15.092 15.092 0 01-1.29 11.8c-4 7.4-12.61 11.14-19.29 8.32a10.998 10.998 0 01-3.51-2.4zm21.3-22.07a10.852 10.852 0 00-3.43-2.33c-6.62-2.79-15.2.92-19.13 8.27a14.91 14.91 0 00-1.28 11.71 11 11 0 006.15 6.67c6.62 2.78 15.2-.93 19.13-8.28a14.85 14.85 0 001.23-11.7 11.172 11.172 0 00-2.67-4.34z" fill="#1E95D3"/><path d="M50.316 64.74a10.53 10.53 0 01-1.67-2.17c-2-3.42-2.22-8-.64-12.47 2.95-8.43 11.35-14.29 18.72-13.07a10.35 10.35 0 017.38 5.07c2 3.42 2.22 8 .64 12.46-2.95 8.43-11.34 14.3-18.71 13.08a10.4 10.4 0 01-5.72-2.9zm-2.19-14.6c-1.57 4.47-1.34 9 .63 12.36a10.22 10.22 0 007.3 5c7.31 1.22 15.65-4.61 18.58-13 1.56-4.47 1.33-9-.64-12.36a10.198 10.198 0 00-7.3-5c-7.31-1.2-15.64 4.62-18.57 13z" fill="#1E95D3"/><path d="M50.215 66.28c-.14-.14-.28-.29-.41-.44-2.63-3-3.6-7.52-2.67-12.49 1.75-9.26 9.55-17.22 17.42-17.77a10.07 10.07 0 018.43 3.29c2.63 3 3.6 7.52 2.66 12.48-1.77 9.23-9.57 17.18-17.42 17.73a10.109 10.109 0 01-8.01-2.8zm22.23-27.76a10 10 0 00-7.89-2.81c-7.78.55-15.53 8.45-17.26 17.62-.93 4.93 0 9.44 2.64 12.38a9.88 9.88 0 008.32 3.24c7.79-.54 15.53-8.45 17.26-17.62.93-4.92 0-9.43-2.63-12.37-.16-.15-.33-.3-.44-.44z" fill="#1E95D3"/><path d="M50.376 67.78c-2.49-2.49-3.81-6.42-3.63-11 .36-9.74 7.21-19.66 15.27-22.11a10.15 10.15 0 019.38 1.36c3.13 2.38 4.81 6.71 4.62 11.88-.37 9.74-7.22 19.66-15.28 22.11a10.21 10.21 0 01-9.38-1.36 11.5 11.5 0 01-.98-.88zm21.91-30.8a8.687 8.687 0 00-1-.85 10.06 10.06 0 00-9.23-1.35c-8 2.44-14.82 12.3-15.18 22-.19 5.12 1.47 9.41 4.57 11.77a10.05 10.05 0 009.26 1.34c8-2.43 14.81-12.3 15.17-22 .17-4.55-1.12-8.45-3.59-10.91z" fill="#1E95D3"/><path d="M50.746 69.28a14.87 14.87 0 01-3.87-8.93c-1.15-9.92 4.41-21.6 12.39-26 3.59-2 7.23-2.25 10.24-.75 3.46 1.68 5.79 5.61 6.38 10.68 1.15 9.92-4.41 21.59-12.4 26-3.59 2-7.22 2.26-10.24.76a9.59 9.59 0 01-2.5-1.76zm21.16-33.8a9.51 9.51 0 00-2.46-1.79c-3-1.48-6.57-1.21-10.12.76-7.93 4.4-13.46 16-12.32 25.88.59 5.06 2.89 8.94 6.3 10.64 3 1.48 6.57 1.22 10.12-.75 7.94-4.4 13.46-16 12.32-25.88a14.76 14.76 0 00-3.84-8.86z" fill="#1E95D3"/><path d="M51.236 70.62a15.09 15.09 0 01-3.68-6.68c-2.75-9.75 1.2-22.88 8.79-29.28 3.58-3 7.48-4.13 11-3.13 3.7 1.06 6.5 4.33 7.87 9.2 2.75 9.74-1.19 22.88-8.79 29.28-3.58 3-7.47 4.13-11 3.13a9.751 9.751 0 01-4.19-2.52zm20.18-36.47a9.529 9.529 0 00-4.14-2.48c-3.44-1-7.28.11-10.83 3.1-7.55 6.36-11.47 19.43-8.74 29.12 1.36 4.83 4.12 8.06 7.77 9.11 3.44 1 7.29-.11 10.83-3.1 7.56-6.37 11.48-19.43 8.74-29.13a15 15 0 00-3.63-6.62z" fill="#1E95D3"/><path d="M51.836 71.72a15.419 15.419 0 01-3-4.33c-4.39-9.17-2.35-23.39 4.54-31.7 3.42-4.12 7.48-6.17 11.43-5.77 3.77.39 7 3 9.08 7.36 4.38 9.17 2.34 23.39-4.54 31.69-3.42 4.13-7.48 6.18-11.44 5.77a9.94 9.94 0 01-6.07-3.02zm19-38.67a9.87 9.87 0 00-6-3c-3.9-.4-7.91 1.63-11.3 5.72-6.88 8.28-8.91 22.43-4.55 31.51 2.06 4.31 5.24 6.89 9 7.27 3.9.4 7.92-1.63 11.3-5.71 6.85-8.26 8.88-22.41 4.52-31.54a15.49 15.49 0 00-2.99-4.25h.02z" fill="#1E95D3"/><path d="M52.336 72.46a17.75 17.75 0 01-1.61-1.89c-6-8.21-6.1-23.06-.25-33.11 3-5.18 7.22-8.34 11.54-8.65 3.76-.28 7.32 1.6 10 5.29 6 8.2 6.11 23 .26 33.11-3 5.18-7.23 8.33-11.55 8.65a10.67 10.67 0 01-8.39-3.4zm17.97-40.18a10.52 10.52 0 00-8.28-3.36c-4.27.36-8.47 3.48-11.42 8.61-5.82 10-5.71 24.78.25 32.94 2.66 3.65 6.17 5.5 9.88 5.23 4.26-.31 8.42-3.43 11.41-8.57 5.82-10 5.71-24.78-.25-32.94a16.303 16.303 0 00-1.59-1.91z" fill="#1E95D3"/><path d="M52.606 72.78c-7.05-7.06-9.27-21.56-4.89-32.84 2.43-6.23 6.49-10.48 11.16-11.66 3.69-.94 7.49.15 10.7 3.07 7.51 6.83 10 21.81 5.46 33.38-2.42 6.22-6.48 10.48-11.16 11.67-3.69.94-7.49-.15-10.7-3.07l-.57-.55zm.69.42l-.06.06.06-.06c3.16 2.88 6.91 4 10.55 3 4.61-1.18 8.63-5.4 11-11.57 4.52-11.48 2.09-26.35-5.38-33.17-3.17-2.88-6.92-4-10.55-3-4.62 1.17-8.64 5.39-11 11.57-4.52 11.48-2.09 26.38 5.38 33.17z" fill="#1E95D3"/><path d="M52.556 72.7c-6.51-6.51-9.71-18.68-7.27-29.58 1.59-7.11 5.3-12.46 10.16-14.68a11.85 11.85 0 0111.11.71c8.92 5.13 13.81 19.62 11 32.39-1.59 7.11-5.29 12.46-10.16 14.68a11.821 11.821 0 01-11.19-.7 17.617 17.617 0 01-3.65-2.82zm17.61-40.6a16.822 16.822 0 00-3.61-2.82 11.67 11.67 0 00-11-.7c-4.81 2.2-8.48 7.5-10.06 14.55-2.94 12.73 1.93 27.15 10.75 32.24a11.67 11.67 0 0011 .7c4.82-2.2 8.48-7.51 10.06-14.56 2.46-10.84-.75-22.95-7.18-29.41h.04z" fill="#1E95D3"/><path d="M51.896 72.28c-5.8-5.81-9.41-15.53-8.71-25.3.54-7.69 3.63-14 8.45-17.43a13 13 0 0111.52-1.9c10 3 17.39 16.49 16.42 30.09-.55 7.69-3.63 14-8.46 17.43a13 13 0 01-11.56 1.84v-.08.08a18.46 18.46 0 01-7.66-4.73zm18.84-39.71a18.31 18.31 0 00-7.63-4.74 12.751 12.751 0 00-11.37 1.82c-4.78 3.35-7.83 9.63-8.38 17.29-.69 9.72 2.9 19.39 8.66 25.16a18.34 18.34 0 007.64 4.74 12.8 12.8 0 0011.36-1.82c4.78-3.35 7.84-9.65 8.38-17.29.69-9.72-2.84-19.39-8.66-25.16z" fill="#1E95D3"/><path d="M50.646 71.46a32.58 32.58 0 01-9-20.19c-.63-7.89 1.57-15 6-19.63a14.83 14.83 0 0111.7-4.66c10.89.59 20.65 12.44 21.78 26.41.64 7.89-1.56 15-6 19.63a14.841 14.841 0 01-11.69 4.67 19.85 19.85 0 01-12.79-6.23zm21.34-38.13a19.77 19.77 0 00-12.65-6.17 14.669 14.669 0 00-11.54 4.61c-4.43 4.51-6.61 11.65-5.98 19.51 1.12 13.89 10.81 25.66 21.6 26.25a14.61 14.61 0 0011.54-4.64c4.44-4.54 6.61-11.64 6-19.48a32.45 32.45 0 00-8.97-20.08z" fill="#1E95D3"/><path d="M48.806 70.67a31.15 31.15 0 01-8.11-14.63c-1.85-7.66-.77-15.31 3-21a17.65 17.65 0 0111.6-7.83c11.4-2 23.41 7.57 26.77 21.41 1.86 7.65.77 15.3-3 21a17.61 17.61 0 01-11.6 7.84c-6.62 1.17-13.44-1.57-18.66-6.79zm25-36.54c-5.17-5.17-11.93-7.85-18.49-6.72a17.222 17.222 0 00-11.47 7.75c-3.72 5.63-4.8 13.22-3 20.83a30.999 30.999 0 008.06 14.55c5.18 5.17 11.94 7.89 18.49 6.72a17.19 17.19 0 0011.47-7.75c3.73-5.64 4.81-13.23 3-20.83a31 31 0 00-8.06-14.55z" fill="#1E95D3"/><path d="M46.656 70.22a29.15 29.15 0 01-6.17-9.15 27.378 27.378 0 01-.47-21.26 20.79 20.79 0 0111.09-11.37c11.52-4.81 25.5 2 31.17 15.15a27.49 27.49 0 01.47 21.27 20.79 20.79 0 01-11.1 11.36c-8.42 3.52-18.15.84-24.99-6zm29.3-35.63c-6.78-6.79-16.43-9.45-24.77-6a20.56 20.56 0 00-11 11.25 27.27 27.27 0 00.47 21.11c5.63 13.11 19.5 19.86 30.9 15.09a20.6 20.6 0 0011-11.25 27.23 27.23 0 00-.47-21.11 28.94 28.94 0 00-6.13-9.09z" fill="#1E95D3"/><path d="M44.466 70.39a27.32 27.32 0 01-7.66-23.54 24.1 24.1 0 0110.16-16.16c11.21-7.65 26.8-4.17 34.74 7.76 7.94 11.93 5.3 27.83-5.91 35.53l-.06-.09.06.09c-9.77 6.66-22.87 4.88-31.33-3.59zm33.67-36c-8.39-8.36-21.37-10.11-31.06-3.53a23.93 23.93 0 00-10.06 16 27.161 27.161 0 007.6 23.42c8.4 8.4 21.38 10.17 31.06 3.56 11.12-7.63 13.74-23.43 5.88-35.27a27.662 27.662 0 00-3.42-4.15v-.03z" fill="#1E95D3"/><path d="M42.436 71.28c-10.13-10.14-9.88-26.87.57-37.32 10.45-10.45 27.18-10.68 37.31-.57 10.13 10.11 9.87 26.89-.57 37.31-10.44 10.42-27.19 10.7-37.31.58zm37.72-37.73c-10-10-26.64-9.79-37 .57s-10.6 26.95-.6 36.99c10 10.04 26.64 9.8 37-.56 10.36-10.36 10.65-26.95.6-37z" fill="#1E95D3"/><path d="M46.396 40.86a9.43 9.43 0 100-18.86 9.43 9.43 0 000 18.86z" fill="url(#paint0_linear)"/><path d="M87.745 64.42a9.43 9.43 0 100-18.86 9.43 9.43 0 000 18.86z" fill="url(#paint1_linear)"/><path d="M49.166 84.2a9.43 9.43 0 100-18.86 9.43 9.43 0 000 18.86z" fill="url(#paint2_linear)"/></g><defs><linearGradient id="paint0_linear" x1="39.725" y1="38.103" x2="53.068" y2="24.759" gradientUnits="userSpaceOnUse"><stop offset=".08" stop-color="#1E3768"/><stop offset=".38" stop-color="#136299"/><stop offset=".8" stop-color="#0599D7"/><stop offset="1" stop-color="#00AEEF"/></linearGradient><linearGradient id="paint1_linear" x1="868.172" y1="1032.69" x2="1224.06" y2="1032.69" gradientUnits="userSpaceOnUse"><stop offset=".08" stop-color="#1E3768"/><stop offset=".38" stop-color="#136299"/><stop offset=".8" stop-color="#0599D7"/><stop offset="1" stop-color="#00AEEF"/></linearGradient><linearGradient id="paint2_linear" x1="51.24" y1="801.823" x2="407.129" y2="801.823" gradientUnits="userSpaceOnUse"><stop offset=".08" stop-color="#1E3768"/><stop offset=".38" stop-color="#136299"/><stop offset=".8" stop-color="#0599D7"/><stop offset="1" stop-color="#00AEEF"/></linearGradient><filter id="filter0_d" x="0" y="0" width="126" height="126" filterUnits="userSpaceOnUse" color-interpolation-filters="sRGB"><feFlood flood-opacity="0" result="BackgroundImageFix"/><feColorMatrix in="SourceAlpha" values="0 0 0 0 0 0 0 0 0 0 0 0 0 0 0 0 0 0 127 0" result="hardAlpha"/><feOffset dy="10"/><feGaussianBlur stdDeviation="12.5"/><feComposite in2="hardAlpha" operator="out"/><feColorMatrix values="0 0 0 0 0 0 0 0 0 0 0 0 0 0 0 0 0 0 0.15 0"/><feBlend in2="BackgroundImageFix" result="effect1_dropShadow"/><feBlend in="SourceGraphic" in2="effect1_dropShadow" result="shape"/></filter></defs></svg>