<svg width="257" height="257" fill="none" xmlns="http://www.w3.org/2000/svg"><g filter="url(#filter0_d)"><circle cx="128.5" cy="118.5" r="103.5" fill="url(#paint0_linear)"/></g><path fill-rule="evenodd" clip-rule="evenodd" d="M127.692 130.47h.462a5.152 5.152 0 003.283-1.295c.282-.242.537-.513.763-.809l10.933-15.44a3.955 3.955 0 00.139-4.184 4.81 4.81 0 00-4.369-2.543h-3.999V85.188h3.999a4.852 4.852 0 004.369-2.52 3.995 3.995 0 00-.301-4.23l-11.026-15.556a5.127 5.127 0 00-3.467-1.85 4.921 4.921 0 00-3.744 1.133 4.218 4.218 0 00-.833.855l-10.933 15.418a3.953 3.953 0 00-.301 4.207 4.975 4.975 0 004.623 2.543h3.999v20.988h-3.999a4.964 4.964 0 00-4.391 2.473 4.097 4.097 0 00.185 4.277l11.118 15.695a5.13 5.13 0 003.49 1.849zm.416-4.623h-.254v-.069l-10.54-14.91h8.668V80.611h-8.668l10.517-14.817a.44.44 0 01.37-.115h.254l10.54 14.886h-8.529v30.326h8.529l-10.494 14.817a.624.624 0 01-.393.139zm-25.526 6.165a66.37 66.37 0 0025.48 5.07 66.378 66.378 0 0047.132-19.602l-3.26-3.259a62.088 62.088 0 01-87.605.139l-.185-.185L81 117.549a66.36 66.36 0 0021.582 14.463zm-20.865 5.924c17.428 6.912 32.43 10.379 47.177 10.379 14.724 0 29.194-3.467 45.56-10.402l-1.78-4.276c-31.483 13.337-55.638 13.337-89.27 0l-1.688 4.299zm91.928 17.707h-90.98v4.623h90.98v-4.623z" fill="#fff"/><defs><linearGradient id="paint0_linear" x1="128.5" y1="15" x2="128.5" y2="222" gradientUnits="userSpaceOnUse"><stop offset=".104" stop-color="#D2D62A"/><stop offset=".229" stop-color="#C6D233"/><stop offset=".625" stop-color="#A6C74B"/><stop offset=".87" stop-color="#83BB65"/></linearGradient><filter id="filter0_d" x="0" y="0" width="257" height="257" filterUnits="userSpaceOnUse" color-interpolation-filters="sRGB"><feFlood flood-opacity="0" result="BackgroundImageFix"/><feColorMatrix in="SourceAlpha" values="0 0 0 0 0 0 0 0 0 0 0 0 0 0 0 0 0 0 127 0" result="hardAlpha"/><feOffset dy="10"/><feGaussianBlur stdDeviation="12.5"/><feComposite in2="hardAlpha" operator="out"/><feColorMatrix values="0 0 0 0 0 0 0 0 0 0 0 0 0 0 0 0 0 0 0.15 0"/><feBlend in2="BackgroundImageFix" result="effect1_dropShadow"/><feBlend in="SourceGraphic" in2="effect1_dropShadow" result="shape"/></filter></defs></svg>