<svg width="257" height="257" fill="none" xmlns="http://www.w3.org/2000/svg"><g filter="url(#filter0_d)"><circle cx="128.5" cy="118.5" r="103.5" fill="url(#paint0_linear)"/></g><path fill-rule="evenodd" clip-rule="evenodd" d="M125.962 69h4.623v17.313h27.114V87.4l17.174 40.751h7.513l-.462 2.705a24.505 24.505 0 01-24.248 20.41 24.504 24.504 0 01-24.224-20.41l-.462-2.705h7.577l15.645-37.215h-55.9l15.646 37.215h7.439l-.463 2.705a24.452 24.452 0 01-24.178 20.41h-.023a24.456 24.456 0 01-24.27-20.41L74 128.151h7.651l17.151-40.697v-1.14h27.16V69zm-27.16 30.327l12.113 28.755H86.69l12.112-28.755zm-11.814 43.489a19.901 19.901 0 01-7.232-10.042h38.001a19.904 19.904 0 01-19 13.869 19.897 19.897 0 01-11.77-3.827zm51.688-10.042a19.882 19.882 0 0019 13.869 19.877 19.877 0 0018.978-13.869h-37.978zm31.159-4.692H145.61l12.066-28.755 12.159 28.755z" fill="#fff"/><defs><linearGradient id="paint0_linear" x1="128.5" y1="15" x2="128.5" y2="222" gradientUnits="userSpaceOnUse"><stop stop-color="#ADC724"/><stop offset=".359" stop-color="#A4C330"/><stop offset=".604" stop-color="#8AB850"/><stop offset=".896" stop-color="#5CA58A"/></linearGradient><filter id="filter0_d" x="0" y="0" width="257" height="257" filterUnits="userSpaceOnUse" color-interpolation-filters="sRGB"><feFlood flood-opacity="0" result="BackgroundImageFix"/><feColorMatrix in="SourceAlpha" values="0 0 0 0 0 0 0 0 0 0 0 0 0 0 0 0 0 0 127 0" result="hardAlpha"/><feOffset dy="10"/><feGaussianBlur stdDeviation="12.5"/><feComposite in2="hardAlpha" operator="out"/><feColorMatrix values="0 0 0 0 0 0 0 0 0 0 0 0 0 0 0 0 0 0 0.15 0"/><feBlend in2="BackgroundImageFix" result="effect1_dropShadow"/><feBlend in="SourceGraphic" in2="effect1_dropShadow" result="shape"/></filter></defs></svg>