<svg width="257" height="257" fill="none" xmlns="http://www.w3.org/2000/svg"><g filter="url(#filter0_d)"><circle cx="128.5" cy="118.5" r="103.5" fill="url(#paint0_linear)"/></g><path fill-rule="evenodd" clip-rule="evenodd" d="M143.414 97.664h24.664V73h-24.664v9.662h-23.508v33.447h-18.365a13.878 13.878 0 00-1.421-4.184 13.874 13.874 0 00-13.56-7.327 13.873 13.873 0 00-5.186 1.549 13.863 13.863 0 00-5.756 18.746 13.869 13.869 0 0012.274 7.374 13.873 13.873 0 006.472-1.595 13.871 13.871 0 007.176-9.94h18.366v33.471h23.508v10.009h24.664v-24.664h-24.664v10.032h-18.885v-28.848h18.885v10.217h24.664v-24.664h-24.664v9.824h-18.885V87.286h18.885v10.378zm20.041-4.623h-15.418V77.623h15.418v15.418zm0 33.285h-15.418v-15.418h15.418v15.418zm-15.418 33.263h15.418v-15.418h-15.418v15.418zm-68.09-45.944a9.249 9.249 0 013.6-3.407 9.25 9.25 0 0110.225 1.039 9.242 9.242 0 011.224 13.028 9.24 9.24 0 01-2.805 2.275 9.248 9.248 0 01-12.482-3.837 9.242 9.242 0 01-1.086-4.322 9.245 9.245 0 011.324-4.776z" fill="#fff"/><defs><linearGradient id="paint0_linear" x1="128.5" y1="15" x2="128.5" y2="222" gradientUnits="userSpaceOnUse"><stop offset=".198" stop-color="#2E8B2E"/><stop offset=".714" stop-color="#107250"/><stop offset="1" stop-color="#006562"/></linearGradient><filter id="filter0_d" x="0" y="0" width="257" height="257" filterUnits="userSpaceOnUse" color-interpolation-filters="sRGB"><feFlood flood-opacity="0" result="BackgroundImageFix"/><feColorMatrix in="SourceAlpha" values="0 0 0 0 0 0 0 0 0 0 0 0 0 0 0 0 0 0 127 0" result="hardAlpha"/><feOffset dy="10"/><feGaussianBlur stdDeviation="12.5"/><feComposite in2="hardAlpha" operator="out"/><feColorMatrix values="0 0 0 0 0 0 0 0 0 0 0 0 0 0 0 0 0 0 0.15 0"/><feBlend in2="BackgroundImageFix" result="effect1_dropShadow"/><feBlend in="SourceGraphic" in2="effect1_dropShadow" result="shape"/></filter></defs></svg>