<svg width="257" height="257" fill="none" xmlns="http://www.w3.org/2000/svg"><g filter="url(#filter0_d_43:522)"><circle cx="128.5" cy="118.5" r="103.5" fill="url(#paint0_linear_43:522)"/></g><path fill-rule="evenodd" clip-rule="evenodd" d="M169.885 66h-24.421a.323.323 0 00-.325.305v8.14a.326.326 0 00.325.326h9.667l-10.644 10.705a31.686 31.686 0 00-19.638-6.797A31.891 31.891 0 0093 110.507a31.886 31.886 0 0027.738 31.584v9.301h-9.585a.323.323 0 00-.326.305v8.669c0 .042.009.084.025.122a.301.301 0 00.178.166c.039.015.081.02.123.018h9.585v9.178c0 .081.032.158.089.216a.308.308 0 00.216.089h8.67a.308.308 0 00.216-.089.308.308 0 00.089-.216v-9.077h9.585a.272.272 0 00.12-.017.278.278 0 00.168-.168.272.272 0 00.017-.12v-8.669a.306.306 0 00-.305-.306h-9.585v-9.463a31.872 31.872 0 0026.68-31.523 31.648 31.648 0 00-5.821-18.316L161.48 81.59v9.035a.325.325 0 00.305.326h8.141a.328.328 0 00.305-.326v-24.32a.306.306 0 00-.305-.305h-.041zm-44.995 67.951a23.486 23.486 0 01-23.444-23.444 23.483 23.483 0 0123.444-23.444 23.484 23.484 0 0123.444 23.444 23.485 23.485 0 01-23.444 23.444zm14.286-33.07h-28.491a.304.304 0 00-.305.285v6.879a.304.304 0 00.305.285h28.491a.305.305 0 00.305-.285v-6.879a.304.304 0 00-.305-.285zm-28.491 12.292h28.491a.306.306 0 01.305.285v6.899a.271.271 0 01-.029.108.306.306 0 01-.068.088.293.293 0 01-.208.069h-28.491a.28.28 0 01-.208-.069.306.306 0 01-.068-.088.271.271 0 01-.029-.108v-6.899a.306.306 0 01.305-.285z" fill="#fff"/><defs><linearGradient id="paint0_linear_43:522" x1="129" y1="222" x2="129" y2="15" gradientUnits="userSpaceOnUse"><stop stop-color="#B42E02"/><stop offset="1" stop-color="#EE402C"/></linearGradient><filter id="filter0_d_43:522" x="0" y="0" width="257" height="257" filterUnits="userSpaceOnUse" color-interpolation-filters="sRGB"><feFlood flood-opacity="0" result="BackgroundImageFix"/><feColorMatrix in="SourceAlpha" values="0 0 0 0 0 0 0 0 0 0 0 0 0 0 0 0 0 0 127 0" result="hardAlpha"/><feOffset dy="10"/><feGaussianBlur stdDeviation="12.5"/><feComposite in2="hardAlpha" operator="out"/><feColorMatrix values="0 0 0 0 0 0 0 0 0 0 0 0 0 0 0 0 0 0 0.15 0"/><feBlend in2="BackgroundImageFix" result="effect1_dropShadow_43:522"/><feBlend in="SourceGraphic" in2="effect1_dropShadow_43:522" result="shape"/></filter></defs></svg>