<svg width="352" height="352" fill="none" xmlns="http://www.w3.org/2000/svg"><circle cx="176" cy="176" r="176" fill="#fff"/><g filter="url(#filter0_d)"><path d="M100.341 131.385a87.591 87.591 0 0113.826-17.791L68.852 63.912a154.632 154.632 0 00-28.775 37.447l60.264 30.026z" fill="#5EBA47"/><path d="M211.454 96.27a86.002 86.002 0 0119.085 11.917l45.442-49.62a153.976 153.976 0 00-40.289-25.127l-24.238 62.83z" fill="#E3B533"/><path d="M315.528 111.219l-60.243 30.026a86.356 86.356 0 016.043 21.205l67.007-6.362a153.559 153.559 0 00-12.723-44.975" fill="#C4212E"/><path d="M250.98 132.53l60.222-30.026a155.813 155.813 0 00-28.139-37.362L237.6 114.76a87.147 87.147 0 0113.38 17.769z" fill="#4A9E45"/><path d="M88.382 175.342v-4.071l-66.923-6.001c-.254 3.329-.254 6.68-.254 10.072a155.393 155.393 0 004.559 37.279l64.738-18.576a87.593 87.593 0 01-2.12-18.703z" fill="#408045"/><path d="M242.541 230.412a87.094 87.094 0 01-16.349 15.373l35.391 57.253a155.636 155.636 0 0034.648-32.167l-53.69-40.459z" fill="#FAC212"/><path d="M262.261 175.342a85.733 85.733 0 01-1.993 18.491l64.717 18.681a154.111 154.111 0 004.517-37.087c0-3.181 0-6.362-.297-9.479l-67.007 6.362v3.138" fill="#ED402B"/><path d="M109.184 231.705L55.62 272.418a155.573 155.573 0 0034.988 31.68l35.37-57.253a87.786 87.786 0 01-16.794-15.162" fill="#F79E29"/><path d="M89.463 161.623a86.113 86.113 0 016.362-21.586l-60.159-30.005a153.455 153.455 0 00-13.274 45.569l67.071 6.022z" fill="#1A94D4"/><path d="M253.334 308.275l-35.327-57.253a86.753 86.753 0 01-20.611 8.482l12.532 66.117a153.036 153.036 0 0043.47-17.346" fill="#A11C42"/><path d="M257.681 203.206a86.96 86.96 0 01-9.394 19.36l53.733 40.544a153.719 153.719 0 0020.293-41.329l-64.632-18.575z" fill="#26BDE0"/><path d="M187.853 261.286c-4.15.605-8.338.91-12.532.912a88.102 88.102 0 01-10.114-.594l-12.532 66.265a154.79 154.79 0 0047.583-.381l-12.405-66.202z" fill="#F26B2B"/><path d="M180.877 88.573a85.267 85.267 0 0121.523 4.24l24.173-62.83a153.98 153.98 0 00-45.696-8.736v67.326z" fill="#E8213B"/><path d="M155.622 260.013a85.43 85.43 0 01-21.353-8.058l-35.39 57.253a153.286 153.286 0 0044.296 16.964l12.447-66.159z" fill="#DB1769"/><path d="M149.197 92.41a86.29 86.29 0 0121.968-3.901V21.205a152.823 152.823 0 00-46.311 8.482l24.343 62.723z" fill="#17476B"/><path d="M103.289 223.966a86.544 86.544 0 01-10.242-20.548L28.35 221.972a153.931 153.931 0 0021.374 42.707l53.564-40.713z" fill="#C7962E"/><path d="M121.461 107.148a85.84 85.84 0 0118.639-11.26l-24.322-62.766a154.538 154.538 0 00-39.674 24.28l45.357 49.746z" fill="#03699C"/></g><defs><filter id="filter0_d" x="10.602" y="14.843" width="333.743" height="333.764" filterUnits="userSpaceOnUse" color-interpolation-filters="sRGB"><feFlood flood-opacity="0" result="BackgroundImageFix"/><feColorMatrix in="SourceAlpha" values="0 0 0 0 0 0 0 0 0 0 0 0 0 0 0 0 0 0 127 0" result="hardAlpha"/><feOffset dx="2.12" dy="6.361"/><feGaussianBlur stdDeviation="6.361"/><feComposite in2="hardAlpha" operator="out"/><feColorMatrix values="0 0 0 0 0 0 0 0 0 0 0 0 0 0 0 0 0 0 0.13 0"/><feBlend in2="BackgroundImageFix" result="effect1_dropShadow"/><feBlend in="SourceGraphic" in2="effect1_dropShadow" result="shape"/></filter></defs></svg>