<svg width="257" height="257" fill="none" xmlns="http://www.w3.org/2000/svg"><g filter="url(#filter0_d_43:592)"><circle cx="128.5" cy="118.5" r="103.5" fill="url(#paint0_linear_43:592)"/></g><path fill-rule="evenodd" clip-rule="evenodd" d="M168.366 81.56a7.528 7.528 0 011.608-5.23 7.203 7.203 0 015.128-1.588 7.568 7.568 0 01-1.587 5.23 7.264 7.264 0 01-5.149 1.587zm-7.753-1.14a7.021 7.021 0 011.363-4.986 7.084 7.084 0 013.358 3.928 7.061 7.061 0 01-1.343 4.986 7.078 7.078 0 01-3.378-3.928zm-.387 4.437a7.06 7.06 0 01-1.343 4.986 7.097 7.097 0 01-3.378-3.908 7.021 7.021 0 011.363-4.986 7.103 7.103 0 013.358 3.908zm6.512 2.3a6.29 6.29 0 004.294 1.81 6.573 6.573 0 004.07-2.564 6.286 6.286 0 00-4.294-1.811 6.513 6.513 0 00-4.07 2.564zm-.875 7.488a6.532 6.532 0 004.416-1.689 6.226 6.226 0 00-3.826-2.646 6.452 6.452 0 00-4.416 1.67 6.229 6.229 0 003.826 2.665zm-14.978 36.591h17.013a2.403 2.403 0 012.225 1.496c.119.294.179.608.177.925 0 .637-.253 1.248-.704 1.698a2.398 2.398 0 01-1.698.704h-17.013a2.398 2.398 0 01-2.401-2.402 2.386 2.386 0 01.177-.925 2.407 2.407 0 012.224-1.496zm17.013 26.537h-17.013a2.412 2.412 0 00-1.767.71 2.38 2.38 0 00-.531.814 2.38 2.38 0 00-.164.959 2.393 2.393 0 001.477 2.237c.293.122.607.185.924.185h17.013a2.404 2.404 0 002.402-2.422c0-.637-.253-1.248-.704-1.698a2.398 2.398 0 00-1.698-.704l.061-.081zm-76.457-32.378l-1.18-.305s.427.142 1.18.305zm75.826 12.332h-15.751c-.367 0-.719.146-.979.405-.259.26-.405.612-.405.979v4.864l-10.297 1.139-15.019-.346v-9.178a41.641 41.641 0 005.983-1.221c14.469-4.07 17.624-13.106 17.298-21.368-.326-8.262 2.401-11.722 6.268-13.167a16.46 16.46 0 013.216-.855 26.032 26.032 0 001.383 7.347h1.038a24.435 24.435 0 01-1.424-7.408 17.318 17.318 0 013.439 0 21.613 21.613 0 01-3.276-2.34c.633-3.957 2.901-6.299 5.271-8.745l.203-.21a27.473 27.473 0 003.846-4.497l-.855-.55a29.285 29.285 0 01-3.703 4.356 17.648 17.648 0 00-5.638 8.893 31.569 31.569 0 01-2.462-2.483c-3.582-4.07-8.14-1.078-14.714 5.027-6.573 6.105-14.815 6.309-22.853-1.933-10.623-10.868-19.903-10.807-26.253-10.176 4.355 1.852 5.882 5.922 8.14 16.281 2.3 10.847 8.141 15.731 16.078 16.423-3.704.59-4.661 1.099-10.583 5.189-4.619 3.195-11.132 2.198-13.777 1.588 2.451.762 5.132 2.442 7.85 4.144 2.651 1.662 5.338 3.345 7.881 4.22a37.715 37.715 0 009.361 1.933v8.792l-28.49-.631v6.105l51.873-1.16 10.298 1.139v4.763a1.366 1.366 0 00.851 1.284c.169.068.35.102.532.099h15.752a1.37 1.37 0 00.985-.399 1.371 1.371 0 00.399-.984v-15.63a1.379 1.379 0 00-.304-1.217 1.381 1.381 0 00-1.162-.472zm-48.312-1.913h.001c1.119 0 2.238 0 3.377-.102v8.894h-3.378v-8.792zm-32.584 14.018c.09-.274.126-.563.104-.851l.061-4.233a2.179 2.179 0 00-2.035-2.34h-1.2a2.173 2.173 0 00-1.932 1.489 2.18 2.18 0 00-.104.851v4.233a2.179 2.179 0 002.035 2.34h1.14a2.18 2.18 0 001.931-1.489z" fill="#fff"/><defs><linearGradient id="paint0_linear_43:592" x1="128.5" y1="15" x2="128.5" y2="222" gradientUnits="userSpaceOnUse"><stop stop-color="#036A9C"/><stop offset="1" stop-color="#031E7D"/></linearGradient><filter id="filter0_d_43:592" x="0" y="0" width="257" height="257" filterUnits="userSpaceOnUse" color-interpolation-filters="sRGB"><feFlood flood-opacity="0" result="BackgroundImageFix"/><feColorMatrix in="SourceAlpha" values="0 0 0 0 0 0 0 0 0 0 0 0 0 0 0 0 0 0 127 0" result="hardAlpha"/><feOffset dy="10"/><feGaussianBlur stdDeviation="12.5"/><feComposite in2="hardAlpha" operator="out"/><feColorMatrix values="0 0 0 0 0 0 0 0 0 0 0 0 0 0 0 0 0 0 0.15 0"/><feBlend in2="BackgroundImageFix" result="effect1_dropShadow_43:592"/><feBlend in="SourceGraphic" in2="effect1_dropShadow_43:592" result="shape"/></filter></defs></svg>