<svg width="257" height="257" fill="none" xmlns="http://www.w3.org/2000/svg"><g filter="url(#filter0_d_43:533)"><circle cx="128.5" cy="118.5" r="103.5" fill="url(#paint0_linear_43:533)"/></g><path fill-rule="evenodd" clip-rule="evenodd" d="M130.451 85.42a2.4 2.4 0 01-1.604.643 2.4 2.4 0 01-2.361-2.198V71.29a2.402 2.402 0 012.361-2.219 2.399 2.399 0 012.36 2.219v12.576a2.4 2.4 0 01-.756 1.555zm-1.604 5.16a28.674 28.674 0 100 57.349 28.674 28.674 0 000-57.348zm-2.035 11.316a2.173 2.173 0 012.035-2.035 2.174 2.174 0 012.035 2.035v9.849a2.18 2.18 0 01-2.035 2.035 2.158 2.158 0 01-2.035-2.035v-9.849zm2.035 32.052a14.92 14.92 0 01-14.917-14.917 14.938 14.938 0 0110.48-14.246v5.556a9.776 9.776 0 00-5.332 8.69 9.767 9.767 0 009.769 9.768 9.763 9.763 0 006.879-2.854 9.765 9.765 0 002.869-6.873 9.781 9.781 0 00-5.353-8.71v-5.536a14.918 14.918 0 01-4.416 29.163l.021-.041zm-32.989-14.876a2.402 2.402 0 00-2.035-2.442H81.267a2.403 2.403 0 00-2.218 2.361 2.403 2.403 0 002.218 2.361h12.556a2.402 2.402 0 002.035-2.28zm82.258-1.61a2.4 2.4 0 01.651 1.61 2.401 2.401 0 01-2.218 2.361h-12.557a2.405 2.405 0 01-2.218-2.361 2.406 2.406 0 012.218-2.36h12.557a2.4 2.4 0 011.567.75zm-49.269 51.428a2.401 2.401 0 002.36-2.198v-12.556a2.395 2.395 0 00-.75-1.567 2.394 2.394 0 00-1.61-.651 2.397 2.397 0 00-2.361 2.218v12.556a2.405 2.405 0 002.361 2.198zm43.561-26.826a2.385 2.385 0 01-.235 1.714 2.403 2.403 0 01-3.093.956l-10.888-6.247a2.382 2.382 0 01-.753-3.155 2.402 2.402 0 013.094-.936l10.887 6.248c.496.333.848.84.988 1.42zm-68.41 20.253a2.402 2.402 0 003.134-.753l6.248-10.908a2.402 2.402 0 00-.936-3.093 2.402 2.402 0 00-3.154.753l-6.248 10.908a2.424 2.424 0 00.956 3.093zm50.804-1.426a2.397 2.397 0 01-1.066 1.365 2.404 2.404 0 01-3.155-.732l-6.247-10.888a2.422 2.422 0 01.936-3.114 2.442 2.442 0 013.154.753l6.248 10.888c.257.54.303 1.156.13 1.728zm-69.12-17.011a2.4 2.4 0 003.094.936l10.888-6.268a2.4 2.4 0 00.753-3.134 2.423 2.423 0 00-3.114-.957l-10.888 6.268a2.403 2.403 0 00-.732 3.155zm14.592-41.251a2.4 2.4 0 00-.753-3.134l-10.887-6.248a2.401 2.401 0 00-3.094.936 2.4 2.4 0 00.753 3.155l10.888 6.247a2.397 2.397 0 003.093-.956zm46.647-11.983a2.4 2.4 0 01-1.712-.228 2.4 2.4 0 01-.957-3.093l6.248-10.908a2.42 2.42 0 013.154-.753 2.42 2.42 0 01.936 3.114l-6.247 10.887a2.402 2.402 0 01-1.422.98zm-34.477-.207a2.381 2.381 0 00.936-3.073l-6.268-10.888a2.382 2.382 0 00-3.134-.753 2.38 2.38 0 00-.936 3.094l6.248 10.887a2.399 2.399 0 003.154.733zm46.307 13.198a2.406 2.406 0 01-1.352-1.069 2.383 2.383 0 01.732-3.134l10.888-6.268a2.402 2.402 0 013.093.936 2.421 2.421 0 01-.753 3.154l-10.887 6.268c-.54.25-1.153.29-1.721.113z" fill="#fff"/><defs><linearGradient id="paint0_linear_43:533" x1="128.5" y1="15" x2="128.5" y2="222" gradientUnits="userSpaceOnUse"><stop stop-color="#FCB316"/><stop offset="1" stop-color="#D7720F"/></linearGradient><filter id="filter0_d_43:533" x="0" y="0" width="257" height="257" filterUnits="userSpaceOnUse" color-interpolation-filters="sRGB"><feFlood flood-opacity="0" result="BackgroundImageFix"/><feColorMatrix in="SourceAlpha" values="0 0 0 0 0 0 0 0 0 0 0 0 0 0 0 0 0 0 127 0" result="hardAlpha"/><feOffset dy="10"/><feGaussianBlur stdDeviation="12.5"/><feComposite in2="hardAlpha" operator="out"/><feColorMatrix values="0 0 0 0 0 0 0 0 0 0 0 0 0 0 0 0 0 0 0.15 0"/><feBlend in2="BackgroundImageFix" result="effect1_dropShadow_43:533"/><feBlend in="SourceGraphic" in2="effect1_dropShadow_43:533" result="shape"/></filter></defs></svg>