<svg width="273" height="262" fill="none" xmlns="http://www.w3.org/2000/svg"><path d="M204.754.174H68.246L0 118.67l68.246 118.504h136.508L273 118.67 204.754.174z" fill="url(#paint0_linear)"/><path d="M185.753 33.174H87.247L38 118.67l49.247 85.503h98.506L235 118.671l-49.247-85.497z" fill="#fff"/><path fill-rule="evenodd" clip-rule="evenodd" d="M88.075 89.174H85v58.786h103V89.174H88.075zm3.074 33.77v-8.509a20.894 20.894 0 0019.008-19.112h51.222a20.65 20.65 0 005.819 11.544 20.637 20.637 0 0014.623 6.047l-.008-6.149a14.51 14.51 0 01-10.267-4.245 14.499 14.499 0 01-3.92-7.197h14.225v27.482a22.082 22.082 0 00-20.802 19.006h-50.465a21.343 21.343 0 00-6.129-12.694 21.352 21.352 0 00-13.306-6.173zm0 6.18v12.687h13.23a15.23 15.23 0 00-4.269-8.344 15.202 15.202 0 00-8.961-4.343zm80.504 4.471a15.937 15.937 0 0110.198-4.631v12.847h-14.57a15.935 15.935 0 014.372-8.216zM99.76 104.047a14.743 14.743 0 01-8.611 4.206v-12.93h12.83a14.74 14.74 0 01-4.22 8.724zm36.109-5.73c-4.758 0-8.827 2.611-11.599 6.335-2.774 3.727-4.404 8.733-4.404 14.128s1.63 10.405 4.402 14.137c2.77 3.729 6.84 6.348 11.601 6.348 4.762 0 8.831-2.619 11.602-6.348 2.772-3.732 4.401-8.742 4.401-14.137 0-5.393-1.622-10.398-4.393-14.126-2.771-3.728-6.842-6.337-11.61-6.337zm-9.854 20.463c0-4.2 1.276-7.888 3.187-10.457 1.913-2.57 4.308-3.857 6.667-3.857 2.373 0 4.766 1.288 6.675 3.856 1.908 2.567 3.179 6.256 3.179 10.458 0 4.2-1.276 7.895-3.188 10.47-1.915 2.578-4.31 3.866-6.666 3.866-2.356 0-4.75-1.288-6.665-3.866-1.913-2.575-3.189-6.27-3.189-10.47z" fill="#2E73F0"/><defs><linearGradient id="paint0_linear" x1="0" y1="119.174" x2="273" y2="119.174" gradientUnits="userSpaceOnUse"><stop stop-color="#2C2CFF"/><stop offset="1" stop-color="#283A8C"/></linearGradient></defs></svg>