<svg width="273" height="272" fill="none" xmlns="http://www.w3.org/2000/svg"><path d="M204.754.174H68.246L0 118.67l68.246 118.504h136.508L273 118.67 204.754.174z" fill="url(#paint0_linear)"/><path d="M185.753 33.174H87.247L38 118.67l49.247 85.503h98.506L235 118.671l-49.247-85.497z" fill="#fff"/><path fill-rule="evenodd" clip-rule="evenodd" d="M166.251 89.357a49.98 49.98 0 00-70.589 0L91 84.695a56.579 56.579 0 0179.913 0l-4.662 4.662zm-14.956 14.009a29.483 29.483 0 00-41.646 0l-4.662-4.662a36.039 36.039 0 0150.971 0l-4.663 4.662zm1.397 22.615h10.856a17.5 17.5 0 110 35.001h-54.304a17.5 17.5 0 110-35.001h.608c0-10.902 9.595-19.911 21.42-19.911 11.825 0 21.42 8.919 21.42 19.911z" fill="#2E73F0"/><defs><linearGradient id="paint0_linear" x1="0" y1="119.174" x2="273" y2="119.174" gradientUnits="userSpaceOnUse"><stop stop-color="#14A0C0"/><stop offset="1" stop-color="#01CC9B"/></linearGradient></defs></svg>