<svg width="273" height="262" fill="none" xmlns="http://www.w3.org/2000/svg"><path d="M204.754.174H68.246L0 118.67l68.246 118.504h136.508L273 118.67 204.754.174z" fill="url(#paint0_linear)"/><path d="M185.753 33.174H87.247L38 118.67l49.247 85.503h98.506L235 118.671l-49.247-85.497z" fill="#fff"/><path fill-rule="evenodd" clip-rule="evenodd" d="M136.913 65.174h.043a36.411 36.411 0 0135.893 35.499l-3.074.077h3.075c0 9.787-4.074 16.405-7.555 22.06a140 140 0 00-1.607 2.651c-3.752 6.392-6.672 11.527-6.672 17.07v9.171a19.72 19.72 0 01-19.693 19.692h-.004a19.72 19.72 0 01-19.719-19.692v-9.171c0-5.265-2.85-10.55-6.844-16.678l-.002-.002c-.372-.572-.757-1.153-1.149-1.745-3.932-5.936-8.605-12.991-8.605-23.356v-.038l.001-.039a36.41 36.41 0 0135.868-35.499h.044zm-13.164 82.459h27.118v4.063a13.572 13.572 0 01-13.549 13.549 13.566 13.566 0 01-13.569-13.55v-4.062zm42.952-46.845a30.257 30.257 0 00-29.786-29.465 30.258 30.258 0 00-29.766 29.465c.011 8.418 3.677 13.984 7.636 19.997.373.566.748 1.136 1.123 1.712l14.3-6.112a16.01 16.01 0 01-3.142-1.916l-2.857 2.882-4.367-4.328 3.185-3.214a16.053 16.053 0 01-.906-1.847 16.115 16.115 0 01-.993-3.417h-4.868v-6.149h5.007a16.137 16.137 0 012.291-5.425l-2.879-3.449 4.721-3.94 2.492 2.986a16.11 16.11 0 012.914-1.574 16.103 16.103 0 013.214-.955v-4.84h6.148v4.899a16.139 16.139 0 015.775 2.43l2.952-3.181 4.507 4.181-3.118 3.362a16.067 16.067 0 011.489 2.79c.447 1.077.767 2.176.968 3.28h4.827v5.732l9.133-3.904zm-26.533 16.757v4.849h-6.148v-4.793a16.111 16.111 0 01-3.811-1.215l-14.3 6.112c3.745 5.745 7.465 12.089 7.813 18.986h27.171c.337-6.952 3.966-13.132 7.294-18.798l.198-.338a198.396 198.396 0 011.764-2.928c3.439-5.634 6.542-10.718 6.552-18.632l-9.133 3.904v.416h-.974l-4.463 1.908a16.076 16.076 0 01-1.357 2.951l3.199 2.719-3.982 4.685-3.294-2.799a16.057 16.057 0 01-3.609 2.075c-.96.398-1.938.696-2.92.898zm16.425-12.437h-3.937a16.07 16.07 0 01-.525 1.908l4.462-1.908zm-28.792.501c-2.092-5.051.307-10.842 5.358-12.934 5.051-2.092 10.841.307 12.934 5.358 2.092 5.05-.307 10.841-5.358 12.933-5.051 2.092-10.841-.306-12.934-5.357z" fill="#2E73F0"/><defs><linearGradient id="paint0_linear" x1="0" y1="119.174" x2="273" y2="119.174" gradientUnits="userSpaceOnUse"><stop stop-color="#09909F"/><stop offset="1" stop-color="#7DE314"/></linearGradient></defs></svg>