<svg width="221" height="222" fill="none" xmlns="http://www.w3.org/2000/svg"><g filter="url(#filter0_d)"><path d="M110.5 186.174c47.22 0 85.5-38.28 85.5-85.5s-38.28-85.5-85.5-85.5-85.5 38.28-85.5 85.5 38.28 85.5 85.5 85.5z" fill="url(#paint0_linear)"/></g><path d="M111 169.174c37.555 0 68-30.445 68-68 0-37.556-30.445-68-68-68s-68 30.444-68 68c0 37.555 30.445 68 68 68z" fill="url(#paint1_linear)"/><path d="M179.667 93.88a69.505 69.505 0 01-36.411 68.09 69.508 69.508 0 01-76.843-7.569 69.5 69.5 0 11113.254-60.52zM43.765 107.352a67.07 67.07 0 0047.319 57.568 67.065 67.065 0 0086.169-57.666 67.065 67.065 0 00-73.364-73.269 67.068 67.068 0 00-60.124 73.367z" fill="url(#paint2_linear)"/><path fill-rule="evenodd" clip-rule="evenodd" d="M99.976 125.52h23.208v3.861a11.622 11.622 0 01-11.604 11.604 11.622 11.622 0 01-11.604-11.604v-3.861zm-4.283 0h.063v3.861a15.867 15.867 0 0015.824 15.824 15.848 15.848 0 0015.824-15.824v-5.886h-.143l-.068-1.73c0-4.642 2.194-8.651 5.549-14.242l1.245-2.11c3.017-4.726 6.329-10.064 6.329-18.018a29.196 29.196 0 00-29.158-29.221A29.2 29.2 0 0082 87.395c0 8.366 3.69 13.912 6.98 18.858l.088.131.907 1.392c2.89 4.452 5.718 9.178 5.718 13.967v3.777zm40.403-38.125a24.98 24.98 0 00-24.938-25.001A24.98 24.98 0 0086.22 87.395c0 7.066 3.187 11.923 6.27 16.621l.06.089.949 1.414c3.143 4.852 6.33 10.064 6.33 15.824h23.208c.146-5.883 3.138-10.921 6.04-15.806l.099-.166 1.287-2.11c2.975-4.684 5.633-9.072 5.633-15.866zm-42.387 1.076l14.875 14.875 21.963-21.985-2.996-2.996-18.967 19.01-11.879-11.9-2.996 2.996z" fill="#286BAF"/><defs><linearGradient id="paint0_linear" x1="42.269" y1="166.806" x2="169.883" y2="39.192" gradientUnits="userSpaceOnUse"><stop stop-color="#004FD4"/><stop offset=".32" stop-color="#3187E5"/><stop offset=".63" stop-color="#5BB7F3"/><stop offset=".87" stop-color="#75D5FC"/><stop offset="1" stop-color="#7FE0FF"/></linearGradient><linearGradient id="paint1_linear" x1="67.699" y1="155.87" x2="154.26" y2="50.05" gradientUnits="userSpaceOnUse"><stop stop-color="#C6C8CC"/><stop offset=".47" stop-color="#DBDDE1"/><stop offset="1" stop-color="#F7FAFF"/></linearGradient><linearGradient id="paint2_linear" x1="180.966" y1="93.639" x2="42.008" y2="107.535" gradientUnits="userSpaceOnUse"><stop stop-color="#C6C8CC"/><stop offset=".12" stop-color="#D0D3D7"/><stop offset=".43" stop-color="#E6E8ED"/><stop offset=".73" stop-color="#F3F6FA"/><stop offset="1" stop-color="#F7FAFF"/></linearGradient><filter id="filter0_d" x="0" y=".174" width="221" height="221" filterUnits="userSpaceOnUse" color-interpolation-filters="sRGB"><feFlood flood-opacity="0" result="BackgroundImageFix"/><feColorMatrix in="SourceAlpha" values="0 0 0 0 0 0 0 0 0 0 0 0 0 0 0 0 0 0 127 0" result="hardAlpha"/><feOffset dy="10"/><feGaussianBlur stdDeviation="12.5"/><feComposite in2="hardAlpha" operator="out"/><feColorMatrix values="0 0 0 0 0 0 0 0 0 0 0 0 0 0 0 0 0 0 0.15 0"/><feBlend in2="BackgroundImageFix" result="effect1_dropShadow"/><feBlend in="SourceGraphic" in2="effect1_dropShadow" result="shape"/></filter></defs></svg>