<svg width="221" height="222" fill="none" xmlns="http://www.w3.org/2000/svg"><g filter="url(#filter0_d)"><path d="M110.5 186.174c47.22 0 85.5-38.28 85.5-85.5s-38.28-85.5-85.5-85.5-85.5 38.28-85.5 85.5 38.28 85.5 85.5 85.5z" fill="url(#paint0_linear)"/></g><path d="M111 169.174c37.555 0 68-30.445 68-68 0-37.556-30.445-68-68-68s-68 30.444-68 68c0 37.555 30.445 68 68 68z" fill="url(#paint1_linear)"/><path d="M179.667 93.88a69.505 69.505 0 01-36.411 68.09 69.508 69.508 0 01-76.843-7.569 69.5 69.5 0 11113.254-60.52zM43.765 107.352a67.07 67.07 0 0047.319 57.568 67.065 67.065 0 0086.169-57.666 67.068 67.068 0 10-133.488.098z" fill="url(#paint2_linear)"/><path fill-rule="evenodd" clip-rule="evenodd" d="M124.255 63.174l-8.316 14.898-8.601-4.781-22.297 40.052-6.989-3.889L76 113.141l15.59 8.677-3.843 6.922-6.152-3.429-2.055 3.686 16.016 8.925 2.054-3.686-6.177-3.442 3.844-6.924 15.602 8.684 2.053-3.687-6.947-3.866 22.303-40.064-8.661-4.815 8.312-14.891-3.684-2.057zm-21.939 59.761l-13.587-7.553 20.254-36.353 13.567 7.554-20.234 36.352zm24.388 11.646a10.8 10.8 0 007.576 3.186 10.773 10.773 0 0010.018-6.64c.546-1.313.827-2.72.827-4.141 0-5.127-7.49-17.216-8.988-19.6l-1.793-2.806-1.773 2.806c-1.498 2.384-9.009 14.473-9.009 19.6a10.805 10.805 0 003.142 7.595zm1.015-7.595c0-2.405 3.418-9.093 6.561-14.41v.063c3.165 5.254 6.562 11.942 6.562 14.347a6.562 6.562 0 01-6.562 6.562 6.585 6.585 0 01-6.561-6.562z" fill="#286BAF"/><defs><linearGradient id="paint0_linear" x1="42.269" y1="166.806" x2="169.883" y2="39.192" gradientUnits="userSpaceOnUse"><stop stop-color="#004FD4"/><stop offset=".32" stop-color="#3187E5"/><stop offset=".63" stop-color="#5BB7F3"/><stop offset=".87" stop-color="#75D5FC"/><stop offset="1" stop-color="#7FE0FF"/></linearGradient><linearGradient id="paint1_linear" x1="67.699" y1="155.87" x2="154.26" y2="50.05" gradientUnits="userSpaceOnUse"><stop stop-color="#C6C8CC"/><stop offset=".47" stop-color="#DBDDE1"/><stop offset="1" stop-color="#F7FAFF"/></linearGradient><linearGradient id="paint2_linear" x1="180.966" y1="93.639" x2="42.008" y2="107.535" gradientUnits="userSpaceOnUse"><stop stop-color="#C6C8CC"/><stop offset=".12" stop-color="#D0D3D7"/><stop offset=".43" stop-color="#E6E8ED"/><stop offset=".73" stop-color="#F3F6FA"/><stop offset="1" stop-color="#F7FAFF"/></linearGradient><filter id="filter0_d" x="0" y=".174" width="221" height="221" filterUnits="userSpaceOnUse" color-interpolation-filters="sRGB"><feFlood flood-opacity="0" result="BackgroundImageFix"/><feColorMatrix in="SourceAlpha" values="0 0 0 0 0 0 0 0 0 0 0 0 0 0 0 0 0 0 127 0" result="hardAlpha"/><feOffset dy="10"/><feGaussianBlur stdDeviation="12.5"/><feComposite in2="hardAlpha" operator="out"/><feColorMatrix values="0 0 0 0 0 0 0 0 0 0 0 0 0 0 0 0 0 0 0.15 0"/><feBlend in2="BackgroundImageFix" result="effect1_dropShadow"/><feBlend in="SourceGraphic" in2="effect1_dropShadow" result="shape"/></filter></defs></svg>