<svg width="221" height="222" fill="none" xmlns="http://www.w3.org/2000/svg"><g filter="url(#filter0_d)"><path d="M110.5 186.174c47.22 0 85.5-38.28 85.5-85.5s-38.28-85.5-85.5-85.5-85.5 38.28-85.5 85.5 38.28 85.5 85.5 85.5z" fill="url(#paint0_linear)"/></g><path d="M111 169.174c37.555 0 68-30.445 68-68 0-37.556-30.445-68-68-68s-68 30.444-68 68c0 37.555 30.445 68 68 68z" fill="url(#paint1_linear)"/><path d="M179.667 93.88a69.505 69.505 0 01-36.411 68.09 69.508 69.508 0 01-76.843-7.569 69.5 69.5 0 11113.254-60.52zM43.765 107.352a67.07 67.07 0 0047.319 57.568 67.065 67.065 0 0086.169-57.666 67.068 67.068 0 10-133.488.098z" fill="url(#paint2_linear)"/><path fill-rule="evenodd" clip-rule="evenodd" d="M84.641 126.09a36.33 36.33 0 0025.648 10.641 36.308 36.308 0 0036.269-36.289 36.313 36.313 0 00-36.269-36.268A36.332 36.332 0 0074 100.442a36.332 36.332 0 0010.641 25.648zm3.084-48.634a32.345 32.345 0 0117.756-8.916 50.65 50.65 0 00-8.405 14.813 33.96 33.96 0 01-9.351-5.897zm-2.655 2.956a32.345 32.345 0 00-6.942 18.194h15.967c.151-3.894.75-7.73 1.77-11.438a37.745 37.745 0 01-10.794-6.756zm14.561 8.075a46.573 46.573 0 00-1.574 10.12h24.261a46.584 46.584 0 00-1.541-10.073 37.705 37.705 0 01-10.488 1.464 37.748 37.748 0 01-10.658-1.511zm19.951-3.761a33.962 33.962 0 01-18.745-.04 46.593 46.593 0 019.395-15.474 46.626 46.626 0 019.35 15.514zm4.96 2.507a50.608 50.608 0 011.752 11.373h16.221a32.324 32.324 0 00-6.971-18.243 37.723 37.723 0 01-10.802 6.789l-.2.081zm8.341-9.822a33.959 33.959 0 01-9.548 6.004 50.641 50.641 0 00-8.465-14.921 32.321 32.321 0 0118.013 8.917zm-54.737 25.183a32.344 32.344 0 006.99 17.981 37.99 37.99 0 0110.69-6.727 50.614 50.614 0 01-1.73-11.254h-15.95zm18.878 15.066a33.975 33.975 0 00-9.227 5.86 32.343 32.343 0 0017.449 8.808 50.632 50.632 0 01-8.222-14.668zm13.131 14.371a46.58 46.58 0 01-9.432-15.705 33.94 33.94 0 0118.937-.112 46.632 46.632 0 01-9.505 15.817zm4.949.346a50.645 50.645 0 008.31-14.856 33.957 33.957 0 019.497 5.946 32.324 32.324 0 01-17.807 8.91zm9.505-18.7a37.957 37.957 0 0110.991 6.794 32.325 32.325 0 006.897-17.877h-16.205a50.569 50.569 0 01-1.683 11.083zm-14.183-2.748c3.554 0 7.056.498 10.414 1.456a46.615 46.615 0 001.476-9.791H98.052a46.57 46.57 0 001.494 9.927 37.989 37.989 0 0110.88-1.592z" fill="#286BAF"/><defs><linearGradient id="paint0_linear" x1="42.269" y1="166.806" x2="169.883" y2="39.192" gradientUnits="userSpaceOnUse"><stop stop-color="#004FD4"/><stop offset=".32" stop-color="#3187E5"/><stop offset=".63" stop-color="#5BB7F3"/><stop offset=".87" stop-color="#75D5FC"/><stop offset="1" stop-color="#7FE0FF"/></linearGradient><linearGradient id="paint1_linear" x1="67.699" y1="155.87" x2="154.26" y2="50.05" gradientUnits="userSpaceOnUse"><stop stop-color="#C6C8CC"/><stop offset=".47" stop-color="#DBDDE1"/><stop offset="1" stop-color="#F7FAFF"/></linearGradient><linearGradient id="paint2_linear" x1="180.966" y1="93.639" x2="42.008" y2="107.535" gradientUnits="userSpaceOnUse"><stop stop-color="#C6C8CC"/><stop offset=".12" stop-color="#D0D3D7"/><stop offset=".43" stop-color="#E6E8ED"/><stop offset=".73" stop-color="#F3F6FA"/><stop offset="1" stop-color="#F7FAFF"/></linearGradient><filter id="filter0_d" x="0" y=".174" width="221" height="221" filterUnits="userSpaceOnUse" color-interpolation-filters="sRGB"><feFlood flood-opacity="0" result="BackgroundImageFix"/><feColorMatrix in="SourceAlpha" values="0 0 0 0 0 0 0 0 0 0 0 0 0 0 0 0 0 0 127 0" result="hardAlpha"/><feOffset dy="10"/><feGaussianBlur stdDeviation="12.5"/><feComposite in2="hardAlpha" operator="out"/><feColorMatrix values="0 0 0 0 0 0 0 0 0 0 0 0 0 0 0 0 0 0 0.15 0"/><feBlend in2="BackgroundImageFix" result="effect1_dropShadow"/><feBlend in="SourceGraphic" in2="effect1_dropShadow" result="shape"/></filter></defs></svg>