<svg width="221" height="222" fill="none" xmlns="http://www.w3.org/2000/svg"><g filter="url(#filter0_d)"><path d="M110.5 186.174c47.22 0 85.5-38.28 85.5-85.5s-38.28-85.5-85.5-85.5-85.5 38.28-85.5 85.5 38.28 85.5 85.5 85.5z" fill="url(#paint0_linear)"/></g><path d="M111 169.174c37.555 0 68-30.445 68-68 0-37.556-30.445-68-68-68s-68 30.444-68 68c0 37.555 30.445 68 68 68z" fill="url(#paint1_linear)"/><path d="M179.667 93.88a69.505 69.505 0 01-36.411 68.09 69.508 69.508 0 01-76.843-7.569 69.5 69.5 0 11113.254-60.52zM43.765 107.352a67.07 67.07 0 0047.319 57.568 67.065 67.065 0 0086.169-57.666 67.068 67.068 0 10-133.488.098z" fill="url(#paint2_linear)"/><path fill-rule="evenodd" clip-rule="evenodd" d="M94.875 80.246a10.739 10.739 0 01-3.506-1.985 10.824 10.824 0 01-1.456-15.043l.17-.211a10.845 10.845 0 0115.253-1.287 10.539 10.539 0 013.798 7.363 10.68 10.68 0 01-.947 5.452l13.622 7.004a11.922 11.922 0 019.141-4.27 11.941 11.941 0 0111.878 11.921 11.94 11.94 0 01-11.532 11.914l-1.785 20.446a10.825 10.825 0 014.35 2.241 10.843 10.843 0 012.636 3.314 10.841 10.841 0 011.162 4.071 10.725 10.725 0 01-2.553 7.87 10.829 10.829 0 01-8.313 3.84 10.893 10.893 0 01-6.329-2.11l-.464-.401-.127-.106-.337-.295a10.67 10.67 0 01-3.439-7.068 10.654 10.654 0 01.065-2.428l-15.366-7.691a12.658 12.658 0 01-8.034 3.874l-1.16.042a12.656 12.656 0 01-8.102-2.933 12.764 12.764 0 01-1.583-17.849 12.53 12.53 0 018.587-4.473c.371-.033.742-.05 1.112-.05l3.259-21.152zm30.419 41.087l1.821-20.862a11.933 11.933 0 01-4.387-2.662l-19.12 12.148a12.647 12.647 0 01-.437 9.3l14.409 7.212a10.826 10.826 0 017.714-5.136zm-5.061-26.939a11.95 11.95 0 01-1.204-5.204c0-1.359.233-2.706.686-3.983l-14.047-7.222a10.554 10.554 0 01-6.408 2.787l-.198.009-3.284 21.314a12.646 12.646 0 015.812 4.145l18.643-11.846zM93.205 65.813l.253-.253a6.624 6.624 0 019.072-.612 6.508 6.508 0 012.321 4.494 6.562 6.562 0 01-1.435 4.747 6.516 6.516 0 01-4.493 2.32 6.561 6.561 0 01-4.832-1.56 6.54 6.54 0 01-.886-9.136zM91.6 105.605a8.44 8.44 0 00-5.506 14.853 8.45 8.45 0 006.33 2.11 8.441 8.441 0 005.717-2.996 8.45 8.45 0 001.941-6.182 8.44 8.44 0 00-2.996-5.718 8.436 8.436 0 00-5.443-2.067H91.6zm31.226 31.732a6.628 6.628 0 009.009-.992 6.564 6.564 0 001.54-4.81 6.484 6.484 0 00-2.3-4.494 6.6 6.6 0 00-9.283.717 6.49 6.49 0 00-1.54 4.789 6.582 6.582 0 001.772 3.988h.464l.338.802zM128 82.07a7.677 7.677 0 012.95-.581 7.7 7.7 0 017.659 7.701 7.724 7.724 0 01-7.659 7.7 7.7 7.7 0 01-7.701-7.7 7.676 7.676 0 012.249-5.452A7.684 7.684 0 01128 82.07z" fill="#286BAF"/><defs><linearGradient id="paint0_linear" x1="42.269" y1="166.806" x2="169.883" y2="39.192" gradientUnits="userSpaceOnUse"><stop stop-color="#004FD4"/><stop offset=".32" stop-color="#3187E5"/><stop offset=".63" stop-color="#5BB7F3"/><stop offset=".87" stop-color="#75D5FC"/><stop offset="1" stop-color="#7FE0FF"/></linearGradient><linearGradient id="paint1_linear" x1="67.699" y1="155.87" x2="154.26" y2="50.05" gradientUnits="userSpaceOnUse"><stop stop-color="#C6C8CC"/><stop offset=".47" stop-color="#DBDDE1"/><stop offset="1" stop-color="#F7FAFF"/></linearGradient><linearGradient id="paint2_linear" x1="180.966" y1="93.639" x2="42.008" y2="107.535" gradientUnits="userSpaceOnUse"><stop stop-color="#C6C8CC"/><stop offset=".12" stop-color="#D0D3D7"/><stop offset=".43" stop-color="#E6E8ED"/><stop offset=".73" stop-color="#F3F6FA"/><stop offset="1" stop-color="#F7FAFF"/></linearGradient><filter id="filter0_d" x="0" y=".174" width="221" height="221" filterUnits="userSpaceOnUse" color-interpolation-filters="sRGB"><feFlood flood-opacity="0" result="BackgroundImageFix"/><feColorMatrix in="SourceAlpha" values="0 0 0 0 0 0 0 0 0 0 0 0 0 0 0 0 0 0 127 0" result="hardAlpha"/><feOffset dy="10"/><feGaussianBlur stdDeviation="12.5"/><feComposite in2="hardAlpha" operator="out"/><feColorMatrix values="0 0 0 0 0 0 0 0 0 0 0 0 0 0 0 0 0 0 0.15 0"/><feBlend in2="BackgroundImageFix" result="effect1_dropShadow"/><feBlend in="SourceGraphic" in2="effect1_dropShadow" result="shape"/></filter></defs></svg>