<svg width="60" height="61" fill="none" xmlns="http://www.w3.org/2000/svg"><path d="M13.592 30.342h31.799V19.115m-15.85.073v22.333M13.811 19.31v22.332m37.107-28.301a5.528 5.528 0 11-5.528-5.724 5.625 5.625 0 015.65 5.748l-.122-.024zM35.191 47.465a5.528 5.528 0 11-5.529-5.7 5.627 5.627 0 015.529 5.7zm0-34a5.528 5.528 0 11-5.529-5.724 5.626 5.626 0 015.529 5.625v.098zm-15.875 34a5.528 5.528 0 11-5.504-5.7 5.627 5.627 0 015.504 5.7zm0-34a5.529 5.529 0 11-5.504-5.724 5.626 5.626 0 015.504 5.625v.098z" stroke="#2C7EC2" stroke-width="5.023"/></svg>