<svg xmlns="http://www.w3.org/2000/svg" xmlns:xlink="http://www.w3.org/1999/xlink" width="85" height="85"><defs><path d="M0 42.5C0 65.97 19.03 85 42.5 85S85 65.97 85 42.5 65.97 0 42.5 0 0 19.03 0 42.5z" id="b"/><path d="M6.38 42.5c0 19.95 16.17 36.13 36.12 36.12 19.95 0 36.13-16.17 36.13-36.12 0-19.95-16.18-36.12-36.13-36.12-19.95 0-36.12 16.17-36.12 36.12z" id="c"/><path d="M13.82 42.5c0 15.84 12.84 28.68 28.68 28.68S71.18 58.34 71.18 42.5 58.34 13.82 42.5 13.82 13.82 26.66 13.82 42.5z" id="d"/><path d="M46.81 42.5l7.69 7.69-4.31 4.31-7.69-7.69-7.69 7.69-4.31-4.31 7.69-7.69-7.69-7.69 4.31-4.31 7.69 7.69 7.69-7.69 4.31 4.31-7.69 7.69z" id="a"/><clipPath id="e"><use xlink:href="#a"/></clipPath></defs><use xlink:href="#b" fill="#252d40"/><use xlink:href="#b" fill-opacity="0" stroke="#000" stroke-opacity="0"/><use xlink:href="#c" fill="#252d40"/><use xlink:href="#c" fill-opacity="0" stroke="#000" stroke-opacity="0"/><use xlink:href="#d" fill="#252d40"/><use xlink:href="#d" fill-opacity="0" stroke="#000" stroke-opacity="0"/><use xlink:href="#a" fill="#fff"/><g clip-path="url(#e)"><use xlink:href="#a" fill-opacity="0" stroke="#5779b8" stroke-width="0"/></g></svg>